G04*
G04 #@! TF.GenerationSoftware,Altium Limited,Altium Designer,25.1.2 (22)*
G04*
G04 Layer_Color=2752767*
%FSLAX44Y44*%
%MOMM*%
G71*
G04*
G04 #@! TF.SameCoordinates,735CD127-3729-4D2A-A9AC-AB826B6A9FB7*
G04*
G04*
G04 #@! TF.FilePolarity,Positive*
G04*
G01*
G75*
%ADD72C,0.1270*%
%ADD73C,0.1693*%
D72*
X1003980Y65290D02*
X998900Y75450D01*
X1009060D01*
X1003980Y65290D01*
Y85290D02*
X998900Y95450D01*
X1009060D01*
X1003980Y85290D01*
Y105290D02*
X998900Y115450D01*
X1009060D01*
X1003980Y105290D01*
Y125290D02*
X998900Y135450D01*
X1009060D01*
X1003980Y125290D01*
Y145290D02*
X998900Y155450D01*
X1009060D01*
X1003980Y145290D01*
Y165290D02*
X998900Y175450D01*
X1009060D01*
X1003980Y165290D01*
Y185290D02*
X998900Y195450D01*
X1009060D01*
X1003980Y185290D01*
Y205290D02*
X998900Y215450D01*
X1009060D01*
X1003980Y205290D01*
Y225290D02*
X998900Y235450D01*
X1009060D01*
X1003980Y225290D01*
X368980D02*
X363900Y235450D01*
X374060D01*
X368980Y225290D01*
Y205290D02*
X363900Y215450D01*
X374060D01*
X368980Y205290D01*
Y185290D02*
X363900Y195450D01*
X374060D01*
X368980Y185290D01*
Y165290D02*
X363900Y175450D01*
X374060D01*
X368980Y165290D01*
Y145290D02*
X363900Y155450D01*
X374060D01*
X368980Y145290D01*
Y125290D02*
X363900Y135450D01*
X374060D01*
X368980Y125290D01*
Y105290D02*
X363900Y115450D01*
X374060D01*
X368980Y105290D01*
Y85290D02*
X363900Y95450D01*
X374060D01*
X368980Y85290D01*
Y65290D02*
X363900Y75450D01*
X374060D01*
X368980Y65290D01*
X92220Y556010D02*
X94760Y561090D01*
X92220Y566170D01*
X97300Y563630D01*
X102380Y566170D01*
X99840Y561090D01*
X102380Y556010D01*
X97300Y558550D01*
X92220Y556010D01*
X346220D02*
X348760Y561090D01*
X346220Y566170D01*
X351300Y563630D01*
X356380Y566170D01*
X353840Y561090D01*
X356380Y556010D01*
X351300Y558550D01*
X346220Y556010D01*
X138430Y19354D02*
X140970Y21894D01*
X143510D01*
X140970Y24434D01*
X143510Y26974D01*
X140970D01*
X138430Y29514D01*
X135890Y26974D01*
X133350D01*
X135890Y24434D01*
X133350Y21894D01*
X135890D01*
X138430Y19354D01*
Y108154D02*
X140970Y110694D01*
X143510D01*
X140970Y113234D01*
X143510Y115774D01*
X140970D01*
X138430Y118314D01*
X135890Y115774D01*
X133350D01*
X135890Y113234D01*
X133350Y110694D01*
X135890D01*
X138430Y108154D01*
X110090Y311404D02*
X112630Y313944D01*
X115170D01*
X112630Y316484D01*
X115170Y319024D01*
X112630D01*
X110090Y321564D01*
X107550Y319024D01*
X105010D01*
X107550Y316484D01*
X105010Y313944D01*
X107550D01*
X110090Y311404D01*
X60090D02*
X62630Y313944D01*
X65170D01*
X62630Y316484D01*
X65170Y319024D01*
X62630D01*
X60090Y321564D01*
X57550Y319024D01*
X55010D01*
X57550Y316484D01*
X55010Y313944D01*
X57550D01*
X60090Y311404D01*
X76570Y54450D02*
Y64610D01*
X86730D01*
Y54450D01*
X76570D01*
Y34450D02*
Y44610D01*
X86730D01*
Y34450D01*
X76570D01*
X77840Y160114D02*
Y170274D01*
X88000D01*
Y160114D01*
X77840D01*
Y140114D02*
Y150274D01*
X88000D01*
Y140114D01*
X77840D01*
X502920Y317400D02*
Y327560D01*
X513080D01*
Y317400D01*
X502920D01*
X477520Y342800D02*
Y352960D01*
X487680D01*
Y342800D01*
X477520D01*
X452120Y317400D02*
Y327560D01*
X462280D01*
Y317400D01*
X452120D01*
D73*
X263380Y468254D02*
G03*
X263380Y468254I-5080J0D01*
G01*
X246380Y508254D02*
G03*
X246380Y508254I-5080J0D01*
G01*
X229380Y468254D02*
G03*
X229380Y468254I-5080J0D01*
G01*
X212380Y508254D02*
G03*
X212380Y508254I-5080J0D01*
G01*
X195380Y468254D02*
G03*
X195380Y468254I-5080J0D01*
G01*
M02*
