G04*
G04 #@! TF.GenerationSoftware,Altium Limited,Altium Designer,25.1.2 (22)*
G04*
G04 Layer_Color=16711935*
%FSLAX44Y44*%
%MOMM*%
G71*
G04*
G04 #@! TF.SameCoordinates,735CD127-3729-4D2A-A9AC-AB826B6A9FB7*
G04*
G04*
G04 #@! TF.FilePolarity,Negative*
G04*
G01*
G75*
%ADD46C,1.4000*%
%ADD47R,1.4000X1.4000*%
%ADD48C,1.9032*%
%ADD49R,1.9032X1.9032*%
%ADD50C,3.7000*%
%ADD51R,1.5500X1.5500*%
%ADD52C,1.5500*%
%ADD53R,1.5500X1.5500*%
%ADD54R,1.4032X1.4032*%
%ADD55C,1.4032*%
%ADD56C,1.2000*%
%ADD57R,1.2000X1.2000*%
%ADD58C,1.4732*%
D46*
X1003980Y70370D02*
D03*
Y90370D02*
D03*
Y110370D02*
D03*
Y130370D02*
D03*
Y150370D02*
D03*
Y170370D02*
D03*
Y190370D02*
D03*
Y210370D02*
D03*
Y230370D02*
D03*
X368980D02*
D03*
Y210370D02*
D03*
Y190370D02*
D03*
Y170370D02*
D03*
Y150370D02*
D03*
Y130370D02*
D03*
Y110370D02*
D03*
Y90370D02*
D03*
D47*
Y70370D02*
D03*
D48*
X258300Y468254D02*
D03*
X241300Y508254D02*
D03*
X224300Y468254D02*
D03*
X207300Y508254D02*
D03*
D49*
X190300Y468254D02*
D03*
D50*
X97300Y561090D02*
D03*
X351300D02*
D03*
D51*
X138430Y24434D02*
D03*
D52*
Y113234D02*
D03*
X60090Y316484D02*
D03*
D53*
X110090D02*
D03*
D54*
X81650Y59530D02*
D03*
X82920Y165194D02*
D03*
D55*
X81650Y39530D02*
D03*
X82920Y145194D02*
D03*
D56*
X508000Y322480D02*
D03*
X482600Y347880D02*
D03*
D57*
X457200Y322480D02*
D03*
D58*
X227500Y47500D02*
D03*
X180000D02*
D03*
X995000Y280000D02*
D03*
X665000Y480000D02*
D03*
X600000Y477500D02*
D03*
X297500Y555000D02*
D03*
X392500Y435000D02*
D03*
X332500Y440000D02*
D03*
X442500Y357500D02*
D03*
X397500Y360000D02*
D03*
X865000Y647500D02*
D03*
X952500Y615000D02*
D03*
X865000D02*
D03*
X782500Y587500D02*
D03*
X737500Y590000D02*
D03*
X592500Y575000D02*
D03*
X557500Y630000D02*
D03*
X82500Y617500D02*
D03*
X192500Y620000D02*
D03*
X427500Y575000D02*
D03*
X420000Y525000D02*
D03*
X412500Y672500D02*
D03*
X190000D02*
D03*
X295000D02*
D03*
X82500D02*
D03*
X102500Y465000D02*
D03*
X57500Y455000D02*
D03*
X162500Y380000D02*
D03*
X222500Y412500D02*
D03*
X182500Y265000D02*
D03*
X115000Y230000D02*
D03*
X157500Y170000D02*
D03*
X140000Y72500D02*
D03*
X585000Y420000D02*
D03*
X507500Y392500D02*
D03*
X510000Y177500D02*
D03*
X507500Y122500D02*
D03*
X457500Y275000D02*
D03*
X397500D02*
D03*
X427500Y232500D02*
D03*
X872500Y495000D02*
D03*
X922500D02*
D03*
X950000Y375000D02*
D03*
X690000Y377500D02*
D03*
X670000Y355000D02*
D03*
X960000Y245000D02*
D03*
X920000Y282500D02*
D03*
X875000Y242500D02*
D03*
X835000Y282500D02*
D03*
X757500Y240000D02*
D03*
X712500Y270000D02*
D03*
X585000Y260000D02*
D03*
X595000Y180000D02*
D03*
X675000Y132500D02*
D03*
X835000Y117500D02*
D03*
X927500Y37500D02*
D03*
X712500Y42500D02*
D03*
X417500Y40000D02*
D03*
X275000Y100000D02*
D03*
Y192500D02*
D03*
X725000Y170000D02*
D03*
X770000Y150000D02*
D03*
X685000Y187500D02*
D03*
X640000Y207500D02*
D03*
X537500Y150000D02*
D03*
X535000Y322500D02*
D03*
X427500Y320000D02*
D03*
X790000Y432500D02*
D03*
X732500Y485000D02*
D03*
X315000Y385000D02*
D03*
Y402500D02*
D03*
X517500Y525000D02*
D03*
X345000Y300000D02*
D03*
X755000Y370000D02*
D03*
Y347500D02*
D03*
X962500Y445000D02*
D03*
Y475000D02*
D03*
M02*
