G04*
G04 #@! TF.GenerationSoftware,Altium Limited,Altium Designer,25.1.2 (22)*
G04*
G04 Layer_Color=16711935*
%FSLAX44Y44*%
%MOMM*%
G71*
G04*
G04 #@! TF.SameCoordinates,735CD127-3729-4D2A-A9AC-AB826B6A9FB7*
G04*
G04*
G04 #@! TF.FilePolarity,Positive*
G04*
G01*
G75*
%ADD11C,0.1500*%
%ADD12C,0.2000*%
%ADD69C,0.1000*%
D11*
X150090Y316484D02*
G03*
X150090Y316484I-65000J0D01*
G01*
D12*
X346480Y15370D02*
Y285370D01*
Y15370D02*
X1026480D01*
Y285370D01*
X346480D02*
X1026480D01*
X618060Y402490D02*
X723060D01*
X618060Y326490D02*
Y402490D01*
Y326490D02*
X723060D01*
Y402490D01*
X432300Y436090D02*
Y686090D01*
X16300D02*
X432300D01*
X16300Y436090D02*
Y686090D01*
Y436090D02*
X432300D01*
X817630Y586470D02*
X998630D01*
Y330470D02*
Y586470D01*
X817630Y330470D02*
X998630D01*
X817630D02*
Y586470D01*
X772350Y465710D02*
Y481710D01*
X764350Y465710D02*
X772350D01*
X764350D02*
Y481710D01*
X772350D01*
X311404Y16256D02*
Y278384D01*
X181356Y16256D02*
X311404D01*
X181356D02*
Y278384D01*
X311404D01*
X124430Y42834D02*
Y94834D01*
X152430D01*
Y42834D02*
Y94834D01*
X124430Y42834D02*
X152430D01*
X206030Y113670D02*
Y180970D01*
X268230D01*
Y113670D02*
Y180970D01*
X206030Y113670D02*
X268230D01*
X215190Y323850D02*
X285190D01*
X215190D02*
Y374650D01*
X285190D01*
Y323850D02*
Y374650D01*
X529372Y469682D02*
X597372D01*
Y537682D01*
X529372D02*
X597372D01*
X529372Y469682D02*
Y537682D01*
X469862Y536382D02*
X496862D01*
X469862Y496382D02*
Y536382D01*
Y496382D02*
X496862D01*
Y536382D01*
X981960Y634290D02*
Y704290D01*
X917960D02*
X981960D01*
X917960Y634290D02*
Y704290D01*
Y634290D02*
X981960D01*
X433699Y360029D02*
X531500D01*
X433699Y310430D02*
Y360029D01*
Y310430D02*
X531500D01*
Y360029D01*
X467487Y687197D02*
X570357D01*
X467487Y584327D02*
Y687197D01*
Y584327D02*
X570357D01*
Y687197D01*
X809090Y628490D02*
X821590D01*
X809090Y608490D02*
Y628490D01*
Y608490D02*
X821590D01*
Y628490D01*
D69*
X695170Y613040D02*
Y675040D01*
X628170Y613040D02*
Y675040D01*
X695170D01*
X628170Y613040D02*
X695170D01*
X236200Y511404D02*
Y518304D01*
X246400Y511404D02*
Y518304D01*
X212400Y511404D02*
Y518304D01*
X202200Y511404D02*
Y518304D01*
X185200Y471404D02*
Y518304D01*
X195400Y471404D02*
Y518304D01*
X185200D02*
Y524604D01*
X195400Y518304D02*
Y524604D01*
X185200D02*
X195400D01*
X185200Y518304D02*
X195400D01*
X202200D02*
Y524604D01*
X212400Y518304D02*
Y524604D01*
X202200D02*
X212400D01*
X202200Y518304D02*
X212400D01*
X253200D02*
Y524604D01*
X263400Y518304D02*
Y524604D01*
X253200D02*
X263400D01*
X253200Y518304D02*
X263400D01*
X236200D02*
Y524604D01*
X246400Y518304D02*
Y524604D01*
X236200D02*
X246400D01*
X236200Y518304D02*
X246400D01*
X219200D02*
X229400D01*
X219200Y524604D02*
X229400D01*
Y518304D02*
Y524604D01*
X219200Y518304D02*
Y524604D01*
X236200Y505104D02*
X246400D01*
X236200Y511404D02*
X246400D01*
Y505104D02*
Y511404D01*
X236200Y505104D02*
Y511404D01*
X202200Y505104D02*
X212400D01*
X202200Y511404D02*
X212400D01*
Y505104D02*
Y511404D01*
X202200Y505104D02*
Y511404D01*
X229400Y465104D02*
Y471404D01*
X219200Y465104D02*
Y471404D01*
Y465104D02*
X229400D01*
X219200Y471404D02*
X229400D01*
X185200D02*
X195400D01*
X185200Y465104D02*
X195400D01*
X185200D02*
Y471404D01*
X195400Y465104D02*
Y471404D01*
X253200D02*
X263400D01*
X253200Y465104D02*
X263400D01*
X253200D02*
Y471404D01*
X263400Y465104D02*
Y471404D01*
X229400D02*
Y518304D01*
X219200Y471404D02*
Y518304D01*
X263400Y471404D02*
Y518304D01*
X253200Y471404D02*
Y518304D01*
X171300Y503554D02*
X277300D01*
X171300Y537554D02*
X277300D01*
X171300Y550554D02*
X277300D01*
Y503554D02*
Y550554D01*
X171300Y503554D02*
Y550554D01*
X572920Y361320D02*
Y390520D01*
X559920Y361320D02*
Y390520D01*
Y361320D02*
X572920D01*
X559920Y390520D02*
X572920D01*
X755160Y327190D02*
X789160D01*
X755160Y300190D02*
X789160D01*
X755160D02*
Y327190D01*
X789160Y300190D02*
Y327190D01*
X753580Y524020D02*
Y558020D01*
X780580Y524020D02*
Y558020D01*
X753580Y524020D02*
X780580D01*
X753580Y558020D02*
X780580D01*
X235060Y284250D02*
X267560D01*
X235060Y300750D02*
X267560D01*
Y284250D02*
Y300750D01*
X235060Y284250D02*
Y300750D01*
X265690Y387990D02*
X298190D01*
X265690Y404490D02*
X298190D01*
Y387990D02*
Y404490D01*
X265690Y387990D02*
Y404490D01*
X19153Y20028D02*
X95153D01*
X19153D02*
Y79028D01*
X19151Y79031D02*
X95153D01*
Y69033D02*
Y79028D01*
X95150Y69031D02*
X95153Y69033D01*
X79151Y69031D02*
X95150D01*
Y20030D02*
Y30030D01*
X79151D02*
X95150D01*
X79151D02*
Y69031D01*
X20423Y125692D02*
X96423D01*
X20423D02*
Y184692D01*
X20421Y184695D02*
X96423D01*
Y174697D02*
Y184692D01*
X96420Y174695D02*
X96423Y174697D01*
X80421Y174695D02*
X96420D01*
Y125694D02*
Y135694D01*
X80421D02*
X96420D01*
X80421D02*
Y174695D01*
X877310Y685170D02*
Y701670D01*
X844810Y685170D02*
Y701670D01*
Y685170D02*
X877310D01*
X844810Y701670D02*
X877310D01*
X629120Y538190D02*
X656120D01*
X629120Y504190D02*
X656120D01*
Y538190D01*
X629120Y504190D02*
Y538190D01*
M02*
