G04*
G04 #@! TF.GenerationSoftware,Altium Limited,Altium Designer,25.1.2 (22)*
G04*
G04 Layer_Color=8388736*
%FSLAX44Y44*%
%MOMM*%
G71*
G04*
G04 #@! TF.SameCoordinates,735CD127-3729-4D2A-A9AC-AB826B6A9FB7*
G04*
G04*
G04 #@! TF.FilePolarity,Negative*
G04*
G01*
G75*
%ADD17R,0.8000X2.4000*%
%ADD18R,0.7000X2.4000*%
%ADD22R,2.0000X0.9000*%
%ADD23R,0.9000X2.0000*%
%ADD24R,1.3300X1.3300*%
%ADD27R,1.0121X1.2084*%
%ADD29R,13.7160X1.5240*%
%ADD30R,2.2000X1.7000*%
%ADD31R,1.6000X3.2000*%
%ADD32R,1.5500X1.3000*%
%ADD33R,3.2510X3.1240*%
%ADD35R,1.2621X0.9578*%
G04:AMPARAMS|DCode=36|XSize=5.7532mm|YSize=7.4032mm|CornerRadius=0.1571mm|HoleSize=0mm|Usage=FLASHONLY|Rotation=180.000|XOffset=0mm|YOffset=0mm|HoleType=Round|Shape=RoundedRectangle|*
%AMROUNDEDRECTD36*
21,1,5.7532,7.0890,0,0,180.0*
21,1,5.4390,7.4032,0,0,180.0*
1,1,0.3142,-2.7195,3.5445*
1,1,0.3142,2.7195,3.5445*
1,1,0.3142,2.7195,-3.5445*
1,1,0.3142,-2.7195,-3.5445*
%
%ADD36ROUNDEDRECTD36*%
G04:AMPARAMS|DCode=37|XSize=1.2032mm|YSize=2.4032mm|CornerRadius=0.1516mm|HoleSize=0mm|Usage=FLASHONLY|Rotation=180.000|XOffset=0mm|YOffset=0mm|HoleType=Round|Shape=RoundedRectangle|*
%AMROUNDEDRECTD37*
21,1,1.2032,2.1000,0,0,180.0*
21,1,0.9000,2.4032,0,0,180.0*
1,1,0.3032,-0.4500,1.0500*
1,1,0.3032,0.4500,1.0500*
1,1,0.3032,0.4500,-1.0500*
1,1,0.3032,-0.4500,-1.0500*
%
%ADD37ROUNDEDRECTD37*%
%ADD38R,1.1032X1.0032*%
%ADD39R,1.5532X3.0032*%
%ADD40R,3.0032X1.5532*%
%ADD41R,1.1032X1.7532*%
%ADD42R,6.4000X5.8000*%
%ADD43R,2.2000X1.2000*%
%ADD44R,2.1000X1.4000*%
%ADD45R,3.0032X1.8032*%
%ADD46C,1.4000*%
%ADD47R,1.4000X1.4000*%
%ADD48C,1.9032*%
%ADD49R,1.9032X1.9032*%
%ADD50C,3.7000*%
%ADD51R,1.5500X1.5500*%
%ADD52C,1.5500*%
%ADD53R,1.5500X1.5500*%
%ADD54R,1.4032X1.4032*%
%ADD55C,1.4032*%
%ADD56C,1.2000*%
%ADD57R,1.2000X1.2000*%
%ADD58C,1.4732*%
D17*
X715510Y320490D02*
D03*
X625610D02*
D03*
Y408490D02*
D03*
X715510D02*
D03*
D18*
X702310Y320490D02*
D03*
X689610D02*
D03*
X676910D02*
D03*
X664210D02*
D03*
X651510D02*
D03*
X638810D02*
D03*
Y408490D02*
D03*
X651510D02*
D03*
X664210D02*
D03*
X676910D02*
D03*
X689610D02*
D03*
X702310D02*
D03*
D22*
X823130Y511070D02*
D03*
Y498370D02*
D03*
Y485670D02*
D03*
Y472970D02*
D03*
Y460270D02*
D03*
Y447570D02*
D03*
Y434870D02*
D03*
Y422170D02*
D03*
Y409470D02*
D03*
Y396770D02*
D03*
Y384070D02*
D03*
Y371370D02*
D03*
Y358670D02*
D03*
Y345970D02*
D03*
X993130D02*
D03*
Y358670D02*
D03*
Y371370D02*
D03*
Y384070D02*
D03*
Y396770D02*
D03*
Y409470D02*
D03*
Y422170D02*
D03*
Y434870D02*
D03*
Y447570D02*
D03*
Y460270D02*
D03*
Y472970D02*
D03*
Y485670D02*
D03*
Y498370D02*
D03*
Y511070D02*
D03*
D23*
X850980Y335970D02*
D03*
X863680D02*
D03*
X876380D02*
D03*
X889080D02*
D03*
X901780D02*
D03*
X914480D02*
D03*
X927180D02*
D03*
X939880D02*
D03*
X952580D02*
D03*
X965280D02*
D03*
D24*
X879780Y454420D02*
D03*
X898130D02*
D03*
X916480D02*
D03*
X879780Y436070D02*
D03*
X898130D02*
D03*
X916480D02*
D03*
X879780Y417720D02*
D03*
X898130D02*
D03*
X916480D02*
D03*
D27*
X768350Y481729D02*
D03*
Y465691D02*
D03*
D29*
X246380Y218440D02*
D03*
Y76200D02*
D03*
D30*
X291190Y336550D02*
D03*
Y361950D02*
D03*
X209190D02*
D03*
Y336550D02*
D03*
D31*
X563372Y528682D02*
D03*
Y478682D02*
D03*
D32*
X910210Y691790D02*
D03*
X989710D02*
D03*
X910210Y646790D02*
D03*
X989710D02*
D03*
D33*
X518922Y591057D02*
D03*
Y680467D02*
D03*
D35*
X815340Y611218D02*
D03*
Y625762D02*
D03*
D36*
X661670Y656540D02*
D03*
D37*
X684470Y593540D02*
D03*
X638870D02*
D03*
D38*
X576420Y366420D02*
D03*
Y385420D02*
D03*
X556420Y375920D02*
D03*
D39*
X756160Y313690D02*
D03*
X788160D02*
D03*
D40*
X767080Y525020D02*
D03*
Y557020D02*
D03*
D41*
X264560Y292500D02*
D03*
X238060D02*
D03*
X295190Y396240D02*
D03*
X268690D02*
D03*
X874310Y693420D02*
D03*
X847810D02*
D03*
D42*
X225380Y147320D02*
D03*
D43*
X288380Y124520D02*
D03*
Y170120D02*
D03*
D44*
X483362Y494382D02*
D03*
Y538382D02*
D03*
D45*
X642620Y535940D02*
D03*
Y506440D02*
D03*
D46*
X1003980Y70370D02*
D03*
Y90370D02*
D03*
Y110370D02*
D03*
Y130370D02*
D03*
Y150370D02*
D03*
Y170370D02*
D03*
Y190370D02*
D03*
Y210370D02*
D03*
Y230370D02*
D03*
X368980D02*
D03*
Y210370D02*
D03*
Y190370D02*
D03*
Y170370D02*
D03*
Y150370D02*
D03*
Y130370D02*
D03*
Y110370D02*
D03*
Y90370D02*
D03*
D47*
Y70370D02*
D03*
D48*
X258300Y468254D02*
D03*
X241300Y508254D02*
D03*
X224300Y468254D02*
D03*
X207300Y508254D02*
D03*
D49*
X190300Y468254D02*
D03*
D50*
X97300Y561090D02*
D03*
X351300D02*
D03*
D51*
X138430Y24434D02*
D03*
D52*
Y113234D02*
D03*
X60090Y316484D02*
D03*
D53*
X110090D02*
D03*
D54*
X81650Y59530D02*
D03*
X82920Y165194D02*
D03*
D55*
X81650Y39530D02*
D03*
X82920Y145194D02*
D03*
D56*
X508000Y322480D02*
D03*
X482600Y347880D02*
D03*
D57*
X457200Y322480D02*
D03*
D58*
X227500Y47500D02*
D03*
X180000D02*
D03*
X995000Y280000D02*
D03*
X665000Y480000D02*
D03*
X600000Y477500D02*
D03*
X297500Y555000D02*
D03*
X392500Y435000D02*
D03*
X332500Y440000D02*
D03*
X442500Y357500D02*
D03*
X397500Y360000D02*
D03*
X865000Y647500D02*
D03*
X952500Y615000D02*
D03*
X865000D02*
D03*
X782500Y587500D02*
D03*
X737500Y590000D02*
D03*
X592500Y575000D02*
D03*
X557500Y630000D02*
D03*
X82500Y617500D02*
D03*
X192500Y620000D02*
D03*
X427500Y575000D02*
D03*
X420000Y525000D02*
D03*
X412500Y672500D02*
D03*
X190000D02*
D03*
X295000D02*
D03*
X82500D02*
D03*
X102500Y465000D02*
D03*
X57500Y455000D02*
D03*
X162500Y380000D02*
D03*
X222500Y412500D02*
D03*
X182500Y265000D02*
D03*
X115000Y230000D02*
D03*
X157500Y170000D02*
D03*
X140000Y72500D02*
D03*
X585000Y420000D02*
D03*
X507500Y392500D02*
D03*
X510000Y177500D02*
D03*
X507500Y122500D02*
D03*
X457500Y275000D02*
D03*
X397500D02*
D03*
X427500Y232500D02*
D03*
X872500Y495000D02*
D03*
X922500D02*
D03*
X950000Y375000D02*
D03*
X690000Y377500D02*
D03*
X670000Y355000D02*
D03*
X960000Y245000D02*
D03*
X920000Y282500D02*
D03*
X875000Y242500D02*
D03*
X835000Y282500D02*
D03*
X757500Y240000D02*
D03*
X712500Y270000D02*
D03*
X585000Y260000D02*
D03*
X595000Y180000D02*
D03*
X675000Y132500D02*
D03*
X835000Y117500D02*
D03*
X927500Y37500D02*
D03*
X712500Y42500D02*
D03*
X417500Y40000D02*
D03*
X275000Y100000D02*
D03*
Y192500D02*
D03*
X725000Y170000D02*
D03*
X770000Y150000D02*
D03*
X685000Y187500D02*
D03*
X640000Y207500D02*
D03*
X537500Y150000D02*
D03*
X535000Y322500D02*
D03*
X427500Y320000D02*
D03*
X790000Y432500D02*
D03*
X732500Y485000D02*
D03*
X315000Y385000D02*
D03*
Y402500D02*
D03*
X517500Y525000D02*
D03*
X345000Y300000D02*
D03*
X755000Y370000D02*
D03*
Y347500D02*
D03*
X962500Y445000D02*
D03*
Y475000D02*
D03*
M02*
