G04*
G04 #@! TF.GenerationSoftware,Altium Limited,Altium Designer,25.1.2 (22)*
G04*
G04 Layer_Color=128*
%FSLAX44Y44*%
%MOMM*%
G71*
G04*
G04 #@! TF.SameCoordinates,735CD127-3729-4D2A-A9AC-AB826B6A9FB7*
G04*
G04*
G04 #@! TF.FilePolarity,Positive*
G04*
G01*
G75*
%ADD72C,0.1270*%
D72*
X999480Y70370D02*
X1008480D01*
X1003980Y65870D02*
Y74870D01*
X999480Y90370D02*
X1008480D01*
X1003980Y85870D02*
Y94870D01*
X999480Y110370D02*
X1008480D01*
X1003980Y105870D02*
Y114870D01*
X999480Y130370D02*
X1008480D01*
X1003980Y125870D02*
Y134870D01*
X999480Y150370D02*
X1008480D01*
X1003980Y145870D02*
Y154870D01*
X999480Y170370D02*
X1008480D01*
X1003980Y165870D02*
Y174870D01*
X999480Y190370D02*
X1008480D01*
X1003980Y185870D02*
Y194870D01*
X999480Y210370D02*
X1008480D01*
X1003980Y205870D02*
Y214870D01*
X999480Y230370D02*
X1008480D01*
X1003980Y225870D02*
Y234870D01*
X364480Y230370D02*
X373480D01*
X368980Y225870D02*
Y234870D01*
X364480Y210370D02*
X373480D01*
X368980Y205870D02*
Y214870D01*
X364480Y190370D02*
X373480D01*
X368980Y185870D02*
Y194870D01*
X364480Y170370D02*
X373480D01*
X368980Y165870D02*
Y174870D01*
X364480Y150370D02*
X373480D01*
X368980Y145870D02*
Y154870D01*
X364480Y130370D02*
X373480D01*
X368980Y125870D02*
Y134870D01*
X364480Y110370D02*
X373480D01*
X368980Y105870D02*
Y114870D01*
X364480Y90370D02*
X373480D01*
X368980Y85870D02*
Y94870D01*
X364480Y70370D02*
X373480D01*
X368980Y65870D02*
Y74870D01*
X252800Y468254D02*
X263800D01*
X258300Y462754D02*
Y473754D01*
X235800Y508254D02*
X246800D01*
X241300Y502754D02*
Y513754D01*
X218800Y468254D02*
X229800D01*
X224300Y462754D02*
Y473754D01*
X201800Y508254D02*
X212800D01*
X207300Y502754D02*
Y513754D01*
X184800Y468254D02*
X195800D01*
X190300Y462754D02*
Y473754D01*
X85050Y561090D02*
X109550D01*
X97300Y548840D02*
Y573340D01*
X339050Y561090D02*
X363550D01*
X351300Y548840D02*
Y573340D01*
X133430Y24434D02*
X143430D01*
X138430Y19434D02*
Y29434D01*
X133430Y113234D02*
X143430D01*
X138430Y108234D02*
Y118234D01*
X105090Y316484D02*
X115090D01*
X110090Y311484D02*
Y321484D01*
X55090Y316484D02*
X65090D01*
X60090Y311484D02*
Y321484D01*
X78150Y59530D02*
X85150D01*
X81650Y56030D02*
Y63030D01*
X78150Y39530D02*
X85150D01*
X81650Y36030D02*
Y43030D01*
X79420Y165194D02*
X86420D01*
X82920Y161694D02*
Y168694D01*
X79420Y145194D02*
X86420D01*
X82920Y141694D02*
Y148694D01*
X504500Y322480D02*
X511500D01*
X508000Y318980D02*
Y325980D01*
X479100Y347880D02*
X486100D01*
X482600Y344380D02*
Y351380D01*
X453700Y322480D02*
X460700D01*
X457200Y318980D02*
Y325980D01*
M02*
