G04*
G04 #@! TF.GenerationSoftware,Altium Limited,Altium Designer,25.1.2 (22)*
G04*
G04 Layer_Color=16711935*
%FSLAX44Y44*%
%MOMM*%
G71*
G04*
G04 #@! TF.SameCoordinates,735CD127-3729-4D2A-A9AC-AB826B6A9FB7*
G04*
G04*
G04 #@! TF.FilePolarity,Positive*
G04*
G01*
G75*
%ADD12C,0.2000*%
G36*
X695319Y155215D02*
X695383D01*
X695559Y155196D01*
X695753Y155169D01*
X695957Y155122D01*
X696179Y155067D01*
X696382Y154993D01*
X696391D01*
X696410Y154984D01*
X696437Y154965D01*
X696474Y154947D01*
X696567Y154900D01*
X696687Y154817D01*
X696826Y154725D01*
X696964Y154605D01*
X697094Y154466D01*
X697214Y154309D01*
Y154299D01*
X697223Y154290D01*
X697242Y154262D01*
X697260Y154235D01*
X697307Y154142D01*
X697362Y154022D01*
X697427Y153874D01*
X697473Y153698D01*
X697519Y153513D01*
X697538Y153310D01*
X696724Y153245D01*
Y153255D01*
Y153273D01*
X696715Y153301D01*
X696705Y153347D01*
X696678Y153449D01*
X696641Y153588D01*
X696585Y153735D01*
X696502Y153883D01*
X696400Y154022D01*
X696271Y154151D01*
X696253Y154161D01*
X696206Y154198D01*
X696114Y154253D01*
X695994Y154309D01*
X695836Y154364D01*
X695651Y154420D01*
X695420Y154457D01*
X695162Y154466D01*
X695032D01*
X694977Y154457D01*
X694903Y154447D01*
X694736Y154429D01*
X694551Y154392D01*
X694366Y154346D01*
X694191Y154272D01*
X694117Y154225D01*
X694043Y154179D01*
X694024Y154170D01*
X693987Y154133D01*
X693932Y154068D01*
X693876Y153994D01*
X693812Y153893D01*
X693756Y153782D01*
X693719Y153652D01*
X693701Y153504D01*
Y153486D01*
Y153449D01*
X693710Y153384D01*
X693728Y153310D01*
X693756Y153218D01*
X693802Y153125D01*
X693858Y153033D01*
X693941Y152940D01*
X693950Y152931D01*
X693997Y152903D01*
X694034Y152876D01*
X694071Y152857D01*
X694126Y152829D01*
X694191Y152792D01*
X694274Y152765D01*
X694366Y152728D01*
X694468Y152691D01*
X694588Y152644D01*
X694718Y152607D01*
X694866Y152561D01*
X695032Y152524D01*
X695217Y152478D01*
X695226D01*
X695263Y152469D01*
X695319Y152459D01*
X695383Y152441D01*
X695467Y152423D01*
X695568Y152395D01*
X695670Y152367D01*
X695781Y152339D01*
X696021Y152275D01*
X696253Y152210D01*
X696363Y152173D01*
X696465Y152136D01*
X696558Y152108D01*
X696632Y152071D01*
X696641D01*
X696659Y152062D01*
X696687Y152044D01*
X696724Y152025D01*
X696826Y151969D01*
X696946Y151896D01*
X697085Y151794D01*
X697223Y151683D01*
X697353Y151553D01*
X697464Y151415D01*
X697473Y151396D01*
X697510Y151350D01*
X697547Y151267D01*
X697602Y151156D01*
X697649Y151026D01*
X697695Y150869D01*
X697722Y150694D01*
X697732Y150509D01*
Y150499D01*
Y150490D01*
Y150463D01*
Y150426D01*
X697713Y150324D01*
X697695Y150194D01*
X697658Y150046D01*
X697612Y149889D01*
X697538Y149723D01*
X697436Y149547D01*
Y149538D01*
X697427Y149529D01*
X697380Y149473D01*
X697316Y149390D01*
X697223Y149298D01*
X697103Y149187D01*
X696955Y149066D01*
X696789Y148955D01*
X696595Y148854D01*
X696585D01*
X696567Y148844D01*
X696539Y148835D01*
X696502Y148817D01*
X696447Y148798D01*
X696382Y148771D01*
X696234Y148734D01*
X696058Y148687D01*
X695846Y148641D01*
X695614Y148613D01*
X695365Y148604D01*
X695217D01*
X695143Y148613D01*
X695060D01*
X694967Y148623D01*
X694856Y148632D01*
X694625Y148669D01*
X694385Y148706D01*
X694145Y148771D01*
X693913Y148854D01*
X693904D01*
X693886Y148863D01*
X693858Y148882D01*
X693821Y148900D01*
X693710Y148955D01*
X693580Y149039D01*
X693433Y149150D01*
X693275Y149279D01*
X693128Y149436D01*
X692989Y149612D01*
Y149621D01*
X692970Y149640D01*
X692961Y149667D01*
X692933Y149704D01*
X692915Y149751D01*
X692887Y149806D01*
X692822Y149945D01*
X692758Y150120D01*
X692702Y150315D01*
X692665Y150536D01*
X692647Y150768D01*
X693442Y150842D01*
Y150832D01*
Y150823D01*
X693451Y150795D01*
Y150758D01*
X693470Y150675D01*
X693497Y150555D01*
X693534Y150435D01*
X693571Y150296D01*
X693636Y150167D01*
X693701Y150046D01*
X693710Y150037D01*
X693738Y150000D01*
X693784Y149936D01*
X693858Y149871D01*
X693950Y149788D01*
X694052Y149704D01*
X694191Y149621D01*
X694339Y149547D01*
X694348D01*
X694357Y149538D01*
X694385Y149529D01*
X694413Y149519D01*
X694505Y149492D01*
X694625Y149455D01*
X694773Y149418D01*
X694940Y149390D01*
X695125Y149372D01*
X695328Y149362D01*
X695411D01*
X695504Y149372D01*
X695614Y149381D01*
X695744Y149399D01*
X695892Y149418D01*
X696040Y149455D01*
X696179Y149501D01*
X696197Y149510D01*
X696243Y149529D01*
X696308Y149566D01*
X696391Y149603D01*
X696474Y149667D01*
X696567Y149732D01*
X696659Y149806D01*
X696733Y149899D01*
X696742Y149908D01*
X696761Y149945D01*
X696789Y149991D01*
X696826Y150065D01*
X696863Y150139D01*
X696890Y150231D01*
X696909Y150333D01*
X696918Y150444D01*
Y150453D01*
Y150499D01*
X696909Y150555D01*
X696900Y150629D01*
X696872Y150703D01*
X696844Y150795D01*
X696798Y150888D01*
X696733Y150971D01*
X696724Y150980D01*
X696696Y151008D01*
X696659Y151045D01*
X696595Y151100D01*
X696521Y151156D01*
X696419Y151221D01*
X696299Y151285D01*
X696160Y151341D01*
X696151Y151350D01*
X696105Y151359D01*
X696031Y151387D01*
X695984Y151396D01*
X695920Y151415D01*
X695855Y151442D01*
X695772Y151461D01*
X695679Y151489D01*
X695568Y151517D01*
X695457Y151544D01*
X695328Y151581D01*
X695180Y151618D01*
X695023Y151655D01*
X695014D01*
X694986Y151664D01*
X694940Y151674D01*
X694884Y151692D01*
X694810Y151711D01*
X694727Y151729D01*
X694542Y151785D01*
X694339Y151849D01*
X694126Y151914D01*
X693941Y151979D01*
X693858Y152016D01*
X693784Y152053D01*
X693775D01*
X693765Y152062D01*
X693710Y152099D01*
X693627Y152145D01*
X693534Y152219D01*
X693423Y152302D01*
X693312Y152404D01*
X693201Y152524D01*
X693109Y152654D01*
X693100Y152672D01*
X693072Y152718D01*
X693035Y152792D01*
X692998Y152885D01*
X692961Y153005D01*
X692924Y153144D01*
X692896Y153292D01*
X692887Y153449D01*
Y153458D01*
Y153467D01*
Y153495D01*
Y153532D01*
X692906Y153624D01*
X692924Y153745D01*
X692952Y153883D01*
X692998Y154040D01*
X693063Y154198D01*
X693155Y154355D01*
Y154364D01*
X693165Y154373D01*
X693211Y154429D01*
X693275Y154503D01*
X693359Y154595D01*
X693470Y154697D01*
X693608Y154808D01*
X693775Y154910D01*
X693960Y155002D01*
X693969D01*
X693987Y155011D01*
X694015Y155021D01*
X694052Y155039D01*
X694098Y155057D01*
X694163Y155076D01*
X694302Y155113D01*
X694477Y155150D01*
X694681Y155187D01*
X694893Y155215D01*
X695134Y155224D01*
X695254D01*
X695319Y155215D01*
D02*
G37*
G36*
X701532Y148715D02*
X700746D01*
Y153717D01*
X700737Y153708D01*
X700690Y153671D01*
X700635Y153615D01*
X700542Y153551D01*
X700441Y153467D01*
X700311Y153375D01*
X700163Y153273D01*
X699997Y153171D01*
X699988D01*
X699978Y153162D01*
X699923Y153125D01*
X699830Y153079D01*
X699720Y153024D01*
X699590Y152959D01*
X699452Y152894D01*
X699313Y152829D01*
X699174Y152774D01*
Y153532D01*
X699183D01*
X699202Y153551D01*
X699239Y153560D01*
X699285Y153588D01*
X699341Y153615D01*
X699405Y153652D01*
X699562Y153745D01*
X699747Y153846D01*
X699932Y153976D01*
X700126Y154124D01*
X700321Y154281D01*
X700330Y154290D01*
X700339Y154299D01*
X700367Y154327D01*
X700404Y154355D01*
X700487Y154447D01*
X700598Y154558D01*
X700709Y154688D01*
X700829Y154836D01*
X700931Y154984D01*
X701023Y155141D01*
X701532D01*
Y148715D01*
D02*
G37*
G36*
X689106Y155104D02*
X689290Y155094D01*
X689475Y155076D01*
X689660Y155048D01*
X689818Y155021D01*
X689827D01*
X689845Y155011D01*
X689873D01*
X689910Y154993D01*
X690012Y154965D01*
X690141Y154919D01*
X690289Y154854D01*
X690446Y154771D01*
X690603Y154678D01*
X690751Y154558D01*
X690761Y154549D01*
X690770Y154540D01*
X690798Y154512D01*
X690835Y154484D01*
X690927Y154392D01*
X691038Y154262D01*
X691158Y154105D01*
X691288Y153920D01*
X691408Y153708D01*
X691509Y153467D01*
Y153458D01*
X691519Y153440D01*
X691537Y153403D01*
X691546Y153347D01*
X691574Y153282D01*
X691593Y153208D01*
X691611Y153125D01*
X691639Y153024D01*
X691667Y152922D01*
X691685Y152802D01*
X691731Y152543D01*
X691759Y152256D01*
X691768Y151942D01*
Y151932D01*
Y151914D01*
Y151868D01*
Y151822D01*
X691759Y151757D01*
Y151683D01*
X691750Y151507D01*
X691722Y151304D01*
X691694Y151091D01*
X691648Y150869D01*
X691593Y150647D01*
Y150638D01*
X691583Y150620D01*
X691574Y150592D01*
X691565Y150555D01*
X691528Y150453D01*
X691472Y150324D01*
X691417Y150176D01*
X691343Y150028D01*
X691251Y149871D01*
X691158Y149723D01*
X691149Y149704D01*
X691112Y149658D01*
X691057Y149593D01*
X690983Y149510D01*
X690899Y149418D01*
X690798Y149325D01*
X690696Y149224D01*
X690576Y149140D01*
X690557Y149131D01*
X690520Y149103D01*
X690455Y149066D01*
X690363Y149020D01*
X690252Y148965D01*
X690123Y148918D01*
X689975Y148863D01*
X689808Y148817D01*
X689790D01*
X689762Y148807D01*
X689734Y148798D01*
X689642Y148789D01*
X689512Y148771D01*
X689364Y148752D01*
X689189Y148734D01*
X688995Y148724D01*
X688782Y148715D01*
X686480D01*
Y155113D01*
X688939D01*
X689106Y155104D01*
D02*
G37*
G36*
X675303Y363639D02*
X671605D01*
X671595D01*
X671568D01*
X671521D01*
X671466D01*
X671401Y363630D01*
X671318D01*
X671142Y363621D01*
X670939Y363602D01*
X670735Y363575D01*
X670541Y363538D01*
X670458Y363519D01*
X670375Y363492D01*
X670357Y363482D01*
X670310Y363464D01*
X670246Y363418D01*
X670153Y363362D01*
X670061Y363297D01*
X669959Y363205D01*
X669857Y363094D01*
X669774Y362965D01*
X669765Y362946D01*
X669737Y362900D01*
X669709Y362817D01*
X669672Y362706D01*
X669626Y362576D01*
X669598Y362410D01*
X669571Y362234D01*
X669561Y362040D01*
Y361948D01*
X669571Y361892D01*
Y361809D01*
X669580Y361726D01*
X669617Y361522D01*
X669663Y361300D01*
X669737Y361088D01*
X669839Y360884D01*
X669903Y360792D01*
X669977Y360709D01*
X669987Y360699D01*
X669996Y360690D01*
X670024Y360672D01*
X670061Y360644D01*
X670116Y360616D01*
X670172Y360579D01*
X670255Y360542D01*
X670338Y360505D01*
X670440Y360468D01*
X670560Y360440D01*
X670699Y360404D01*
X670846Y360376D01*
X671013Y360348D01*
X671189Y360330D01*
X671392Y360311D01*
X671605D01*
X675303D01*
Y359460D01*
X671605D01*
X671595D01*
X671558D01*
X671512D01*
X671448D01*
X671364Y359470D01*
X671272D01*
X671161Y359479D01*
X671050Y359488D01*
X670800Y359516D01*
X670541Y359553D01*
X670292Y359608D01*
X670172Y359645D01*
X670061Y359682D01*
X670051D01*
X670033Y359692D01*
X670005Y359710D01*
X669968Y359729D01*
X669866Y359784D01*
X669737Y359867D01*
X669589Y359978D01*
X669441Y360108D01*
X669284Y360274D01*
X669145Y360477D01*
Y360487D01*
X669127Y360505D01*
X669118Y360533D01*
X669090Y360579D01*
X669062Y360635D01*
X669034Y360709D01*
X669007Y360783D01*
X668970Y360875D01*
X668933Y360977D01*
X668905Y361088D01*
X668877Y361208D01*
X668849Y361347D01*
X668831Y361485D01*
X668812Y361633D01*
X668794Y361966D01*
Y362049D01*
X668803Y362114D01*
Y362188D01*
X668812Y362280D01*
X668822Y362382D01*
X668831Y362484D01*
X668868Y362715D01*
X668923Y362965D01*
X668997Y363205D01*
X669099Y363436D01*
Y363445D01*
X669118Y363464D01*
X669136Y363492D01*
X669155Y363529D01*
X669229Y363630D01*
X669330Y363750D01*
X669460Y363889D01*
X669608Y364019D01*
X669792Y364148D01*
X669996Y364250D01*
X670005D01*
X670024Y364259D01*
X670061Y364268D01*
X670107Y364287D01*
X670162Y364305D01*
X670236Y364324D01*
X670320Y364351D01*
X670421Y364370D01*
X670532Y364388D01*
X670652Y364416D01*
X670782Y364435D01*
X670920Y364453D01*
X671078Y364472D01*
X671244Y364481D01*
X671420Y364490D01*
X671605D01*
X675303D01*
Y363639D01*
D02*
G37*
G36*
X670699Y357574D02*
X670689D01*
X670671Y357565D01*
X670634Y357556D01*
X670588Y357547D01*
X670532Y357537D01*
X670467Y357519D01*
X670329Y357473D01*
X670162Y357408D01*
X670005Y357325D01*
X669857Y357232D01*
X669728Y357121D01*
X669718Y357103D01*
X669681Y357066D01*
X669635Y356992D01*
X669589Y356899D01*
X669534Y356788D01*
X669487Y356650D01*
X669450Y356493D01*
X669441Y356326D01*
Y356271D01*
X669450Y356234D01*
X669460Y356132D01*
X669487Y356003D01*
X669534Y355855D01*
X669598Y355698D01*
X669691Y355540D01*
X669820Y355392D01*
X669839Y355374D01*
X669894Y355328D01*
X669977Y355272D01*
X670088Y355198D01*
X670227Y355124D01*
X670384Y355069D01*
X670569Y355023D01*
X670772Y355004D01*
X670782D01*
X670800D01*
X670828D01*
X670865Y355013D01*
X670967Y355023D01*
X671087Y355050D01*
X671235Y355087D01*
X671383Y355152D01*
X671531Y355244D01*
X671669Y355365D01*
X671688Y355383D01*
X671725Y355429D01*
X671780Y355503D01*
X671845Y355605D01*
X671910Y355734D01*
X671965Y355892D01*
X672002Y356067D01*
X672021Y356261D01*
Y356345D01*
X672011Y356409D01*
X672002Y356493D01*
X671984Y356585D01*
X671965Y356696D01*
X671937Y356816D01*
X672631Y356724D01*
Y356678D01*
X672622Y356641D01*
Y356520D01*
X672640Y356419D01*
X672659Y356298D01*
X672686Y356160D01*
X672733Y356003D01*
X672797Y355855D01*
X672880Y355698D01*
Y355688D01*
X672890Y355679D01*
X672927Y355633D01*
X672991Y355568D01*
X673075Y355494D01*
X673195Y355420D01*
X673334Y355355D01*
X673491Y355309D01*
X673583Y355291D01*
X673685D01*
X673694D01*
X673703D01*
X673759D01*
X673833Y355309D01*
X673934Y355328D01*
X674045Y355365D01*
X674166Y355411D01*
X674286Y355485D01*
X674397Y355587D01*
X674406Y355596D01*
X674443Y355642D01*
X674489Y355707D01*
X674545Y355790D01*
X674591Y355901D01*
X674637Y356030D01*
X674674Y356178D01*
X674683Y356345D01*
Y356419D01*
X674665Y356502D01*
X674646Y356613D01*
X674609Y356733D01*
X674563Y356853D01*
X674489Y356983D01*
X674397Y357103D01*
X674388Y357112D01*
X674341Y357149D01*
X674277Y357205D01*
X674184Y357269D01*
X674064Y357334D01*
X673916Y357399D01*
X673740Y357454D01*
X673537Y357491D01*
X673676Y358277D01*
X673685D01*
X673713Y358268D01*
X673750Y358259D01*
X673805Y358249D01*
X673870Y358231D01*
X673944Y358203D01*
X674119Y358148D01*
X674323Y358055D01*
X674526Y357944D01*
X674720Y357805D01*
X674896Y357630D01*
X674905Y357621D01*
X674915Y357602D01*
X674933Y357574D01*
X674961Y357537D01*
X674998Y357491D01*
X675035Y357426D01*
X675072Y357362D01*
X675118Y357279D01*
X675192Y357094D01*
X675266Y356881D01*
X675312Y356631D01*
X675331Y356502D01*
Y356271D01*
X675321Y356169D01*
X675303Y356049D01*
X675275Y355901D01*
X675229Y355734D01*
X675173Y355568D01*
X675099Y355402D01*
Y355392D01*
X675090Y355383D01*
X675062Y355328D01*
X675007Y355244D01*
X674942Y355152D01*
X674850Y355041D01*
X674748Y354930D01*
X674628Y354819D01*
X674489Y354727D01*
X674471Y354717D01*
X674425Y354690D01*
X674341Y354653D01*
X674240Y354607D01*
X674119Y354560D01*
X673981Y354523D01*
X673824Y354496D01*
X673666Y354486D01*
X673648D01*
X673592D01*
X673519Y354496D01*
X673417Y354514D01*
X673297Y354542D01*
X673167Y354588D01*
X673038Y354644D01*
X672908Y354717D01*
X672890Y354727D01*
X672853Y354754D01*
X672788Y354810D01*
X672714Y354884D01*
X672631Y354976D01*
X672538Y355087D01*
X672455Y355217D01*
X672372Y355374D01*
Y355365D01*
X672363Y355346D01*
X672354Y355318D01*
X672344Y355281D01*
X672307Y355180D01*
X672252Y355050D01*
X672178Y354902D01*
X672085Y354754D01*
X671965Y354616D01*
X671826Y354486D01*
X671808Y354477D01*
X671753Y354440D01*
X671660Y354385D01*
X671540Y354329D01*
X671392Y354274D01*
X671216Y354218D01*
X671013Y354181D01*
X670791Y354172D01*
X670782D01*
X670754D01*
X670708D01*
X670652Y354181D01*
X670578Y354190D01*
X670495Y354209D01*
X670403Y354227D01*
X670301Y354246D01*
X670079Y354320D01*
X669959Y354375D01*
X669848Y354431D01*
X669728Y354505D01*
X669608Y354588D01*
X669487Y354680D01*
X669376Y354791D01*
X669367Y354801D01*
X669349Y354819D01*
X669321Y354856D01*
X669284Y354902D01*
X669238Y354958D01*
X669192Y355032D01*
X669136Y355115D01*
X669090Y355217D01*
X669034Y355318D01*
X668979Y355439D01*
X668933Y355559D01*
X668886Y355698D01*
X668849Y355845D01*
X668822Y356003D01*
X668803Y356160D01*
X668794Y356335D01*
Y356419D01*
X668803Y356474D01*
X668812Y356548D01*
X668822Y356631D01*
X668840Y356724D01*
X668859Y356825D01*
X668914Y357047D01*
X669007Y357279D01*
X669062Y357399D01*
X669127Y357510D01*
X669210Y357621D01*
X669293Y357732D01*
X669303Y357741D01*
X669321Y357759D01*
X669349Y357787D01*
X669386Y357815D01*
X669432Y357861D01*
X669497Y357907D01*
X669561Y357963D01*
X669645Y358018D01*
X669737Y358074D01*
X669829Y358129D01*
X670051Y358231D01*
X670310Y358314D01*
X670449Y358342D01*
X670597Y358360D01*
X670699Y357574D01*
D02*
G37*
G36*
X211819Y562954D02*
X211883D01*
X211957Y562945D01*
X212124Y562917D01*
X212309Y562871D01*
X212512Y562806D01*
X212697Y562714D01*
X212863Y562593D01*
X212882Y562575D01*
X212928Y562529D01*
X212993Y562445D01*
X213067Y562334D01*
X213141Y562196D01*
X213205Y562039D01*
X213251Y561844D01*
X213261Y561752D01*
X213270Y561641D01*
Y561623D01*
Y561586D01*
X213261Y561521D01*
X213251Y561438D01*
X213233Y561336D01*
X213205Y561234D01*
X213168Y561123D01*
X213122Y561022D01*
X213113Y561012D01*
X213094Y560975D01*
X213057Y560920D01*
X213011Y560855D01*
X212956Y560781D01*
X212882Y560707D01*
X212808Y560633D01*
X212715Y560569D01*
X212706Y560559D01*
X212669Y560541D01*
X212623Y560504D01*
X212549Y560467D01*
X212466Y560430D01*
X212364Y560384D01*
X212262Y560347D01*
X212142Y560310D01*
X212133D01*
X212096Y560300D01*
X212040Y560282D01*
X211966Y560273D01*
X211874Y560254D01*
X211754Y560236D01*
X211615Y560208D01*
X211449Y560190D01*
X211439D01*
X211402Y560180D01*
X211356D01*
X211292Y560171D01*
X211217Y560162D01*
X211125Y560143D01*
X211023Y560134D01*
X210912Y560116D01*
X210690Y560069D01*
X210450Y560023D01*
X210238Y559968D01*
X210136Y559940D01*
X210043Y559912D01*
Y559903D01*
Y559884D01*
X210034Y559829D01*
Y559764D01*
Y559727D01*
Y559709D01*
Y559699D01*
Y559690D01*
Y559635D01*
X210043Y559542D01*
X210062Y559441D01*
X210089Y559330D01*
X210136Y559219D01*
X210191Y559117D01*
X210265Y559034D01*
X210275Y559025D01*
X210321Y558988D01*
X210395Y558951D01*
X210487Y558895D01*
X210616Y558849D01*
X210765Y558803D01*
X210949Y558775D01*
X211162Y558766D01*
X211255D01*
X211347Y558775D01*
X211476Y558793D01*
X211606Y558812D01*
X211744Y558849D01*
X211874Y558895D01*
X211985Y558960D01*
X211994Y558969D01*
X212031Y558997D01*
X212077Y559043D01*
X212133Y559117D01*
X212188Y559209D01*
X212253Y559330D01*
X212309Y559478D01*
X212364Y559644D01*
X213131Y559542D01*
Y559533D01*
X213122Y559524D01*
Y559496D01*
X213113Y559459D01*
X213085Y559376D01*
X213048Y559256D01*
X213002Y559136D01*
X212946Y559006D01*
X212873Y558877D01*
X212789Y558756D01*
X212780Y558747D01*
X212743Y558710D01*
X212688Y558655D01*
X212614Y558581D01*
X212512Y558507D01*
X212392Y558433D01*
X212253Y558350D01*
X212096Y558285D01*
X212087D01*
X212077Y558276D01*
X212050Y558266D01*
X212013Y558257D01*
X211920Y558229D01*
X211791Y558202D01*
X211643Y558174D01*
X211458Y558146D01*
X211264Y558128D01*
X211042Y558118D01*
X210940D01*
X210838Y558128D01*
X210700Y558137D01*
X210543Y558155D01*
X210385Y558183D01*
X210228Y558220D01*
X210080Y558266D01*
X210062Y558276D01*
X210016Y558294D01*
X209951Y558322D01*
X209868Y558359D01*
X209775Y558414D01*
X209683Y558470D01*
X209599Y558544D01*
X209526Y558618D01*
X209516Y558627D01*
X209498Y558655D01*
X209470Y558701D01*
X209433Y558756D01*
X209387Y558840D01*
X209350Y558923D01*
X209313Y559025D01*
X209285Y559145D01*
Y559154D01*
X209276Y559182D01*
X209267Y559237D01*
X209257Y559311D01*
Y559413D01*
X209248Y559533D01*
X209239Y559690D01*
Y559866D01*
Y560920D01*
Y560929D01*
Y560966D01*
Y561022D01*
Y561096D01*
Y561179D01*
Y561280D01*
X209230Y561502D01*
Y561734D01*
X209221Y561965D01*
X209211Y562066D01*
Y562159D01*
X209202Y562242D01*
X209193Y562307D01*
Y562316D01*
X209184Y562353D01*
X209174Y562408D01*
X209146Y562482D01*
X209128Y562566D01*
X209091Y562658D01*
X209045Y562760D01*
X208999Y562861D01*
X209821D01*
X209831Y562852D01*
X209840Y562815D01*
X209858Y562769D01*
X209886Y562695D01*
X209914Y562612D01*
X209932Y562510D01*
X209951Y562399D01*
X209969Y562279D01*
X209979D01*
X209988Y562298D01*
X210043Y562344D01*
X210126Y562408D01*
X210238Y562492D01*
X210376Y562575D01*
X210515Y562667D01*
X210663Y562751D01*
X210820Y562815D01*
X210838Y562825D01*
X210894Y562834D01*
X210977Y562861D01*
X211079Y562889D01*
X211208Y562917D01*
X211356Y562935D01*
X211523Y562954D01*
X211689Y562963D01*
X211763D01*
X211819Y562954D01*
D02*
G37*
G36*
X203229Y562963D02*
X203312D01*
X203405Y562954D01*
X203516Y562945D01*
X203747Y562908D01*
X203988Y562871D01*
X204228Y562806D01*
X204459Y562723D01*
X204468D01*
X204487Y562714D01*
X204514Y562695D01*
X204551Y562677D01*
X204662Y562621D01*
X204792Y562538D01*
X204940Y562427D01*
X205097Y562298D01*
X205245Y562140D01*
X205383Y561965D01*
Y561955D01*
X205402Y561937D01*
X205411Y561909D01*
X205439Y561872D01*
X205457Y561826D01*
X205485Y561771D01*
X205550Y561632D01*
X205615Y561456D01*
X205670Y561262D01*
X205707Y561040D01*
X205726Y560809D01*
X204930Y560735D01*
Y560744D01*
Y560753D01*
X204921Y560781D01*
Y560818D01*
X204903Y560901D01*
X204875Y561022D01*
X204838Y561142D01*
X204801Y561280D01*
X204736Y561410D01*
X204672Y561530D01*
X204662Y561539D01*
X204635Y561576D01*
X204588Y561641D01*
X204514Y561706D01*
X204422Y561789D01*
X204320Y561872D01*
X204182Y561955D01*
X204034Y562029D01*
X204024D01*
X204015Y562039D01*
X203988Y562048D01*
X203960Y562057D01*
X203867Y562085D01*
X203747Y562122D01*
X203599Y562159D01*
X203433Y562187D01*
X203248Y562205D01*
X203044Y562214D01*
X202961D01*
X202869Y562205D01*
X202758Y562196D01*
X202628Y562177D01*
X202480Y562159D01*
X202332Y562122D01*
X202194Y562076D01*
X202175Y562066D01*
X202129Y562048D01*
X202064Y562011D01*
X201981Y561974D01*
X201898Y561909D01*
X201805Y561844D01*
X201713Y561771D01*
X201639Y561678D01*
X201630Y561669D01*
X201611Y561632D01*
X201584Y561586D01*
X201547Y561512D01*
X201510Y561438D01*
X201482Y561345D01*
X201463Y561244D01*
X201454Y561133D01*
Y561123D01*
Y561077D01*
X201463Y561022D01*
X201473Y560948D01*
X201500Y560874D01*
X201528Y560781D01*
X201574Y560689D01*
X201639Y560606D01*
X201648Y560596D01*
X201676Y560569D01*
X201713Y560532D01*
X201778Y560476D01*
X201852Y560421D01*
X201953Y560356D01*
X202074Y560291D01*
X202212Y560236D01*
X202222Y560226D01*
X202268Y560217D01*
X202342Y560190D01*
X202388Y560180D01*
X202453Y560162D01*
X202517Y560134D01*
X202601Y560116D01*
X202693Y560088D01*
X202804Y560060D01*
X202915Y560032D01*
X203044Y559995D01*
X203192Y559958D01*
X203349Y559921D01*
X203359D01*
X203386Y559912D01*
X203433Y559903D01*
X203488Y559884D01*
X203562Y559866D01*
X203645Y559847D01*
X203830Y559792D01*
X204034Y559727D01*
X204246Y559663D01*
X204431Y559598D01*
X204514Y559561D01*
X204588Y559524D01*
X204598D01*
X204607Y559515D01*
X204662Y559478D01*
X204746Y559431D01*
X204838Y559357D01*
X204949Y559274D01*
X205060Y559172D01*
X205171Y559052D01*
X205263Y558923D01*
X205273Y558904D01*
X205300Y558858D01*
X205337Y558784D01*
X205374Y558692D01*
X205411Y558572D01*
X205448Y558433D01*
X205476Y558285D01*
X205485Y558128D01*
Y558118D01*
Y558109D01*
Y558082D01*
Y558045D01*
X205467Y557952D01*
X205448Y557832D01*
X205420Y557693D01*
X205374Y557536D01*
X205310Y557379D01*
X205217Y557222D01*
Y557212D01*
X205208Y557203D01*
X205162Y557148D01*
X205097Y557074D01*
X205014Y556981D01*
X204903Y556880D01*
X204764Y556769D01*
X204598Y556667D01*
X204413Y556574D01*
X204403D01*
X204385Y556565D01*
X204357Y556556D01*
X204320Y556537D01*
X204274Y556519D01*
X204209Y556501D01*
X204071Y556464D01*
X203895Y556427D01*
X203692Y556390D01*
X203479Y556362D01*
X203239Y556353D01*
X203118D01*
X203054Y556362D01*
X202989D01*
X202813Y556380D01*
X202619Y556408D01*
X202416Y556454D01*
X202194Y556510D01*
X201990Y556584D01*
X201981D01*
X201963Y556593D01*
X201935Y556611D01*
X201898Y556630D01*
X201805Y556676D01*
X201685Y556759D01*
X201547Y556852D01*
X201408Y556972D01*
X201278Y557111D01*
X201158Y557268D01*
Y557277D01*
X201149Y557286D01*
X201131Y557314D01*
X201112Y557342D01*
X201066Y557434D01*
X201010Y557555D01*
X200946Y557702D01*
X200899Y557878D01*
X200853Y558063D01*
X200835Y558266D01*
X201648Y558331D01*
Y558322D01*
Y558303D01*
X201658Y558276D01*
X201667Y558229D01*
X201695Y558128D01*
X201731Y557989D01*
X201787Y557841D01*
X201870Y557693D01*
X201972Y557555D01*
X202101Y557425D01*
X202120Y557416D01*
X202166Y557379D01*
X202258Y557323D01*
X202379Y557268D01*
X202536Y557212D01*
X202721Y557157D01*
X202952Y557120D01*
X203211Y557111D01*
X203340D01*
X203396Y557120D01*
X203470Y557129D01*
X203636Y557148D01*
X203821Y557185D01*
X204006Y557231D01*
X204182Y557305D01*
X204256Y557351D01*
X204329Y557397D01*
X204348Y557407D01*
X204385Y557444D01*
X204440Y557508D01*
X204496Y557582D01*
X204561Y557684D01*
X204616Y557795D01*
X204653Y557924D01*
X204672Y558072D01*
Y558091D01*
Y558128D01*
X204662Y558192D01*
X204644Y558266D01*
X204616Y558359D01*
X204570Y558451D01*
X204514Y558544D01*
X204431Y558636D01*
X204422Y558645D01*
X204376Y558673D01*
X204339Y558701D01*
X204302Y558719D01*
X204246Y558747D01*
X204182Y558784D01*
X204098Y558812D01*
X204006Y558849D01*
X203904Y558886D01*
X203784Y558932D01*
X203655Y558969D01*
X203507Y559015D01*
X203340Y559052D01*
X203155Y559099D01*
X203146D01*
X203109Y559108D01*
X203054Y559117D01*
X202989Y559136D01*
X202906Y559154D01*
X202804Y559182D01*
X202702Y559209D01*
X202591Y559237D01*
X202351Y559302D01*
X202120Y559367D01*
X202009Y559404D01*
X201907Y559441D01*
X201815Y559468D01*
X201741Y559505D01*
X201731D01*
X201713Y559515D01*
X201685Y559533D01*
X201648Y559552D01*
X201547Y559607D01*
X201426Y559681D01*
X201288Y559783D01*
X201149Y559894D01*
X201020Y560023D01*
X200909Y560162D01*
X200899Y560180D01*
X200862Y560226D01*
X200826Y560310D01*
X200770Y560421D01*
X200724Y560550D01*
X200678Y560707D01*
X200650Y560883D01*
X200641Y561068D01*
Y561077D01*
Y561086D01*
Y561114D01*
Y561151D01*
X200659Y561253D01*
X200678Y561382D01*
X200714Y561530D01*
X200761Y561687D01*
X200835Y561854D01*
X200936Y562029D01*
Y562039D01*
X200946Y562048D01*
X200992Y562103D01*
X201057Y562187D01*
X201149Y562279D01*
X201269Y562390D01*
X201417Y562510D01*
X201584Y562621D01*
X201778Y562723D01*
X201787D01*
X201805Y562732D01*
X201833Y562741D01*
X201870Y562760D01*
X201926Y562778D01*
X201990Y562806D01*
X202138Y562843D01*
X202314Y562889D01*
X202527Y562935D01*
X202758Y562963D01*
X203007Y562972D01*
X203155D01*
X203229Y562963D01*
D02*
G37*
G36*
X192615Y556464D02*
X191829D01*
Y560116D01*
X189971Y558220D01*
X188945D01*
X190729Y559949D01*
X188769Y562861D01*
X189740D01*
X191284Y560495D01*
X191829Y561022D01*
Y562861D01*
X192615D01*
Y556464D01*
D02*
G37*
G36*
X224300D02*
X223449D01*
Y559089D01*
X220140D01*
Y556464D01*
X219289D01*
Y562861D01*
X220140D01*
Y559847D01*
X223449D01*
Y562861D01*
X224300D01*
Y556464D01*
D02*
G37*
G36*
X197589Y558220D02*
X196887D01*
Y558886D01*
X196878Y558877D01*
X196859Y558849D01*
X196831Y558812D01*
X196794Y558766D01*
X196739Y558710D01*
X196674Y558645D01*
X196600Y558572D01*
X196508Y558498D01*
X196415Y558433D01*
X196304Y558359D01*
X196184Y558294D01*
X196055Y558239D01*
X195907Y558192D01*
X195759Y558155D01*
X195592Y558128D01*
X195417Y558118D01*
X195343D01*
X195269Y558128D01*
X195167Y558137D01*
X195047Y558155D01*
X194918Y558183D01*
X194779Y558220D01*
X194649Y558276D01*
X194631Y558285D01*
X194594Y558303D01*
X194529Y558331D01*
X194455Y558377D01*
X194363Y558433D01*
X194280Y558507D01*
X194196Y558581D01*
X194122Y558673D01*
X194113Y558682D01*
X194095Y558719D01*
X194067Y558766D01*
X194021Y558830D01*
X193984Y558923D01*
X193947Y559015D01*
X193901Y559126D01*
X193873Y559246D01*
Y559256D01*
X193864Y559293D01*
X193854Y559348D01*
X193845Y559422D01*
Y559533D01*
X193836Y559663D01*
X193827Y559820D01*
Y560014D01*
Y562861D01*
X194612D01*
Y560051D01*
Y560042D01*
Y560032D01*
Y559968D01*
Y559884D01*
X194622Y559783D01*
X194631Y559663D01*
X194649Y559542D01*
X194677Y559431D01*
X194705Y559330D01*
Y559320D01*
X194723Y559293D01*
X194751Y559246D01*
X194779Y559191D01*
X194825Y559136D01*
X194881Y559071D01*
X194954Y559006D01*
X195038Y558951D01*
X195047Y558941D01*
X195075Y558923D01*
X195130Y558904D01*
X195195Y558877D01*
X195269Y558849D01*
X195361Y558821D01*
X195472Y558812D01*
X195583Y558803D01*
X195629D01*
X195666Y558812D01*
X195759Y558821D01*
X195879Y558840D01*
X196008Y558886D01*
X196156Y558941D01*
X196304Y559015D01*
X196443Y559126D01*
X196462Y559145D01*
X196499Y559191D01*
X196526Y559228D01*
X196554Y559274D01*
X196591Y559330D01*
X196619Y559394D01*
X196656Y559468D01*
X196693Y559561D01*
X196720Y559663D01*
X196748Y559773D01*
X196767Y559894D01*
X196785Y560023D01*
X196804Y560180D01*
Y560337D01*
Y562861D01*
X197589D01*
Y558220D01*
D02*
G37*
G36*
X199577D02*
X198791D01*
Y562861D01*
X199577D01*
Y558220D01*
D02*
G37*
G36*
X216201Y562954D02*
X216284Y562945D01*
X216386Y562926D01*
X216497Y562908D01*
X216617Y562889D01*
X216876Y562815D01*
X217015Y562760D01*
X217144Y562704D01*
X217283Y562630D01*
X217412Y562547D01*
X217532Y562455D01*
X217652Y562344D01*
X217662Y562334D01*
X217680Y562316D01*
X217708Y562279D01*
X217745Y562224D01*
X217791Y562159D01*
X217837Y562085D01*
X217893Y561992D01*
X217948Y561891D01*
X218004Y561771D01*
X218059Y561641D01*
X218106Y561493D01*
X218152Y561336D01*
X218189Y561170D01*
X218216Y560985D01*
X218235Y560790D01*
X218244Y560587D01*
Y560578D01*
Y560532D01*
Y560476D01*
X218235Y560393D01*
X218226Y560291D01*
X218216Y560180D01*
X218198Y560051D01*
X218170Y559921D01*
X218096Y559626D01*
X218050Y559478D01*
X217994Y559320D01*
X217921Y559172D01*
X217837Y559034D01*
X217745Y558895D01*
X217643Y558766D01*
X217634Y558756D01*
X217616Y558738D01*
X217579Y558710D01*
X217532Y558664D01*
X217477Y558618D01*
X217403Y558562D01*
X217320Y558498D01*
X217218Y558442D01*
X217116Y558377D01*
X216996Y558322D01*
X216867Y558266D01*
X216728Y558220D01*
X216580Y558174D01*
X216423Y558146D01*
X216256Y558128D01*
X216081Y558118D01*
X215988D01*
X215924Y558128D01*
X215850Y558137D01*
X215757Y558155D01*
X215655Y558174D01*
X215535Y558202D01*
X215424Y558229D01*
X215295Y558276D01*
X215175Y558322D01*
X215045Y558387D01*
X214916Y558461D01*
X214786Y558544D01*
X214666Y558645D01*
X214555Y558756D01*
X214546Y558766D01*
X214527Y558784D01*
X214500Y558821D01*
X214463Y558877D01*
X214417Y558941D01*
X214370Y559015D01*
X214315Y559108D01*
X214259Y559219D01*
X214204Y559339D01*
X214148Y559468D01*
X214102Y559616D01*
X214056Y559773D01*
X214019Y559949D01*
X213991Y560134D01*
X213973Y560328D01*
X213964Y560541D01*
Y560550D01*
Y560587D01*
Y560652D01*
X213973Y560744D01*
X217440D01*
Y560753D01*
Y560781D01*
X217431Y560818D01*
Y560874D01*
X217421Y560938D01*
X217403Y561012D01*
X217375Y561179D01*
X217320Y561364D01*
X217246Y561567D01*
X217144Y561752D01*
X217015Y561918D01*
X217005D01*
X216996Y561937D01*
X216940Y561983D01*
X216857Y562048D01*
X216746Y562113D01*
X216598Y562187D01*
X216432Y562251D01*
X216247Y562298D01*
X216145Y562307D01*
X216035Y562316D01*
X215961D01*
X215877Y562307D01*
X215776Y562288D01*
X215665Y562261D01*
X215535Y562224D01*
X215415Y562168D01*
X215295Y562094D01*
X215286Y562085D01*
X215239Y562048D01*
X215184Y561992D01*
X215119Y561918D01*
X215045Y561817D01*
X214962Y561687D01*
X214879Y561539D01*
X214805Y561364D01*
X213991Y561465D01*
Y561475D01*
X214000Y561493D01*
X214010Y561530D01*
X214028Y561586D01*
X214056Y561641D01*
X214084Y561715D01*
X214158Y561872D01*
X214250Y562048D01*
X214380Y562233D01*
X214527Y562408D01*
X214712Y562575D01*
X214722D01*
X214740Y562593D01*
X214768Y562612D01*
X214805Y562640D01*
X214860Y562667D01*
X214916Y562695D01*
X214990Y562732D01*
X215073Y562769D01*
X215165Y562806D01*
X215258Y562843D01*
X215489Y562898D01*
X215748Y562945D01*
X216035Y562963D01*
X216136D01*
X216201Y562954D01*
D02*
G37*
G36*
X206964Y562917D02*
X207057Y562908D01*
X207168Y562898D01*
X207279Y562871D01*
X207381Y562843D01*
X207482Y562797D01*
X207491Y562788D01*
X207519Y562769D01*
X207556Y562741D01*
X207612Y562695D01*
X207658Y562649D01*
X207713Y562584D01*
X207769Y562519D01*
X207806Y562436D01*
Y562427D01*
X207824Y562390D01*
X207834Y562325D01*
X207852Y562233D01*
X207871Y562113D01*
X207880Y562039D01*
Y561955D01*
X207889Y561854D01*
X207898Y561752D01*
Y561641D01*
Y561512D01*
Y558830D01*
X208481D01*
Y558220D01*
X207898D01*
Y557074D01*
X207113Y556602D01*
Y558220D01*
X206317D01*
Y558830D01*
X207113D01*
Y561558D01*
Y561576D01*
Y561613D01*
Y561669D01*
X207103Y561734D01*
X207094Y561881D01*
X207085Y561946D01*
X207076Y561992D01*
X207066Y562011D01*
X207038Y562048D01*
X207001Y562094D01*
X206937Y562140D01*
X206918Y562150D01*
X206872Y562168D01*
X206789Y562187D01*
X206669Y562196D01*
X206576D01*
X206530Y562187D01*
X206465D01*
X206391Y562177D01*
X206317Y562168D01*
X206216Y562861D01*
X206234D01*
X206271Y562871D01*
X206336Y562880D01*
X206419Y562889D01*
X206511Y562908D01*
X206613Y562917D01*
X206817Y562926D01*
X206891D01*
X206964Y562917D01*
D02*
G37*
G36*
X199577Y556464D02*
X198791D01*
Y557360D01*
X199577D01*
Y556464D01*
D02*
G37*
G36*
X185986Y562852D02*
Y562815D01*
Y562760D01*
X185977Y562686D01*
X185968Y562603D01*
X185949Y562510D01*
X185931Y562418D01*
X185894Y562316D01*
Y562307D01*
X185885Y562298D01*
X185866Y562242D01*
X185829Y562159D01*
X185774Y562048D01*
X185700Y561918D01*
X185607Y561771D01*
X185506Y561623D01*
X185376Y561465D01*
Y561456D01*
X185358Y561447D01*
X185311Y561391D01*
X185228Y561308D01*
X185108Y561188D01*
X184969Y561049D01*
X184794Y560883D01*
X184581Y560698D01*
X184350Y560504D01*
X184341Y560495D01*
X184304Y560467D01*
X184248Y560421D01*
X184183Y560365D01*
X184100Y560291D01*
X183999Y560208D01*
X183897Y560116D01*
X183777Y560014D01*
X183545Y559792D01*
X183314Y559570D01*
X183203Y559459D01*
X183102Y559348D01*
X183009Y559246D01*
X182935Y559145D01*
Y559136D01*
X182917Y559126D01*
X182898Y559099D01*
X182880Y559062D01*
X182815Y558960D01*
X182741Y558840D01*
X182676Y558692D01*
X182612Y558535D01*
X182575Y558359D01*
X182556Y558192D01*
Y558183D01*
Y558174D01*
X182565Y558118D01*
X182575Y558026D01*
X182602Y557924D01*
X182639Y557795D01*
X182704Y557665D01*
X182787Y557536D01*
X182898Y557407D01*
X182917Y557388D01*
X182963Y557351D01*
X183028Y557305D01*
X183129Y557240D01*
X183259Y557185D01*
X183407Y557129D01*
X183582Y557092D01*
X183777Y557083D01*
X183832D01*
X183869Y557092D01*
X183980Y557101D01*
X184109Y557129D01*
X184248Y557166D01*
X184405Y557231D01*
X184553Y557314D01*
X184692Y557425D01*
X184710Y557444D01*
X184747Y557490D01*
X184803Y557564D01*
X184858Y557675D01*
X184923Y557804D01*
X184979Y557971D01*
X185016Y558155D01*
X185034Y558368D01*
X185838Y558285D01*
Y558276D01*
X185829Y558248D01*
Y558202D01*
X185820Y558137D01*
X185801Y558063D01*
X185783Y557980D01*
X185755Y557878D01*
X185727Y557776D01*
X185653Y557555D01*
X185543Y557333D01*
X185478Y557222D01*
X185394Y557111D01*
X185311Y557009D01*
X185219Y556917D01*
X185210Y556907D01*
X185191Y556898D01*
X185163Y556870D01*
X185117Y556842D01*
X185062Y556806D01*
X184997Y556769D01*
X184923Y556722D01*
X184831Y556676D01*
X184729Y556630D01*
X184618Y556584D01*
X184498Y556547D01*
X184368Y556510D01*
X184230Y556482D01*
X184082Y556454D01*
X183925Y556445D01*
X183758Y556436D01*
X183666D01*
X183601Y556445D01*
X183527Y556454D01*
X183435Y556464D01*
X183333Y556482D01*
X183231Y556501D01*
X182991Y556565D01*
X182750Y556658D01*
X182630Y556713D01*
X182510Y556778D01*
X182399Y556861D01*
X182297Y556954D01*
X182288Y556963D01*
X182269Y556972D01*
X182251Y557009D01*
X182214Y557046D01*
X182168Y557092D01*
X182122Y557157D01*
X182075Y557222D01*
X182020Y557305D01*
X181927Y557481D01*
X181835Y557702D01*
X181798Y557813D01*
X181779Y557943D01*
X181761Y558072D01*
X181752Y558211D01*
Y558229D01*
Y558276D01*
X181761Y558350D01*
X181770Y558451D01*
X181789Y558562D01*
X181826Y558692D01*
X181863Y558830D01*
X181918Y558969D01*
X181927Y558988D01*
X181946Y559034D01*
X181983Y559108D01*
X182038Y559209D01*
X182112Y559320D01*
X182205Y559459D01*
X182316Y559598D01*
X182445Y559755D01*
X182464Y559773D01*
X182510Y559829D01*
X182556Y559875D01*
X182602Y559921D01*
X182658Y559977D01*
X182732Y560051D01*
X182806Y560125D01*
X182898Y560208D01*
X182991Y560300D01*
X183102Y560402D01*
X183222Y560504D01*
X183351Y560624D01*
X183499Y560744D01*
X183647Y560874D01*
X183656Y560883D01*
X183675Y560901D01*
X183712Y560929D01*
X183758Y560966D01*
X183814Y561022D01*
X183878Y561077D01*
X184026Y561197D01*
X184183Y561336D01*
X184331Y561475D01*
X184461Y561595D01*
X184516Y561641D01*
X184562Y561687D01*
X184572Y561697D01*
X184599Y561724D01*
X184636Y561761D01*
X184683Y561817D01*
X184729Y561881D01*
X184784Y561946D01*
X184895Y562103D01*
X181742D01*
Y562861D01*
X185986D01*
Y562852D01*
D02*
G37*
G36*
X914232Y454343D02*
X913418D01*
Y459696D01*
X911551Y454343D01*
X910793D01*
X908943Y459789D01*
Y454343D01*
X908130D01*
Y460741D01*
X909397D01*
X910913Y456201D01*
Y456192D01*
X910922Y456174D01*
X910931Y456146D01*
X910950Y456100D01*
X910987Y455989D01*
X911033Y455850D01*
X911079Y455693D01*
X911135Y455536D01*
X911181Y455388D01*
X911218Y455258D01*
X911227Y455277D01*
X911236Y455323D01*
X911264Y455406D01*
X911301Y455517D01*
X911347Y455665D01*
X911412Y455841D01*
X911477Y456044D01*
X911560Y456285D01*
X913095Y460741D01*
X914232D01*
Y454343D01*
D02*
G37*
G36*
X924698D02*
X923912D01*
Y459345D01*
X923903Y459336D01*
X923857Y459299D01*
X923801Y459243D01*
X923709Y459179D01*
X923607Y459095D01*
X923478Y459003D01*
X923330Y458901D01*
X923163Y458799D01*
X923154D01*
X923145Y458790D01*
X923089Y458753D01*
X922997Y458707D01*
X922886Y458652D01*
X922756Y458587D01*
X922618Y458522D01*
X922479Y458457D01*
X922340Y458402D01*
Y459160D01*
X922350D01*
X922368Y459179D01*
X922405Y459188D01*
X922451Y459215D01*
X922507Y459243D01*
X922571Y459280D01*
X922729Y459373D01*
X922914Y459474D01*
X923099Y459604D01*
X923293Y459752D01*
X923487Y459909D01*
X923496Y459918D01*
X923505Y459927D01*
X923533Y459955D01*
X923570Y459983D01*
X923653Y460075D01*
X923764Y460186D01*
X923875Y460316D01*
X923995Y460464D01*
X924097Y460611D01*
X924190Y460769D01*
X924698D01*
Y454343D01*
D02*
G37*
G36*
X918235Y460732D02*
X918420Y460723D01*
X918605Y460704D01*
X918790Y460676D01*
X918947Y460648D01*
X918957D01*
X918975Y460639D01*
X919003D01*
X919040Y460621D01*
X919141Y460593D01*
X919271Y460547D01*
X919419Y460482D01*
X919576Y460399D01*
X919733Y460306D01*
X919881Y460186D01*
X919890Y460177D01*
X919900Y460168D01*
X919927Y460140D01*
X919964Y460112D01*
X920057Y460020D01*
X920168Y459890D01*
X920288Y459733D01*
X920417Y459548D01*
X920537Y459336D01*
X920639Y459095D01*
Y459086D01*
X920648Y459067D01*
X920667Y459030D01*
X920676Y458975D01*
X920704Y458910D01*
X920722Y458836D01*
X920741Y458753D01*
X920769Y458652D01*
X920796Y458550D01*
X920815Y458430D01*
X920861Y458171D01*
X920889Y457884D01*
X920898Y457570D01*
Y457561D01*
Y457542D01*
Y457496D01*
Y457449D01*
X920889Y457385D01*
Y457311D01*
X920880Y457135D01*
X920852Y456932D01*
X920824Y456719D01*
X920778Y456497D01*
X920722Y456275D01*
Y456266D01*
X920713Y456248D01*
X920704Y456220D01*
X920695Y456183D01*
X920658Y456081D01*
X920602Y455952D01*
X920547Y455804D01*
X920473Y455656D01*
X920380Y455499D01*
X920288Y455351D01*
X920279Y455332D01*
X920242Y455286D01*
X920186Y455221D01*
X920112Y455138D01*
X920029Y455046D01*
X919927Y454953D01*
X919826Y454851D01*
X919705Y454768D01*
X919687Y454759D01*
X919650Y454731D01*
X919585Y454694D01*
X919493Y454648D01*
X919382Y454593D01*
X919252Y454546D01*
X919104Y454491D01*
X918938Y454445D01*
X918920D01*
X918892Y454436D01*
X918864Y454426D01*
X918772Y454417D01*
X918642Y454398D01*
X918494Y454380D01*
X918318Y454361D01*
X918124Y454352D01*
X917912Y454343D01*
X915610D01*
Y460741D01*
X918069D01*
X918235Y460732D01*
D02*
G37*
G36*
X770107Y473701D02*
X770199D01*
X770291Y473692D01*
X770412Y473682D01*
X770532Y473664D01*
X770800Y473618D01*
X771096Y473553D01*
X771392Y473460D01*
X771678Y473331D01*
X771687Y473322D01*
X771715Y473312D01*
X771752Y473294D01*
X771798Y473257D01*
X771863Y473220D01*
X771937Y473174D01*
X772104Y473054D01*
X772289Y472896D01*
X772473Y472712D01*
X772658Y472499D01*
X772815Y472249D01*
X772825Y472240D01*
X772834Y472212D01*
X772852Y472175D01*
X772880Y472129D01*
X772908Y472055D01*
X772936Y471981D01*
X772973Y471889D01*
X773010Y471787D01*
X773047Y471676D01*
X773084Y471556D01*
X773139Y471297D01*
X773185Y471001D01*
X773204Y470696D01*
Y470604D01*
X773195Y470539D01*
X773185Y470456D01*
X773176Y470354D01*
X773167Y470252D01*
X773139Y470132D01*
X773084Y469882D01*
X773000Y469605D01*
X772945Y469466D01*
X772880Y469337D01*
X772797Y469207D01*
X772714Y469078D01*
X772705Y469069D01*
X772695Y469050D01*
X772668Y469013D01*
X772621Y468967D01*
X772575Y468921D01*
X772510Y468856D01*
X772436Y468791D01*
X772363Y468717D01*
X772270Y468643D01*
X772159Y468569D01*
X772048Y468486D01*
X771928Y468412D01*
X771789Y468348D01*
X771651Y468274D01*
X771503Y468218D01*
X771336Y468163D01*
X771142Y468995D01*
X771151D01*
X771170Y469004D01*
X771207Y469023D01*
X771253Y469041D01*
X771309Y469059D01*
X771382Y469087D01*
X771530Y469161D01*
X771697Y469254D01*
X771863Y469365D01*
X772020Y469503D01*
X772159Y469651D01*
X772178Y469670D01*
X772215Y469725D01*
X772261Y469818D01*
X772326Y469938D01*
X772381Y470095D01*
X772436Y470271D01*
X772473Y470483D01*
X772483Y470714D01*
Y470788D01*
X772473Y470835D01*
Y470899D01*
X772464Y470973D01*
X772436Y471149D01*
X772399Y471343D01*
X772335Y471547D01*
X772242Y471759D01*
X772122Y471953D01*
Y471963D01*
X772104Y471972D01*
X772057Y472037D01*
X771983Y472120D01*
X771872Y472221D01*
X771734Y472342D01*
X771577Y472453D01*
X771382Y472554D01*
X771170Y472647D01*
X771161D01*
X771142Y472656D01*
X771114Y472665D01*
X771068Y472675D01*
X771013Y472693D01*
X770948Y472712D01*
X770791Y472739D01*
X770606Y472776D01*
X770402Y472813D01*
X770181Y472832D01*
X769940Y472841D01*
X769931D01*
X769903D01*
X769857D01*
X769801D01*
X769737Y472832D01*
X769653D01*
X769561Y472822D01*
X769459Y472813D01*
X769238Y472785D01*
X768997Y472739D01*
X768757Y472684D01*
X768516Y472610D01*
X768507D01*
X768489Y472601D01*
X768461Y472582D01*
X768415Y472564D01*
X768304Y472508D01*
X768174Y472425D01*
X768026Y472323D01*
X767869Y472194D01*
X767730Y472046D01*
X767601Y471870D01*
Y471861D01*
X767592Y471842D01*
X767573Y471815D01*
X767555Y471778D01*
X767536Y471731D01*
X767508Y471676D01*
X767453Y471547D01*
X767398Y471380D01*
X767351Y471195D01*
X767314Y470992D01*
X767305Y470779D01*
Y470714D01*
X767314Y470659D01*
Y470594D01*
X767324Y470530D01*
X767361Y470363D01*
X767407Y470169D01*
X767481Y469975D01*
X767582Y469771D01*
X767638Y469670D01*
X767712Y469577D01*
X767721Y469568D01*
X767730Y469559D01*
X767758Y469531D01*
X767786Y469494D01*
X767832Y469457D01*
X767888Y469411D01*
X767943Y469355D01*
X768017Y469309D01*
X768100Y469254D01*
X768193Y469189D01*
X768285Y469133D01*
X768396Y469078D01*
X768516Y469032D01*
X768646Y468986D01*
X768784Y468939D01*
X768932Y468902D01*
X768720Y468052D01*
X768710D01*
X768673Y468061D01*
X768618Y468079D01*
X768544Y468107D01*
X768461Y468135D01*
X768359Y468172D01*
X768248Y468218D01*
X768128Y468274D01*
X767869Y468403D01*
X767610Y468569D01*
X767481Y468671D01*
X767351Y468773D01*
X767240Y468884D01*
X767130Y469013D01*
X767120Y469023D01*
X767102Y469041D01*
X767083Y469087D01*
X767046Y469133D01*
X767000Y469207D01*
X766954Y469281D01*
X766908Y469383D01*
X766861Y469485D01*
X766806Y469605D01*
X766760Y469734D01*
X766713Y469873D01*
X766667Y470021D01*
X766630Y470178D01*
X766612Y470345D01*
X766593Y470520D01*
X766584Y470705D01*
Y470807D01*
X766593Y470881D01*
Y470964D01*
X766602Y471066D01*
X766621Y471177D01*
X766639Y471306D01*
X766686Y471574D01*
X766760Y471852D01*
X766861Y472129D01*
X766926Y472258D01*
X767000Y472388D01*
X767009Y472397D01*
X767019Y472416D01*
X767046Y472453D01*
X767083Y472490D01*
X767120Y472545D01*
X767176Y472610D01*
X767240Y472684D01*
X767314Y472758D01*
X767398Y472832D01*
X767481Y472915D01*
X767693Y473081D01*
X767943Y473239D01*
X768220Y473377D01*
X768230D01*
X768257Y473396D01*
X768304Y473405D01*
X768359Y473433D01*
X768433Y473451D01*
X768525Y473479D01*
X768627Y473516D01*
X768738Y473544D01*
X768858Y473571D01*
X768997Y473608D01*
X769284Y473655D01*
X769607Y473692D01*
X769940Y473710D01*
X769949D01*
X769986D01*
X770042D01*
X770107Y473701D01*
D02*
G37*
G36*
X766871Y467432D02*
X766954Y467423D01*
X767046Y467405D01*
X767139Y467386D01*
X767240Y467349D01*
X767250D01*
X767259Y467340D01*
X767314Y467321D01*
X767398Y467284D01*
X767508Y467229D01*
X767638Y467155D01*
X767786Y467062D01*
X767934Y466961D01*
X768091Y466831D01*
X768100D01*
X768110Y466813D01*
X768165Y466767D01*
X768248Y466683D01*
X768368Y466563D01*
X768507Y466424D01*
X768673Y466249D01*
X768858Y466036D01*
X769053Y465805D01*
X769062Y465796D01*
X769090Y465759D01*
X769136Y465703D01*
X769191Y465639D01*
X769265Y465555D01*
X769348Y465454D01*
X769441Y465352D01*
X769543Y465232D01*
X769764Y465001D01*
X769986Y464770D01*
X770097Y464659D01*
X770208Y464557D01*
X770310Y464464D01*
X770412Y464390D01*
X770421D01*
X770430Y464372D01*
X770458Y464353D01*
X770495Y464335D01*
X770597Y464270D01*
X770717Y464196D01*
X770865Y464132D01*
X771022Y464067D01*
X771198Y464030D01*
X771364Y464011D01*
X771373D01*
X771382D01*
X771438Y464021D01*
X771530Y464030D01*
X771632Y464058D01*
X771761Y464095D01*
X771891Y464159D01*
X772020Y464243D01*
X772150Y464353D01*
X772168Y464372D01*
X772205Y464418D01*
X772252Y464483D01*
X772316Y464585D01*
X772372Y464714D01*
X772427Y464862D01*
X772464Y465038D01*
X772473Y465232D01*
Y465287D01*
X772464Y465324D01*
X772455Y465435D01*
X772427Y465565D01*
X772390Y465703D01*
X772326Y465861D01*
X772242Y466008D01*
X772131Y466147D01*
X772113Y466166D01*
X772067Y466203D01*
X771993Y466258D01*
X771882Y466314D01*
X771752Y466378D01*
X771586Y466434D01*
X771401Y466471D01*
X771188Y466489D01*
X771272Y467294D01*
X771281D01*
X771309Y467284D01*
X771355D01*
X771419Y467275D01*
X771493Y467257D01*
X771577Y467238D01*
X771678Y467210D01*
X771780Y467183D01*
X772002Y467109D01*
X772224Y466998D01*
X772335Y466933D01*
X772446Y466850D01*
X772547Y466767D01*
X772640Y466674D01*
X772649Y466665D01*
X772658Y466646D01*
X772686Y466619D01*
X772714Y466572D01*
X772751Y466517D01*
X772788Y466452D01*
X772834Y466378D01*
X772880Y466286D01*
X772926Y466184D01*
X772973Y466073D01*
X773010Y465953D01*
X773047Y465824D01*
X773074Y465685D01*
X773102Y465537D01*
X773111Y465380D01*
X773121Y465213D01*
Y465121D01*
X773111Y465056D01*
X773102Y464982D01*
X773093Y464890D01*
X773074Y464788D01*
X773056Y464686D01*
X772991Y464446D01*
X772899Y464206D01*
X772843Y464085D01*
X772778Y463965D01*
X772695Y463854D01*
X772603Y463753D01*
X772594Y463743D01*
X772584Y463725D01*
X772547Y463706D01*
X772510Y463669D01*
X772464Y463623D01*
X772399Y463577D01*
X772335Y463531D01*
X772252Y463475D01*
X772076Y463383D01*
X771854Y463290D01*
X771743Y463253D01*
X771614Y463235D01*
X771484Y463216D01*
X771345Y463207D01*
X771327D01*
X771281D01*
X771207Y463216D01*
X771105Y463226D01*
X770994Y463244D01*
X770865Y463281D01*
X770726Y463318D01*
X770587Y463373D01*
X770569Y463383D01*
X770523Y463401D01*
X770449Y463438D01*
X770347Y463494D01*
X770236Y463568D01*
X770097Y463660D01*
X769959Y463771D01*
X769801Y463900D01*
X769783Y463919D01*
X769727Y463965D01*
X769681Y464011D01*
X769635Y464058D01*
X769579Y464113D01*
X769506Y464187D01*
X769432Y464261D01*
X769348Y464353D01*
X769256Y464446D01*
X769154Y464557D01*
X769053Y464677D01*
X768932Y464807D01*
X768812Y464954D01*
X768683Y465102D01*
X768673Y465112D01*
X768655Y465130D01*
X768627Y465167D01*
X768590Y465213D01*
X768535Y465269D01*
X768479Y465334D01*
X768359Y465481D01*
X768220Y465639D01*
X768082Y465787D01*
X767962Y465916D01*
X767915Y465971D01*
X767869Y466018D01*
X767860Y466027D01*
X767832Y466055D01*
X767795Y466092D01*
X767740Y466138D01*
X767675Y466184D01*
X767610Y466240D01*
X767453Y466351D01*
Y463198D01*
X766695D01*
Y467442D01*
X766704D01*
X766741D01*
X766797D01*
X766871Y467432D01*
D02*
G37*
G36*
X251007Y146469D02*
X248381D01*
Y143160D01*
X251007D01*
Y142309D01*
X244608D01*
Y143160D01*
X247623D01*
Y146469D01*
X244608D01*
Y147320D01*
X251007D01*
Y146469D01*
D02*
G37*
G36*
X247077Y141255D02*
X247179Y141246D01*
X247290Y141236D01*
X247419Y141218D01*
X247549Y141190D01*
X247845Y141116D01*
X247992Y141070D01*
X248150Y141014D01*
X248298Y140941D01*
X248436Y140857D01*
X248575Y140765D01*
X248704Y140663D01*
X248713Y140654D01*
X248732Y140635D01*
X248760Y140598D01*
X248806Y140552D01*
X248852Y140497D01*
X248908Y140423D01*
X248972Y140340D01*
X249028Y140238D01*
X249093Y140136D01*
X249148Y140016D01*
X249204Y139887D01*
X249250Y139748D01*
X249296Y139600D01*
X249324Y139443D01*
X249342Y139276D01*
X249352Y139101D01*
Y139008D01*
X249342Y138944D01*
X249333Y138869D01*
X249314Y138777D01*
X249296Y138675D01*
X249268Y138555D01*
X249240Y138444D01*
X249194Y138315D01*
X249148Y138195D01*
X249083Y138065D01*
X249009Y137936D01*
X248926Y137806D01*
X248825Y137686D01*
X248713Y137575D01*
X248704Y137566D01*
X248686Y137547D01*
X248649Y137520D01*
X248593Y137483D01*
X248529Y137437D01*
X248455Y137390D01*
X248362Y137335D01*
X248251Y137279D01*
X248131Y137224D01*
X248002Y137168D01*
X247854Y137122D01*
X247696Y137076D01*
X247521Y137039D01*
X247336Y137011D01*
X247142Y136993D01*
X246929Y136983D01*
X246920D01*
X246883D01*
X246818D01*
X246726Y136993D01*
Y140460D01*
X246716D01*
X246689D01*
X246652Y140450D01*
X246596D01*
X246532Y140441D01*
X246458Y140423D01*
X246291Y140395D01*
X246106Y140340D01*
X245903Y140266D01*
X245718Y140164D01*
X245552Y140035D01*
Y140025D01*
X245533Y140016D01*
X245487Y139960D01*
X245422Y139877D01*
X245357Y139766D01*
X245283Y139618D01*
X245219Y139452D01*
X245173Y139267D01*
X245163Y139165D01*
X245154Y139054D01*
Y138981D01*
X245163Y138897D01*
X245182Y138796D01*
X245210Y138685D01*
X245246Y138555D01*
X245302Y138435D01*
X245376Y138315D01*
X245385Y138306D01*
X245422Y138259D01*
X245478Y138204D01*
X245552Y138139D01*
X245653Y138065D01*
X245783Y137982D01*
X245931Y137899D01*
X246106Y137825D01*
X246005Y137011D01*
X245995D01*
X245977Y137020D01*
X245940Y137030D01*
X245884Y137048D01*
X245829Y137076D01*
X245755Y137104D01*
X245598Y137178D01*
X245422Y137270D01*
X245237Y137400D01*
X245061Y137547D01*
X244895Y137732D01*
Y137742D01*
X244877Y137760D01*
X244858Y137788D01*
X244830Y137825D01*
X244803Y137880D01*
X244775Y137936D01*
X244738Y138010D01*
X244701Y138093D01*
X244664Y138185D01*
X244627Y138278D01*
X244571Y138509D01*
X244525Y138768D01*
X244507Y139054D01*
Y139156D01*
X244516Y139221D01*
X244525Y139304D01*
X244544Y139406D01*
X244562Y139517D01*
X244581Y139637D01*
X244655Y139896D01*
X244710Y140035D01*
X244766Y140164D01*
X244840Y140303D01*
X244923Y140432D01*
X245015Y140552D01*
X245126Y140672D01*
X245135Y140682D01*
X245154Y140700D01*
X245191Y140728D01*
X245246Y140765D01*
X245311Y140811D01*
X245385Y140857D01*
X245478Y140913D01*
X245579Y140968D01*
X245700Y141024D01*
X245829Y141079D01*
X245977Y141125D01*
X246134Y141172D01*
X246300Y141209D01*
X246485Y141236D01*
X246679Y141255D01*
X246883Y141264D01*
X246892D01*
X246938D01*
X246994D01*
X247077Y141255D01*
D02*
G37*
G36*
X245949Y136281D02*
X246032Y136271D01*
X246134Y136253D01*
X246236Y136225D01*
X246347Y136188D01*
X246448Y136142D01*
X246458Y136133D01*
X246495Y136114D01*
X246550Y136077D01*
X246615Y136031D01*
X246689Y135976D01*
X246763Y135902D01*
X246837Y135828D01*
X246901Y135735D01*
X246911Y135726D01*
X246929Y135689D01*
X246966Y135643D01*
X247003Y135569D01*
X247040Y135486D01*
X247086Y135384D01*
X247123Y135282D01*
X247160Y135162D01*
Y135153D01*
X247169Y135116D01*
X247188Y135060D01*
X247197Y134986D01*
X247216Y134894D01*
X247234Y134774D01*
X247262Y134635D01*
X247281Y134469D01*
Y134459D01*
X247290Y134422D01*
Y134376D01*
X247299Y134311D01*
X247308Y134237D01*
X247327Y134145D01*
X247336Y134043D01*
X247354Y133932D01*
X247401Y133710D01*
X247447Y133470D01*
X247502Y133257D01*
X247530Y133156D01*
X247558Y133063D01*
X247567D01*
X247586D01*
X247641Y133054D01*
X247706D01*
X247743D01*
X247761D01*
X247771D01*
X247780D01*
X247835D01*
X247928Y133063D01*
X248029Y133082D01*
X248140Y133110D01*
X248251Y133156D01*
X248353Y133211D01*
X248436Y133285D01*
X248445Y133294D01*
X248482Y133341D01*
X248519Y133415D01*
X248575Y133507D01*
X248621Y133637D01*
X248667Y133784D01*
X248695Y133969D01*
X248704Y134182D01*
Y134275D01*
X248695Y134367D01*
X248677Y134496D01*
X248658Y134626D01*
X248621Y134764D01*
X248575Y134894D01*
X248510Y135005D01*
X248501Y135014D01*
X248473Y135051D01*
X248427Y135097D01*
X248353Y135153D01*
X248260Y135208D01*
X248140Y135273D01*
X247992Y135329D01*
X247826Y135384D01*
X247928Y136151D01*
X247937D01*
X247946Y136142D01*
X247974D01*
X248011Y136133D01*
X248094Y136105D01*
X248214Y136068D01*
X248335Y136022D01*
X248464Y135966D01*
X248593Y135892D01*
X248713Y135809D01*
X248723Y135800D01*
X248760Y135763D01*
X248815Y135708D01*
X248889Y135634D01*
X248963Y135532D01*
X249037Y135412D01*
X249120Y135273D01*
X249185Y135116D01*
Y135107D01*
X249194Y135097D01*
X249204Y135070D01*
X249213Y135033D01*
X249240Y134940D01*
X249268Y134811D01*
X249296Y134663D01*
X249324Y134478D01*
X249342Y134284D01*
X249352Y134062D01*
Y133960D01*
X249342Y133858D01*
X249333Y133720D01*
X249314Y133562D01*
X249287Y133405D01*
X249250Y133248D01*
X249204Y133100D01*
X249194Y133082D01*
X249176Y133035D01*
X249148Y132971D01*
X249111Y132888D01*
X249056Y132795D01*
X249000Y132703D01*
X248926Y132619D01*
X248852Y132545D01*
X248843Y132536D01*
X248815Y132518D01*
X248769Y132490D01*
X248713Y132453D01*
X248630Y132407D01*
X248547Y132370D01*
X248445Y132333D01*
X248325Y132305D01*
X248316D01*
X248288Y132296D01*
X248233Y132287D01*
X248159Y132277D01*
X248057D01*
X247937Y132268D01*
X247780Y132259D01*
X247604D01*
X246550D01*
X246541D01*
X246504D01*
X246448D01*
X246374D01*
X246291D01*
X246189D01*
X245968Y132250D01*
X245737D01*
X245505Y132240D01*
X245404Y132231D01*
X245311D01*
X245228Y132222D01*
X245163Y132213D01*
X245154D01*
X245117Y132203D01*
X245061Y132194D01*
X244988Y132167D01*
X244904Y132148D01*
X244812Y132111D01*
X244710Y132065D01*
X244608Y132018D01*
Y132841D01*
X244618Y132851D01*
X244655Y132860D01*
X244701Y132878D01*
X244775Y132906D01*
X244858Y132934D01*
X244960Y132952D01*
X245071Y132971D01*
X245191Y132989D01*
Y132999D01*
X245173Y133008D01*
X245126Y133063D01*
X245061Y133146D01*
X244978Y133257D01*
X244895Y133396D01*
X244803Y133535D01*
X244719Y133683D01*
X244655Y133840D01*
X244646Y133858D01*
X244636Y133914D01*
X244608Y133997D01*
X244581Y134099D01*
X244553Y134228D01*
X244534Y134376D01*
X244516Y134543D01*
X244507Y134709D01*
Y134783D01*
X244516Y134838D01*
Y134903D01*
X244525Y134977D01*
X244553Y135143D01*
X244599Y135329D01*
X244664Y135532D01*
X244756Y135717D01*
X244877Y135883D01*
X244895Y135902D01*
X244941Y135948D01*
X245025Y136013D01*
X245135Y136087D01*
X245274Y136161D01*
X245431Y136225D01*
X245625Y136271D01*
X245718Y136281D01*
X245829Y136290D01*
X245847D01*
X245884D01*
X245949Y136281D01*
D02*
G37*
G36*
X249250Y130918D02*
X250396D01*
X250868Y130132D01*
X249250D01*
Y129337D01*
X248640D01*
Y130132D01*
X245912D01*
X245894D01*
X245857D01*
X245801D01*
X245737Y130123D01*
X245588Y130114D01*
X245524Y130105D01*
X245478Y130095D01*
X245459Y130086D01*
X245422Y130058D01*
X245376Y130021D01*
X245330Y129957D01*
X245320Y129938D01*
X245302Y129892D01*
X245283Y129809D01*
X245274Y129689D01*
Y129596D01*
X245283Y129550D01*
Y129485D01*
X245293Y129411D01*
X245302Y129337D01*
X244608Y129236D01*
Y129254D01*
X244599Y129291D01*
X244590Y129356D01*
X244581Y129439D01*
X244562Y129531D01*
X244553Y129633D01*
X244544Y129837D01*
Y129910D01*
X244553Y129985D01*
X244562Y130077D01*
X244571Y130188D01*
X244599Y130299D01*
X244627Y130401D01*
X244673Y130502D01*
X244683Y130512D01*
X244701Y130539D01*
X244729Y130576D01*
X244775Y130632D01*
X244821Y130678D01*
X244886Y130733D01*
X244951Y130789D01*
X245034Y130826D01*
X245043D01*
X245080Y130844D01*
X245145Y130854D01*
X245237Y130872D01*
X245357Y130891D01*
X245431Y130900D01*
X245515D01*
X245616Y130909D01*
X245718Y130918D01*
X245829D01*
X245958D01*
X248640D01*
Y131501D01*
X249250D01*
Y130918D01*
D02*
G37*
G36*
X246735Y127950D02*
X246726D01*
X246716D01*
X246689Y127941D01*
X246652D01*
X246569Y127923D01*
X246448Y127895D01*
X246328Y127858D01*
X246189Y127821D01*
X246060Y127756D01*
X245940Y127692D01*
X245931Y127682D01*
X245894Y127655D01*
X245829Y127608D01*
X245764Y127534D01*
X245681Y127442D01*
X245598Y127340D01*
X245515Y127202D01*
X245441Y127054D01*
Y127044D01*
X245431Y127035D01*
X245422Y127007D01*
X245413Y126980D01*
X245385Y126887D01*
X245348Y126767D01*
X245311Y126619D01*
X245283Y126453D01*
X245265Y126268D01*
X245256Y126064D01*
Y125981D01*
X245265Y125889D01*
X245274Y125778D01*
X245293Y125648D01*
X245311Y125500D01*
X245348Y125352D01*
X245394Y125214D01*
X245404Y125195D01*
X245422Y125149D01*
X245459Y125084D01*
X245496Y125001D01*
X245561Y124918D01*
X245625Y124825D01*
X245700Y124733D01*
X245792Y124659D01*
X245801Y124650D01*
X245838Y124631D01*
X245884Y124604D01*
X245958Y124567D01*
X246032Y124530D01*
X246125Y124502D01*
X246227Y124483D01*
X246337Y124474D01*
X246347D01*
X246393D01*
X246448Y124483D01*
X246522Y124493D01*
X246596Y124520D01*
X246689Y124548D01*
X246781Y124594D01*
X246864Y124659D01*
X246874Y124668D01*
X246901Y124696D01*
X246938Y124733D01*
X246994Y124798D01*
X247049Y124872D01*
X247114Y124973D01*
X247179Y125094D01*
X247234Y125232D01*
X247243Y125241D01*
X247253Y125288D01*
X247281Y125362D01*
X247290Y125408D01*
X247308Y125473D01*
X247336Y125537D01*
X247354Y125621D01*
X247382Y125713D01*
X247410Y125824D01*
X247438Y125935D01*
X247475Y126064D01*
X247512Y126212D01*
X247549Y126369D01*
Y126379D01*
X247558Y126406D01*
X247567Y126453D01*
X247586Y126508D01*
X247604Y126582D01*
X247623Y126665D01*
X247678Y126850D01*
X247743Y127054D01*
X247808Y127266D01*
X247872Y127451D01*
X247909Y127534D01*
X247946Y127608D01*
Y127618D01*
X247955Y127627D01*
X247992Y127682D01*
X248039Y127766D01*
X248113Y127858D01*
X248196Y127969D01*
X248298Y128080D01*
X248418Y128191D01*
X248547Y128283D01*
X248566Y128293D01*
X248612Y128320D01*
X248686Y128357D01*
X248778Y128394D01*
X248899Y128431D01*
X249037Y128468D01*
X249185Y128496D01*
X249342Y128505D01*
X249352D01*
X249361D01*
X249389D01*
X249426D01*
X249518Y128487D01*
X249638Y128468D01*
X249777Y128441D01*
X249934Y128394D01*
X250091Y128329D01*
X250248Y128237D01*
X250258D01*
X250267Y128228D01*
X250322Y128182D01*
X250396Y128117D01*
X250489Y128034D01*
X250590Y127923D01*
X250701Y127784D01*
X250803Y127618D01*
X250896Y127433D01*
Y127423D01*
X250905Y127405D01*
X250914Y127377D01*
X250933Y127340D01*
X250951Y127294D01*
X250970Y127229D01*
X251007Y127091D01*
X251043Y126915D01*
X251080Y126712D01*
X251108Y126499D01*
X251117Y126258D01*
Y126138D01*
X251108Y126074D01*
Y126009D01*
X251090Y125833D01*
X251062Y125639D01*
X251016Y125436D01*
X250960Y125214D01*
X250886Y125010D01*
Y125001D01*
X250877Y124983D01*
X250858Y124955D01*
X250840Y124918D01*
X250794Y124825D01*
X250711Y124705D01*
X250618Y124567D01*
X250498Y124428D01*
X250359Y124298D01*
X250202Y124178D01*
X250193D01*
X250184Y124169D01*
X250156Y124150D01*
X250128Y124132D01*
X250036Y124086D01*
X249916Y124030D01*
X249767Y123966D01*
X249592Y123919D01*
X249407Y123873D01*
X249204Y123855D01*
X249139Y124668D01*
X249148D01*
X249167D01*
X249194Y124677D01*
X249240Y124687D01*
X249342Y124714D01*
X249481Y124752D01*
X249629Y124807D01*
X249777Y124890D01*
X249916Y124992D01*
X250045Y125121D01*
X250054Y125140D01*
X250091Y125186D01*
X250147Y125279D01*
X250202Y125399D01*
X250258Y125556D01*
X250313Y125741D01*
X250350Y125972D01*
X250359Y126231D01*
Y126360D01*
X250350Y126416D01*
X250341Y126490D01*
X250322Y126656D01*
X250285Y126841D01*
X250239Y127026D01*
X250165Y127202D01*
X250119Y127275D01*
X250073Y127350D01*
X250063Y127368D01*
X250026Y127405D01*
X249962Y127460D01*
X249888Y127516D01*
X249786Y127581D01*
X249675Y127636D01*
X249546Y127673D01*
X249398Y127692D01*
X249379D01*
X249342D01*
X249277Y127682D01*
X249204Y127664D01*
X249111Y127636D01*
X249019Y127590D01*
X248926Y127534D01*
X248834Y127451D01*
X248825Y127442D01*
X248797Y127396D01*
X248769Y127359D01*
X248750Y127322D01*
X248723Y127266D01*
X248686Y127202D01*
X248658Y127118D01*
X248621Y127026D01*
X248584Y126924D01*
X248538Y126804D01*
X248501Y126675D01*
X248455Y126527D01*
X248418Y126360D01*
X248372Y126175D01*
Y126166D01*
X248362Y126129D01*
X248353Y126074D01*
X248335Y126009D01*
X248316Y125926D01*
X248288Y125824D01*
X248260Y125722D01*
X248233Y125611D01*
X248168Y125371D01*
X248103Y125140D01*
X248066Y125029D01*
X248029Y124927D01*
X248002Y124835D01*
X247965Y124761D01*
Y124752D01*
X247955Y124733D01*
X247937Y124705D01*
X247918Y124668D01*
X247863Y124567D01*
X247789Y124446D01*
X247687Y124308D01*
X247576Y124169D01*
X247447Y124040D01*
X247308Y123929D01*
X247290Y123919D01*
X247243Y123882D01*
X247160Y123845D01*
X247049Y123790D01*
X246920Y123744D01*
X246763Y123698D01*
X246587Y123670D01*
X246402Y123660D01*
X246393D01*
X246384D01*
X246356D01*
X246319D01*
X246217Y123679D01*
X246088Y123698D01*
X245940Y123735D01*
X245783Y123781D01*
X245616Y123855D01*
X245441Y123956D01*
X245431D01*
X245422Y123966D01*
X245367Y124012D01*
X245283Y124077D01*
X245191Y124169D01*
X245080Y124289D01*
X244960Y124437D01*
X244849Y124604D01*
X244747Y124798D01*
Y124807D01*
X244738Y124825D01*
X244729Y124853D01*
X244710Y124890D01*
X244692Y124946D01*
X244664Y125010D01*
X244627Y125158D01*
X244581Y125334D01*
X244534Y125547D01*
X244507Y125778D01*
X244498Y126027D01*
Y126175D01*
X244507Y126249D01*
Y126333D01*
X244516Y126425D01*
X244525Y126536D01*
X244562Y126767D01*
X244599Y127007D01*
X244664Y127248D01*
X244747Y127479D01*
Y127488D01*
X244756Y127507D01*
X244775Y127534D01*
X244793Y127571D01*
X244849Y127682D01*
X244932Y127812D01*
X245043Y127960D01*
X245173Y128117D01*
X245330Y128265D01*
X245505Y128404D01*
X245515D01*
X245533Y128422D01*
X245561Y128431D01*
X245598Y128459D01*
X245644Y128477D01*
X245700Y128505D01*
X245838Y128570D01*
X246014Y128635D01*
X246208Y128690D01*
X246430Y128727D01*
X246661Y128746D01*
X246735Y127950D01*
D02*
G37*
G36*
X251007Y121811D02*
X250110D01*
Y122597D01*
X251007D01*
Y121811D01*
D02*
G37*
G36*
X249250D02*
X244608D01*
Y122597D01*
X249250D01*
Y121811D01*
D02*
G37*
G36*
Y119907D02*
X248584D01*
X248593Y119898D01*
X248621Y119879D01*
X248658Y119851D01*
X248704Y119814D01*
X248760Y119759D01*
X248825Y119694D01*
X248899Y119620D01*
X248972Y119528D01*
X249037Y119435D01*
X249111Y119324D01*
X249176Y119204D01*
X249231Y119075D01*
X249277Y118927D01*
X249314Y118779D01*
X249342Y118612D01*
X249352Y118437D01*
Y118363D01*
X249342Y118289D01*
X249333Y118187D01*
X249314Y118067D01*
X249287Y117937D01*
X249250Y117799D01*
X249194Y117669D01*
X249185Y117651D01*
X249167Y117614D01*
X249139Y117549D01*
X249093Y117475D01*
X249037Y117383D01*
X248963Y117299D01*
X248889Y117216D01*
X248797Y117142D01*
X248787Y117133D01*
X248750Y117115D01*
X248704Y117087D01*
X248640Y117041D01*
X248547Y117004D01*
X248455Y116967D01*
X248344Y116920D01*
X248223Y116893D01*
X248214D01*
X248177Y116883D01*
X248122Y116874D01*
X248048Y116865D01*
X247937D01*
X247808Y116856D01*
X247650Y116847D01*
X247456D01*
X244608D01*
Y117632D01*
X247419D01*
X247428D01*
X247438D01*
X247502D01*
X247586D01*
X247687Y117642D01*
X247808Y117651D01*
X247928Y117669D01*
X248039Y117697D01*
X248140Y117725D01*
X248150D01*
X248177Y117743D01*
X248223Y117771D01*
X248279Y117799D01*
X248335Y117845D01*
X248399Y117900D01*
X248464Y117975D01*
X248519Y118058D01*
X248529Y118067D01*
X248547Y118095D01*
X248566Y118150D01*
X248593Y118215D01*
X248621Y118289D01*
X248649Y118381D01*
X248658Y118492D01*
X248667Y118603D01*
Y118649D01*
X248658Y118686D01*
X248649Y118779D01*
X248630Y118899D01*
X248584Y119029D01*
X248529Y119176D01*
X248455Y119324D01*
X248344Y119463D01*
X248325Y119481D01*
X248279Y119518D01*
X248242Y119546D01*
X248196Y119574D01*
X248140Y119611D01*
X248076Y119639D01*
X248002Y119676D01*
X247909Y119713D01*
X247808Y119740D01*
X247696Y119768D01*
X247576Y119787D01*
X247447Y119805D01*
X247290Y119824D01*
X247133D01*
X244608D01*
Y120610D01*
X249250D01*
Y119907D01*
D02*
G37*
G36*
X251007Y114850D02*
X247354D01*
X249250Y112991D01*
Y111965D01*
X247521Y113749D01*
X244608Y111789D01*
Y112760D01*
X246975Y114304D01*
X246448Y114850D01*
X244608D01*
Y115635D01*
X251007D01*
Y114850D01*
D02*
G37*
G36*
X249426Y108285D02*
X249444Y108267D01*
X249453Y108230D01*
X249481Y108183D01*
X249509Y108128D01*
X249546Y108063D01*
X249638Y107906D01*
X249740Y107721D01*
X249869Y107536D01*
X250017Y107342D01*
X250174Y107148D01*
X250184Y107139D01*
X250193Y107129D01*
X250221Y107102D01*
X250248Y107065D01*
X250341Y106981D01*
X250452Y106870D01*
X250581Y106760D01*
X250729Y106639D01*
X250877Y106538D01*
X251034Y106445D01*
Y105937D01*
X244608D01*
Y106723D01*
X249610D01*
X249601Y106732D01*
X249564Y106778D01*
X249509Y106833D01*
X249444Y106926D01*
X249361Y107028D01*
X249268Y107157D01*
X249167Y107305D01*
X249065Y107472D01*
Y107481D01*
X249056Y107490D01*
X249019Y107545D01*
X248972Y107638D01*
X248917Y107749D01*
X248852Y107878D01*
X248787Y108017D01*
X248723Y108156D01*
X248667Y108294D01*
X249426D01*
Y108285D01*
D02*
G37*
G36*
X140307Y77136D02*
X135305D01*
X135314Y77127D01*
X135351Y77081D01*
X135407Y77025D01*
X135471Y76933D01*
X135555Y76831D01*
X135647Y76702D01*
X135749Y76554D01*
X135851Y76388D01*
Y76378D01*
X135860Y76369D01*
X135897Y76314D01*
X135943Y76221D01*
X135998Y76110D01*
X136063Y75981D01*
X136128Y75842D01*
X136193Y75703D01*
X136248Y75565D01*
X135490D01*
Y75574D01*
X135471Y75592D01*
X135462Y75629D01*
X135435Y75676D01*
X135407Y75731D01*
X135370Y75796D01*
X135277Y75953D01*
X135176Y76138D01*
X135046Y76323D01*
X134898Y76517D01*
X134741Y76711D01*
X134732Y76720D01*
X134723Y76730D01*
X134695Y76757D01*
X134667Y76794D01*
X134575Y76877D01*
X134464Y76989D01*
X134334Y77099D01*
X134186Y77220D01*
X134038Y77321D01*
X133881Y77414D01*
Y77922D01*
X140307D01*
Y77136D01*
D02*
G37*
G36*
X137265Y74113D02*
X137339D01*
X137515Y74104D01*
X137718Y74076D01*
X137931Y74048D01*
X138153Y74002D01*
X138375Y73947D01*
X138384D01*
X138402Y73937D01*
X138430Y73928D01*
X138467Y73919D01*
X138569Y73882D01*
X138698Y73826D01*
X138846Y73771D01*
X138994Y73697D01*
X139151Y73605D01*
X139299Y73512D01*
X139318Y73503D01*
X139364Y73466D01*
X139429Y73410D01*
X139512Y73337D01*
X139604Y73253D01*
X139697Y73152D01*
X139798Y73050D01*
X139882Y72930D01*
X139891Y72911D01*
X139919Y72874D01*
X139956Y72810D01*
X140002Y72717D01*
X140057Y72606D01*
X140104Y72477D01*
X140159Y72329D01*
X140205Y72162D01*
Y72144D01*
X140215Y72116D01*
X140224Y72088D01*
X140233Y71996D01*
X140252Y71866D01*
X140270Y71719D01*
X140288Y71543D01*
X140298Y71349D01*
X140307Y71136D01*
Y68834D01*
X133909D01*
Y71293D01*
X133918Y71460D01*
X133927Y71645D01*
X133946Y71829D01*
X133974Y72014D01*
X134001Y72172D01*
Y72181D01*
X134011Y72199D01*
Y72227D01*
X134029Y72264D01*
X134057Y72366D01*
X134103Y72495D01*
X134168Y72643D01*
X134251Y72800D01*
X134344Y72957D01*
X134464Y73105D01*
X134473Y73115D01*
X134482Y73124D01*
X134510Y73152D01*
X134538Y73189D01*
X134630Y73281D01*
X134760Y73392D01*
X134917Y73512D01*
X135102Y73642D01*
X135314Y73762D01*
X135555Y73864D01*
X135564D01*
X135582Y73873D01*
X135619Y73891D01*
X135675Y73900D01*
X135740Y73928D01*
X135814Y73947D01*
X135897Y73965D01*
X135998Y73993D01*
X136100Y74021D01*
X136220Y74039D01*
X136479Y74085D01*
X136766Y74113D01*
X137080Y74122D01*
X137090D01*
X137108D01*
X137154D01*
X137200D01*
X137265Y74113D01*
D02*
G37*
G36*
X247258Y156427D02*
X242257D01*
X242266Y156418D01*
X242303Y156371D01*
X242358Y156316D01*
X242423Y156223D01*
X242506Y156122D01*
X242599Y155992D01*
X242700Y155844D01*
X242802Y155678D01*
Y155669D01*
X242811Y155659D01*
X242848Y155604D01*
X242894Y155512D01*
X242950Y155401D01*
X243015Y155271D01*
X243079Y155132D01*
X243144Y154994D01*
X243200Y154855D01*
X242442D01*
Y154864D01*
X242423Y154883D01*
X242414Y154920D01*
X242386Y154966D01*
X242358Y155021D01*
X242321Y155086D01*
X242229Y155243D01*
X242127Y155428D01*
X241998Y155613D01*
X241850Y155807D01*
X241693Y156002D01*
X241683Y156011D01*
X241674Y156020D01*
X241646Y156048D01*
X241619Y156085D01*
X241526Y156168D01*
X241415Y156279D01*
X241286Y156390D01*
X241138Y156510D01*
X240990Y156612D01*
X240833Y156704D01*
Y157213D01*
X247258D01*
Y156427D01*
D02*
G37*
G36*
X247758Y153311D02*
Y153302D01*
X247749Y153283D01*
X247730Y153246D01*
X247712Y153191D01*
X247684Y153126D01*
X247647Y153052D01*
X247610Y152969D01*
X247564Y152877D01*
X247453Y152673D01*
X247323Y152442D01*
X247157Y152192D01*
X246972Y151933D01*
Y151924D01*
X246990Y151906D01*
X247009Y151860D01*
X247037Y151813D01*
X247064Y151739D01*
X247101Y151665D01*
X247129Y151573D01*
X247166Y151471D01*
X247203Y151360D01*
X247240Y151240D01*
X247305Y150972D01*
X247351Y150676D01*
X247360Y150519D01*
X247369Y150362D01*
Y150279D01*
X247360Y150214D01*
Y150140D01*
X247351Y150047D01*
X247332Y149946D01*
X247314Y149835D01*
X247268Y149594D01*
X247194Y149326D01*
X247092Y149049D01*
X247027Y148919D01*
X246953Y148781D01*
X246944Y148771D01*
X246935Y148753D01*
X246907Y148716D01*
X246879Y148670D01*
X246833Y148605D01*
X246778Y148540D01*
X246648Y148383D01*
X246482Y148208D01*
X246278Y148032D01*
X246047Y147856D01*
X245779Y147699D01*
X245770D01*
X245742Y147681D01*
X245705Y147662D01*
X245650Y147643D01*
X245576Y147616D01*
X245492Y147579D01*
X245391Y147542D01*
X245280Y147514D01*
X245160Y147477D01*
X245030Y147440D01*
X244892Y147412D01*
X244734Y147375D01*
X244411Y147338D01*
X244069Y147320D01*
X244060D01*
X244023D01*
X243976D01*
X243912Y147329D01*
X243828D01*
X243727Y147338D01*
X243616Y147348D01*
X243496Y147366D01*
X243227Y147412D01*
X242941Y147477D01*
X242636Y147570D01*
X242340Y147699D01*
X242331Y147708D01*
X242303Y147718D01*
X242266Y147736D01*
X242210Y147773D01*
X242146Y147810D01*
X242072Y147856D01*
X241896Y147986D01*
X241711Y148133D01*
X241517Y148328D01*
X241323Y148540D01*
X241156Y148790D01*
X241147Y148799D01*
X241138Y148827D01*
X241119Y148864D01*
X241092Y148919D01*
X241064Y148984D01*
X241027Y149058D01*
X240990Y149150D01*
X240953Y149252D01*
X240916Y149372D01*
X240879Y149493D01*
X240814Y149761D01*
X240768Y150057D01*
X240750Y150214D01*
Y150463D01*
X240759Y150528D01*
Y150611D01*
X240768Y150695D01*
X240786Y150806D01*
X240805Y150916D01*
X240851Y151157D01*
X240925Y151434D01*
X241036Y151702D01*
X241101Y151841D01*
X241175Y151980D01*
X241184Y151989D01*
X241193Y152007D01*
X241221Y152044D01*
X241249Y152100D01*
X241295Y152155D01*
X241350Y152229D01*
X241480Y152387D01*
X241646Y152553D01*
X241850Y152738D01*
X242090Y152914D01*
X242358Y153061D01*
X242367D01*
X242395Y153080D01*
X242432Y153098D01*
X242488Y153117D01*
X242562Y153154D01*
X242645Y153182D01*
X242747Y153219D01*
X242858Y153256D01*
X242978Y153283D01*
X243107Y153320D01*
X243246Y153357D01*
X243394Y153385D01*
X243717Y153422D01*
X244060Y153441D01*
X244069D01*
X244097D01*
X244133D01*
X244189D01*
X244263Y153431D01*
X244346D01*
X244439Y153422D01*
X244531Y153413D01*
X244753Y153385D01*
X244993Y153339D01*
X245243Y153283D01*
X245483Y153200D01*
X245492D01*
X245511Y153191D01*
X245548Y153172D01*
X245585Y153154D01*
X245641Y153126D01*
X245705Y153098D01*
X245853Y153024D01*
X246029Y152923D01*
X246214Y152793D01*
X246399Y152645D01*
X246583Y152479D01*
Y152488D01*
X246602Y152507D01*
X246621Y152534D01*
X246648Y152581D01*
X246685Y152627D01*
X246722Y152692D01*
X246805Y152830D01*
X246907Y152997D01*
X247009Y153182D01*
X247092Y153376D01*
X247175Y153561D01*
X247758Y153311D01*
D02*
G37*
G36*
X243367Y350119D02*
Y350082D01*
Y350027D01*
X243358Y349953D01*
X243348Y349869D01*
X243330Y349777D01*
X243311Y349685D01*
X243274Y349583D01*
Y349574D01*
X243265Y349564D01*
X243247Y349509D01*
X243210Y349426D01*
X243154Y349315D01*
X243080Y349185D01*
X242988Y349037D01*
X242886Y348890D01*
X242757Y348732D01*
Y348723D01*
X242738Y348714D01*
X242692Y348658D01*
X242609Y348575D01*
X242488Y348455D01*
X242350Y348316D01*
X242174Y348150D01*
X241961Y347965D01*
X241730Y347771D01*
X241721Y347761D01*
X241684Y347734D01*
X241629Y347688D01*
X241564Y347632D01*
X241481Y347558D01*
X241379Y347475D01*
X241277Y347383D01*
X241157Y347281D01*
X240926Y347059D01*
X240695Y346837D01*
X240584Y346726D01*
X240482Y346615D01*
X240390Y346513D01*
X240316Y346412D01*
Y346402D01*
X240297Y346393D01*
X240279Y346365D01*
X240260Y346329D01*
X240196Y346227D01*
X240122Y346107D01*
X240057Y345959D01*
X239992Y345802D01*
X239955Y345626D01*
X239937Y345459D01*
Y345450D01*
Y345441D01*
X239946Y345385D01*
X239955Y345293D01*
X239983Y345191D01*
X240020Y345062D01*
X240085Y344932D01*
X240168Y344803D01*
X240279Y344674D01*
X240297Y344655D01*
X240343Y344618D01*
X240408Y344572D01*
X240510Y344507D01*
X240639Y344452D01*
X240787Y344396D01*
X240963Y344359D01*
X241157Y344350D01*
X241213D01*
X241250Y344359D01*
X241360Y344368D01*
X241490Y344396D01*
X241629Y344433D01*
X241786Y344498D01*
X241934Y344581D01*
X242072Y344692D01*
X242091Y344711D01*
X242128Y344757D01*
X242183Y344831D01*
X242239Y344942D01*
X242304Y345071D01*
X242359Y345238D01*
X242396Y345422D01*
X242414Y345635D01*
X243219Y345552D01*
Y345543D01*
X243210Y345515D01*
Y345469D01*
X243200Y345404D01*
X243182Y345330D01*
X243163Y345247D01*
X243136Y345145D01*
X243108Y345043D01*
X243034Y344821D01*
X242923Y344599D01*
X242858Y344489D01*
X242775Y344378D01*
X242692Y344276D01*
X242599Y344184D01*
X242590Y344174D01*
X242572Y344165D01*
X242544Y344137D01*
X242498Y344109D01*
X242442Y344072D01*
X242377Y344036D01*
X242304Y343989D01*
X242211Y343943D01*
X242109Y343897D01*
X241999Y343851D01*
X241878Y343814D01*
X241749Y343777D01*
X241610Y343749D01*
X241462Y343721D01*
X241305Y343712D01*
X241139Y343703D01*
X241046D01*
X240982Y343712D01*
X240907Y343721D01*
X240815Y343731D01*
X240713Y343749D01*
X240612Y343767D01*
X240371Y343832D01*
X240131Y343925D01*
X240011Y343980D01*
X239890Y344045D01*
X239779Y344128D01*
X239678Y344221D01*
X239669Y344230D01*
X239650Y344239D01*
X239632Y344276D01*
X239595Y344313D01*
X239548Y344359D01*
X239502Y344424D01*
X239456Y344489D01*
X239401Y344572D01*
X239308Y344748D01*
X239216Y344969D01*
X239179Y345080D01*
X239160Y345210D01*
X239142Y345339D01*
X239132Y345478D01*
Y345496D01*
Y345543D01*
X239142Y345617D01*
X239151Y345718D01*
X239169Y345829D01*
X239206Y345959D01*
X239243Y346097D01*
X239299Y346236D01*
X239308Y346255D01*
X239326Y346301D01*
X239363Y346375D01*
X239419Y346476D01*
X239493Y346587D01*
X239585Y346726D01*
X239696Y346865D01*
X239826Y347022D01*
X239844Y347040D01*
X239890Y347096D01*
X239937Y347142D01*
X239983Y347188D01*
X240038Y347244D01*
X240112Y347318D01*
X240186Y347392D01*
X240279Y347475D01*
X240371Y347567D01*
X240482Y347669D01*
X240602Y347771D01*
X240732Y347891D01*
X240880Y348011D01*
X241028Y348141D01*
X241037Y348150D01*
X241055Y348168D01*
X241092Y348196D01*
X241139Y348233D01*
X241194Y348288D01*
X241259Y348344D01*
X241407Y348464D01*
X241564Y348603D01*
X241712Y348742D01*
X241841Y348862D01*
X241897Y348908D01*
X241943Y348954D01*
X241952Y348964D01*
X241980Y348991D01*
X242017Y349028D01*
X242063Y349084D01*
X242109Y349148D01*
X242165Y349213D01*
X242276Y349370D01*
X239123D01*
Y350128D01*
X243367D01*
Y350119D01*
D02*
G37*
G36*
X244227Y350618D02*
X244264Y350600D01*
X244319Y350581D01*
X244384Y350554D01*
X244458Y350517D01*
X244541Y350480D01*
X244634Y350434D01*
X244837Y350323D01*
X245068Y350193D01*
X245318Y350027D01*
X245576Y349842D01*
X245586D01*
X245604Y349860D01*
X245651Y349879D01*
X245697Y349907D01*
X245771Y349934D01*
X245845Y349971D01*
X245937Y349999D01*
X246039Y350036D01*
X246150Y350073D01*
X246270Y350110D01*
X246538Y350175D01*
X246834Y350221D01*
X246991Y350230D01*
X247148Y350239D01*
X247232D01*
X247296Y350230D01*
X247370D01*
X247463Y350221D01*
X247564Y350202D01*
X247675Y350184D01*
X247916Y350138D01*
X248184Y350064D01*
X248461Y349962D01*
X248591Y349897D01*
X248729Y349823D01*
X248738Y349814D01*
X248757Y349805D01*
X248794Y349777D01*
X248840Y349749D01*
X248905Y349703D01*
X248970Y349648D01*
X249127Y349518D01*
X249303Y349352D01*
X249478Y349148D01*
X249654Y348917D01*
X249811Y348649D01*
Y348640D01*
X249830Y348612D01*
X249848Y348575D01*
X249867Y348520D01*
X249894Y348446D01*
X249931Y348363D01*
X249968Y348261D01*
X249996Y348150D01*
X250033Y348030D01*
X250070Y347900D01*
X250098Y347761D01*
X250135Y347604D01*
X250172Y347281D01*
X250190Y346939D01*
Y346929D01*
Y346892D01*
Y346846D01*
X250181Y346782D01*
Y346698D01*
X250172Y346597D01*
X250162Y346486D01*
X250144Y346365D01*
X250098Y346097D01*
X250033Y345811D01*
X249940Y345506D01*
X249811Y345210D01*
X249802Y345201D01*
X249792Y345173D01*
X249774Y345136D01*
X249737Y345080D01*
X249700Y345016D01*
X249654Y344942D01*
X249524Y344766D01*
X249377Y344581D01*
X249182Y344387D01*
X248970Y344193D01*
X248720Y344026D01*
X248711Y344017D01*
X248683Y344008D01*
X248646Y343989D01*
X248591Y343962D01*
X248526Y343934D01*
X248452Y343897D01*
X248359Y343860D01*
X248258Y343823D01*
X248138Y343786D01*
X248017Y343749D01*
X247749Y343684D01*
X247453Y343638D01*
X247296Y343619D01*
X247047D01*
X246982Y343629D01*
X246899D01*
X246815Y343638D01*
X246705Y343657D01*
X246593Y343675D01*
X246353Y343721D01*
X246076Y343795D01*
X245808Y343906D01*
X245669Y343971D01*
X245530Y344045D01*
X245521Y344054D01*
X245503Y344063D01*
X245466Y344091D01*
X245410Y344119D01*
X245355Y344165D01*
X245281Y344221D01*
X245124Y344350D01*
X244957Y344516D01*
X244772Y344720D01*
X244597Y344960D01*
X244449Y345228D01*
Y345238D01*
X244430Y345265D01*
X244412Y345302D01*
X244393Y345358D01*
X244356Y345432D01*
X244328Y345515D01*
X244291Y345617D01*
X244254Y345728D01*
X244227Y345848D01*
X244190Y345977D01*
X244153Y346116D01*
X244125Y346264D01*
X244088Y346587D01*
X244069Y346929D01*
Y346939D01*
Y346966D01*
Y347003D01*
Y347059D01*
X244079Y347133D01*
Y347216D01*
X244088Y347309D01*
X244097Y347401D01*
X244125Y347623D01*
X244171Y347863D01*
X244227Y348113D01*
X244310Y348353D01*
Y348363D01*
X244319Y348381D01*
X244338Y348418D01*
X244356Y348455D01*
X244384Y348510D01*
X244412Y348575D01*
X244485Y348723D01*
X244587Y348899D01*
X244717Y349084D01*
X244865Y349269D01*
X245031Y349454D01*
X245022D01*
X245003Y349472D01*
X244976Y349491D01*
X244929Y349518D01*
X244883Y349555D01*
X244818Y349592D01*
X244680Y349675D01*
X244513Y349777D01*
X244328Y349879D01*
X244134Y349962D01*
X243949Y350045D01*
X244199Y350628D01*
X244208D01*
X244227Y350618D01*
D02*
G37*
G36*
X76806Y318241D02*
X76880Y318232D01*
X76963Y318222D01*
X77065Y318213D01*
X77167Y318185D01*
X77398Y318130D01*
X77629Y318047D01*
X77749Y317991D01*
X77869Y317926D01*
X77980Y317852D01*
X78091Y317769D01*
X78100Y317760D01*
X78119Y317751D01*
X78137Y317714D01*
X78174Y317677D01*
X78221Y317631D01*
X78267Y317575D01*
X78322Y317501D01*
X78369Y317418D01*
X78424Y317335D01*
X78479Y317233D01*
X78581Y317011D01*
X78664Y316752D01*
X78692Y316614D01*
X78711Y316466D01*
X77888Y316401D01*
Y316410D01*
Y316429D01*
X77878Y316456D01*
X77869Y316503D01*
X77842Y316604D01*
X77804Y316743D01*
X77749Y316882D01*
X77675Y317039D01*
X77583Y317178D01*
X77472Y317307D01*
X77453Y317316D01*
X77416Y317353D01*
X77342Y317399D01*
X77241Y317455D01*
X77130Y317510D01*
X76991Y317557D01*
X76834Y317593D01*
X76658Y317603D01*
X76603D01*
X76566Y317593D01*
X76455Y317584D01*
X76325Y317547D01*
X76168Y317501D01*
X76011Y317427D01*
X75844Y317316D01*
X75771Y317251D01*
X75697Y317178D01*
X75687Y317168D01*
X75678Y317159D01*
X75660Y317131D01*
X75632Y317104D01*
X75567Y317002D01*
X75493Y316872D01*
X75428Y316715D01*
X75364Y316521D01*
X75318Y316290D01*
X75299Y316170D01*
Y316040D01*
Y316031D01*
Y316013D01*
Y315976D01*
X75308Y315929D01*
Y315874D01*
X75318Y315809D01*
X75345Y315661D01*
X75391Y315486D01*
X75456Y315310D01*
X75549Y315144D01*
X75678Y314986D01*
Y314977D01*
X75697Y314968D01*
X75743Y314922D01*
X75826Y314857D01*
X75937Y314783D01*
X76085Y314718D01*
X76251Y314653D01*
X76445Y314607D01*
X76556Y314589D01*
X76732D01*
X76806Y314598D01*
X76898Y314607D01*
X77009Y314635D01*
X77120Y314663D01*
X77241Y314709D01*
X77361Y314764D01*
X77370Y314774D01*
X77407Y314792D01*
X77463Y314838D01*
X77536Y314885D01*
X77610Y314949D01*
X77684Y315033D01*
X77768Y315116D01*
X77832Y315217D01*
X78572Y315116D01*
X77952Y311824D01*
X74772D01*
Y312573D01*
X77333D01*
X77675Y314302D01*
X77666Y314293D01*
X77647Y314284D01*
X77620Y314265D01*
X77573Y314237D01*
X77518Y314210D01*
X77453Y314173D01*
X77305Y314099D01*
X77120Y314025D01*
X76917Y313960D01*
X76695Y313914D01*
X76584Y313895D01*
X76381D01*
X76325Y313905D01*
X76251Y313914D01*
X76168Y313923D01*
X76076Y313941D01*
X75974Y313969D01*
X75752Y314034D01*
X75632Y314080D01*
X75512Y314145D01*
X75391Y314210D01*
X75271Y314284D01*
X75160Y314376D01*
X75049Y314478D01*
X75040Y314487D01*
X75022Y314506D01*
X74994Y314533D01*
X74957Y314580D01*
X74911Y314644D01*
X74864Y314709D01*
X74809Y314792D01*
X74753Y314885D01*
X74707Y314986D01*
X74652Y315097D01*
X74606Y315227D01*
X74559Y315356D01*
X74522Y315495D01*
X74495Y315652D01*
X74476Y315809D01*
X74467Y315976D01*
Y315985D01*
Y316013D01*
Y316059D01*
X74476Y316124D01*
X74485Y316197D01*
X74495Y316281D01*
X74513Y316382D01*
X74532Y316484D01*
X74587Y316724D01*
X74679Y316974D01*
X74735Y317104D01*
X74809Y317224D01*
X74883Y317353D01*
X74975Y317473D01*
X74985Y317483D01*
X75003Y317510D01*
X75040Y317547D01*
X75086Y317593D01*
X75151Y317649D01*
X75225Y317723D01*
X75318Y317788D01*
X75419Y317862D01*
X75530Y317936D01*
X75660Y318000D01*
X75798Y318065D01*
X75946Y318130D01*
X76103Y318176D01*
X76279Y318213D01*
X76464Y318241D01*
X76658Y318250D01*
X76741D01*
X76806Y318241D01*
D02*
G37*
G36*
X82261D02*
X82344D01*
X82446Y318232D01*
X82557Y318213D01*
X82686Y318195D01*
X82954Y318148D01*
X83232Y318074D01*
X83509Y317973D01*
X83638Y317908D01*
X83768Y317834D01*
X83777Y317825D01*
X83796Y317815D01*
X83833Y317788D01*
X83870Y317751D01*
X83925Y317714D01*
X83990Y317658D01*
X84064Y317593D01*
X84138Y317520D01*
X84212Y317436D01*
X84295Y317353D01*
X84461Y317141D01*
X84619Y316891D01*
X84757Y316614D01*
Y316604D01*
X84776Y316576D01*
X84785Y316530D01*
X84813Y316475D01*
X84831Y316401D01*
X84859Y316308D01*
X84896Y316207D01*
X84924Y316096D01*
X84951Y315976D01*
X84988Y315837D01*
X85035Y315550D01*
X85072Y315227D01*
X85090Y314894D01*
Y314885D01*
Y314848D01*
Y314792D01*
X85081Y314727D01*
Y314635D01*
X85072Y314543D01*
X85062Y314422D01*
X85044Y314302D01*
X84998Y314034D01*
X84933Y313738D01*
X84840Y313442D01*
X84711Y313156D01*
X84702Y313146D01*
X84692Y313119D01*
X84674Y313082D01*
X84637Y313036D01*
X84600Y312971D01*
X84554Y312897D01*
X84434Y312730D01*
X84277Y312546D01*
X84092Y312360D01*
X83879Y312176D01*
X83629Y312019D01*
X83620Y312009D01*
X83592Y312000D01*
X83555Y311982D01*
X83509Y311954D01*
X83435Y311926D01*
X83361Y311898D01*
X83269Y311861D01*
X83167Y311824D01*
X83056Y311787D01*
X82936Y311750D01*
X82677Y311695D01*
X82381Y311649D01*
X82076Y311630D01*
X81984D01*
X81919Y311639D01*
X81836Y311649D01*
X81734Y311658D01*
X81632Y311667D01*
X81512Y311695D01*
X81262Y311750D01*
X80985Y311833D01*
X80846Y311889D01*
X80717Y311954D01*
X80588Y312037D01*
X80458Y312120D01*
X80449Y312129D01*
X80430Y312139D01*
X80393Y312166D01*
X80347Y312213D01*
X80301Y312259D01*
X80236Y312324D01*
X80171Y312397D01*
X80098Y312472D01*
X80023Y312564D01*
X79949Y312675D01*
X79866Y312786D01*
X79792Y312906D01*
X79728Y313045D01*
X79654Y313183D01*
X79598Y313331D01*
X79543Y313498D01*
X80375Y313692D01*
Y313683D01*
X80384Y313664D01*
X80403Y313627D01*
X80421Y313581D01*
X80440Y313526D01*
X80467Y313451D01*
X80541Y313304D01*
X80634Y313137D01*
X80745Y312971D01*
X80883Y312814D01*
X81031Y312675D01*
X81050Y312656D01*
X81105Y312619D01*
X81198Y312573D01*
X81318Y312509D01*
X81475Y312453D01*
X81651Y312397D01*
X81863Y312360D01*
X82094Y312351D01*
X82169D01*
X82215Y312360D01*
X82279D01*
X82353Y312370D01*
X82529Y312397D01*
X82723Y312435D01*
X82927Y312499D01*
X83139Y312592D01*
X83333Y312712D01*
X83343D01*
X83352Y312730D01*
X83417Y312777D01*
X83500Y312851D01*
X83602Y312962D01*
X83722Y313100D01*
X83833Y313257D01*
X83934Y313451D01*
X84027Y313664D01*
Y313673D01*
X84036Y313692D01*
X84045Y313720D01*
X84055Y313766D01*
X84073Y313821D01*
X84092Y313886D01*
X84119Y314043D01*
X84156Y314228D01*
X84193Y314432D01*
X84212Y314653D01*
X84221Y314894D01*
Y314903D01*
Y314931D01*
Y314977D01*
Y315033D01*
X84212Y315097D01*
Y315180D01*
X84202Y315273D01*
X84193Y315375D01*
X84165Y315597D01*
X84119Y315837D01*
X84064Y316077D01*
X83990Y316318D01*
Y316327D01*
X83981Y316345D01*
X83962Y316373D01*
X83944Y316419D01*
X83888Y316530D01*
X83805Y316660D01*
X83703Y316808D01*
X83574Y316965D01*
X83426Y317104D01*
X83250Y317233D01*
X83241D01*
X83223Y317242D01*
X83195Y317261D01*
X83158Y317279D01*
X83111Y317298D01*
X83056Y317325D01*
X82927Y317381D01*
X82760Y317436D01*
X82575Y317483D01*
X82372Y317520D01*
X82159Y317529D01*
X82094D01*
X82039Y317520D01*
X81974D01*
X81910Y317510D01*
X81743Y317473D01*
X81549Y317427D01*
X81355Y317353D01*
X81152Y317251D01*
X81050Y317196D01*
X80957Y317122D01*
X80948Y317113D01*
X80939Y317104D01*
X80911Y317076D01*
X80874Y317048D01*
X80837Y317002D01*
X80791Y316946D01*
X80735Y316891D01*
X80689Y316817D01*
X80634Y316734D01*
X80569Y316641D01*
X80513Y316549D01*
X80458Y316438D01*
X80412Y316318D01*
X80366Y316188D01*
X80319Y316049D01*
X80282Y315902D01*
X79432Y316114D01*
Y316124D01*
X79441Y316161D01*
X79460Y316216D01*
X79487Y316290D01*
X79515Y316373D01*
X79552Y316475D01*
X79598Y316586D01*
X79654Y316706D01*
X79783Y316965D01*
X79949Y317224D01*
X80051Y317353D01*
X80153Y317483D01*
X80264Y317593D01*
X80393Y317705D01*
X80403Y317714D01*
X80421Y317732D01*
X80467Y317751D01*
X80513Y317788D01*
X80588Y317834D01*
X80661Y317880D01*
X80763Y317926D01*
X80865Y317973D01*
X80985Y318028D01*
X81115Y318074D01*
X81253Y318120D01*
X81401Y318167D01*
X81558Y318204D01*
X81725Y318222D01*
X81900Y318241D01*
X82085Y318250D01*
X82187D01*
X82261Y318241D01*
D02*
G37*
G36*
X563113Y514250D02*
X563169D01*
X563317Y514222D01*
X563492Y514194D01*
X563677Y514148D01*
X563881Y514083D01*
X564075Y513991D01*
X564084D01*
X564093Y513982D01*
X564121Y513963D01*
X564158Y513945D01*
X564250Y513889D01*
X564371Y513806D01*
X564500Y513704D01*
X564630Y513584D01*
X564759Y513436D01*
X564870Y513279D01*
Y513270D01*
X564879Y513260D01*
X564898Y513233D01*
X564907Y513196D01*
X564953Y513103D01*
X564999Y512983D01*
X565055Y512826D01*
X565092Y512650D01*
X565129Y512456D01*
X565138Y512243D01*
Y512197D01*
X565129Y512151D01*
Y512077D01*
X565120Y511994D01*
X565101Y511901D01*
X565073Y511790D01*
X565046Y511679D01*
X565009Y511550D01*
X564962Y511420D01*
X564907Y511291D01*
X564833Y511152D01*
X564750Y511023D01*
X564657Y510893D01*
X564546Y510764D01*
X564417Y510644D01*
X564408Y510635D01*
X564380Y510616D01*
X564343Y510588D01*
X564278Y510551D01*
X564195Y510496D01*
X564103Y510450D01*
X563982Y510394D01*
X563853Y510339D01*
X563696Y510274D01*
X563520Y510219D01*
X563326Y510172D01*
X563113Y510126D01*
X562873Y510080D01*
X562614Y510052D01*
X562337Y510034D01*
X562041Y510024D01*
X562032D01*
X562022D01*
X561995D01*
X561958D01*
X561865Y510034D01*
X561736D01*
X561588Y510043D01*
X561412Y510061D01*
X561218Y510080D01*
X561005Y510108D01*
X560793Y510145D01*
X560561Y510191D01*
X560340Y510246D01*
X560118Y510311D01*
X559905Y510394D01*
X559702Y510487D01*
X559507Y510588D01*
X559341Y510709D01*
X559332Y510718D01*
X559313Y510736D01*
X559276Y510773D01*
X559221Y510820D01*
X559165Y510875D01*
X559110Y510949D01*
X559036Y511041D01*
X558971Y511134D01*
X558907Y511245D01*
X558833Y511365D01*
X558777Y511504D01*
X558712Y511642D01*
X558666Y511800D01*
X558629Y511966D01*
X558611Y512142D01*
X558601Y512327D01*
Y512401D01*
X558611Y512456D01*
Y512521D01*
X558620Y512595D01*
X558657Y512770D01*
X558703Y512965D01*
X558777Y513168D01*
X558888Y513371D01*
X558953Y513473D01*
X559027Y513565D01*
X559036Y513575D01*
X559045Y513584D01*
X559073Y513612D01*
X559101Y513639D01*
X559147Y513686D01*
X559202Y513723D01*
X559332Y513824D01*
X559498Y513926D01*
X559702Y514019D01*
X559933Y514102D01*
X560192Y514157D01*
X560256Y513371D01*
X560247D01*
X560238Y513362D01*
X560182Y513353D01*
X560099Y513325D01*
X559997Y513288D01*
X559887Y513251D01*
X559776Y513196D01*
X559674Y513131D01*
X559591Y513066D01*
X559572Y513048D01*
X559535Y513011D01*
X559480Y512946D01*
X559415Y512854D01*
X559360Y512733D01*
X559304Y512604D01*
X559267Y512447D01*
X559249Y512280D01*
Y512216D01*
X559258Y512142D01*
X559276Y512058D01*
X559304Y511947D01*
X559341Y511837D01*
X559387Y511726D01*
X559461Y511615D01*
X559470Y511596D01*
X559507Y511550D01*
X559572Y511485D01*
X559665Y511402D01*
X559776Y511310D01*
X559905Y511208D01*
X560071Y511115D01*
X560256Y511023D01*
X560266D01*
X560284Y511014D01*
X560312Y511004D01*
X560349Y510986D01*
X560404Y510977D01*
X560469Y510958D01*
X560543Y510940D01*
X560635Y510921D01*
X560737Y510893D01*
X560848Y510875D01*
X560968Y510857D01*
X561098Y510847D01*
X561246Y510829D01*
X561394Y510820D01*
X561560Y510810D01*
X561726D01*
X561717Y510820D01*
X561662Y510857D01*
X561588Y510921D01*
X561495Y511004D01*
X561384Y511097D01*
X561283Y511217D01*
X561181Y511347D01*
X561088Y511494D01*
Y511504D01*
X561079Y511513D01*
X561051Y511568D01*
X561024Y511652D01*
X560978Y511763D01*
X560941Y511892D01*
X560913Y512040D01*
X560885Y512197D01*
X560876Y512364D01*
Y512438D01*
X560885Y512493D01*
X560894Y512567D01*
X560904Y512641D01*
X560922Y512733D01*
X560950Y512826D01*
X561014Y513038D01*
X561061Y513149D01*
X561125Y513260D01*
X561190Y513371D01*
X561264Y513492D01*
X561357Y513602D01*
X561458Y513704D01*
X561468Y513713D01*
X561486Y513732D01*
X561514Y513760D01*
X561560Y513787D01*
X561625Y513834D01*
X561689Y513880D01*
X561773Y513926D01*
X561865Y513982D01*
X561967Y514037D01*
X562078Y514083D01*
X562207Y514129D01*
X562337Y514176D01*
X562475Y514203D01*
X562632Y514231D01*
X562790Y514250D01*
X562956Y514259D01*
X562965D01*
X562984D01*
X563012D01*
X563058D01*
X563113Y514250D01*
D02*
G37*
G36*
X563049Y509331D02*
X563104Y509312D01*
X563178Y509285D01*
X563261Y509257D01*
X563363Y509220D01*
X563474Y509174D01*
X563594Y509118D01*
X563853Y508989D01*
X564112Y508822D01*
X564241Y508721D01*
X564371Y508619D01*
X564482Y508508D01*
X564593Y508379D01*
X564602Y508369D01*
X564620Y508351D01*
X564639Y508305D01*
X564676Y508258D01*
X564722Y508185D01*
X564768Y508111D01*
X564814Y508009D01*
X564861Y507907D01*
X564916Y507787D01*
X564962Y507658D01*
X565009Y507519D01*
X565055Y507371D01*
X565092Y507214D01*
X565110Y507047D01*
X565129Y506872D01*
X565138Y506687D01*
Y506585D01*
X565129Y506511D01*
Y506428D01*
X565120Y506326D01*
X565101Y506215D01*
X565083Y506086D01*
X565036Y505818D01*
X564962Y505540D01*
X564861Y505263D01*
X564796Y505133D01*
X564722Y505004D01*
X564713Y504995D01*
X564703Y504976D01*
X564676Y504939D01*
X564639Y504902D01*
X564602Y504847D01*
X564546Y504782D01*
X564482Y504708D01*
X564408Y504634D01*
X564324Y504560D01*
X564241Y504477D01*
X564029Y504311D01*
X563779Y504153D01*
X563502Y504015D01*
X563492D01*
X563465Y503996D01*
X563418Y503987D01*
X563363Y503959D01*
X563289Y503941D01*
X563196Y503913D01*
X563095Y503876D01*
X562984Y503848D01*
X562864Y503821D01*
X562725Y503784D01*
X562438Y503737D01*
X562115Y503700D01*
X561782Y503682D01*
X561773D01*
X561736D01*
X561680D01*
X561615Y503691D01*
X561523D01*
X561431Y503700D01*
X561310Y503710D01*
X561190Y503728D01*
X560922Y503774D01*
X560626Y503839D01*
X560330Y503932D01*
X560044Y504061D01*
X560034Y504070D01*
X560007Y504079D01*
X559970Y504098D01*
X559924Y504135D01*
X559859Y504172D01*
X559785Y504218D01*
X559618Y504338D01*
X559434Y504496D01*
X559249Y504680D01*
X559064Y504893D01*
X558907Y505143D01*
X558897Y505152D01*
X558888Y505180D01*
X558870Y505217D01*
X558842Y505263D01*
X558814Y505337D01*
X558786Y505411D01*
X558749Y505503D01*
X558712Y505605D01*
X558675Y505716D01*
X558638Y505836D01*
X558583Y506095D01*
X558537Y506391D01*
X558518Y506696D01*
Y506788D01*
X558527Y506853D01*
X558537Y506936D01*
X558546Y507038D01*
X558555Y507140D01*
X558583Y507260D01*
X558638Y507510D01*
X558722Y507787D01*
X558777Y507926D01*
X558842Y508055D01*
X558925Y508185D01*
X559008Y508314D01*
X559017Y508323D01*
X559027Y508342D01*
X559054Y508379D01*
X559101Y508425D01*
X559147Y508471D01*
X559212Y508536D01*
X559286Y508601D01*
X559360Y508675D01*
X559452Y508749D01*
X559563Y508822D01*
X559674Y508906D01*
X559794Y508980D01*
X559933Y509044D01*
X560071Y509118D01*
X560219Y509174D01*
X560386Y509229D01*
X560580Y508397D01*
X560571D01*
X560552Y508388D01*
X560515Y508369D01*
X560469Y508351D01*
X560414Y508332D01*
X560340Y508305D01*
X560192Y508231D01*
X560025Y508138D01*
X559859Y508027D01*
X559702Y507889D01*
X559563Y507741D01*
X559544Y507722D01*
X559507Y507667D01*
X559461Y507574D01*
X559397Y507454D01*
X559341Y507297D01*
X559286Y507121D01*
X559249Y506909D01*
X559239Y506677D01*
Y506604D01*
X559249Y506557D01*
Y506493D01*
X559258Y506419D01*
X559286Y506243D01*
X559323Y506049D01*
X559387Y505845D01*
X559480Y505633D01*
X559600Y505438D01*
Y505429D01*
X559618Y505420D01*
X559665Y505355D01*
X559739Y505272D01*
X559850Y505170D01*
X559988Y505050D01*
X560145Y504939D01*
X560340Y504838D01*
X560552Y504745D01*
X560561D01*
X560580Y504736D01*
X560608Y504727D01*
X560654Y504717D01*
X560709Y504699D01*
X560774Y504680D01*
X560931Y504653D01*
X561116Y504616D01*
X561320Y504579D01*
X561541Y504560D01*
X561782Y504551D01*
X561791D01*
X561819D01*
X561865D01*
X561921D01*
X561985Y504560D01*
X562068D01*
X562161Y504570D01*
X562263Y504579D01*
X562485Y504606D01*
X562725Y504653D01*
X562965Y504708D01*
X563206Y504782D01*
X563215D01*
X563233Y504791D01*
X563261Y504810D01*
X563307Y504828D01*
X563418Y504884D01*
X563548Y504967D01*
X563696Y505069D01*
X563853Y505198D01*
X563992Y505346D01*
X564121Y505522D01*
Y505531D01*
X564130Y505550D01*
X564149Y505577D01*
X564167Y505614D01*
X564186Y505660D01*
X564213Y505716D01*
X564269Y505845D01*
X564324Y506012D01*
X564371Y506197D01*
X564408Y506400D01*
X564417Y506613D01*
Y506677D01*
X564408Y506733D01*
Y506798D01*
X564398Y506862D01*
X564361Y507029D01*
X564315Y507223D01*
X564241Y507417D01*
X564140Y507621D01*
X564084Y507722D01*
X564010Y507815D01*
X564001Y507824D01*
X563992Y507833D01*
X563964Y507861D01*
X563936Y507898D01*
X563890Y507935D01*
X563834Y507981D01*
X563779Y508037D01*
X563705Y508083D01*
X563622Y508138D01*
X563529Y508203D01*
X563437Y508258D01*
X563326Y508314D01*
X563206Y508360D01*
X563076Y508406D01*
X562938Y508453D01*
X562790Y508490D01*
X563002Y509340D01*
X563012D01*
X563049Y509331D01*
D02*
G37*
G36*
X487883Y513923D02*
X487874Y513756D01*
X487864Y513571D01*
X487846Y513386D01*
X487818Y513202D01*
X487790Y513044D01*
Y513035D01*
X487781Y513017D01*
Y512989D01*
X487763Y512952D01*
X487735Y512850D01*
X487689Y512721D01*
X487624Y512573D01*
X487541Y512416D01*
X487448Y512258D01*
X487328Y512111D01*
X487319Y512101D01*
X487310Y512092D01*
X487282Y512064D01*
X487254Y512027D01*
X487162Y511935D01*
X487032Y511824D01*
X486875Y511704D01*
X486690Y511574D01*
X486478Y511454D01*
X486237Y511353D01*
X486228D01*
X486209Y511343D01*
X486172Y511325D01*
X486117Y511315D01*
X486052Y511288D01*
X485978Y511269D01*
X485895Y511251D01*
X485793Y511223D01*
X485692Y511195D01*
X485572Y511177D01*
X485313Y511131D01*
X485026Y511103D01*
X484712Y511094D01*
X484702D01*
X484684D01*
X484638D01*
X484591D01*
X484527Y511103D01*
X484453D01*
X484277Y511112D01*
X484074Y511140D01*
X483861Y511168D01*
X483639Y511214D01*
X483417Y511269D01*
X483408D01*
X483390Y511278D01*
X483362Y511288D01*
X483325Y511297D01*
X483223Y511334D01*
X483094Y511390D01*
X482946Y511445D01*
X482798Y511519D01*
X482641Y511611D01*
X482493Y511704D01*
X482474Y511713D01*
X482428Y511750D01*
X482363Y511805D01*
X482280Y511880D01*
X482188Y511963D01*
X482095Y512064D01*
X481993Y512166D01*
X481910Y512286D01*
X481901Y512305D01*
X481873Y512342D01*
X481836Y512407D01*
X481790Y512499D01*
X481735Y512610D01*
X481688Y512739D01*
X481633Y512887D01*
X481587Y513054D01*
Y513072D01*
X481577Y513100D01*
X481568Y513128D01*
X481559Y513220D01*
X481540Y513349D01*
X481522Y513497D01*
X481503Y513673D01*
X481494Y513867D01*
X481485Y514080D01*
Y516382D01*
X487883D01*
Y513923D01*
D02*
G37*
G36*
X481661Y510354D02*
X481744Y510345D01*
X481836Y510326D01*
X481929Y510308D01*
X482030Y510271D01*
X482040D01*
X482049Y510261D01*
X482104Y510243D01*
X482188Y510206D01*
X482299Y510150D01*
X482428Y510077D01*
X482576Y509984D01*
X482724Y509882D01*
X482881Y509753D01*
X482890D01*
X482900Y509734D01*
X482955Y509688D01*
X483038Y509605D01*
X483158Y509485D01*
X483297Y509346D01*
X483464Y509170D01*
X483648Y508958D01*
X483843Y508727D01*
X483852Y508717D01*
X483880Y508680D01*
X483926Y508625D01*
X483981Y508560D01*
X484055Y508477D01*
X484138Y508375D01*
X484231Y508274D01*
X484333Y508153D01*
X484555Y507922D01*
X484776Y507691D01*
X484887Y507580D01*
X484998Y507479D01*
X485100Y507386D01*
X485202Y507312D01*
X485211D01*
X485220Y507294D01*
X485248Y507275D01*
X485285Y507257D01*
X485387Y507192D01*
X485507Y507118D01*
X485655Y507053D01*
X485812Y506988D01*
X485988Y506952D01*
X486154Y506933D01*
X486163D01*
X486172D01*
X486228Y506942D01*
X486320Y506952D01*
X486422Y506979D01*
X486552Y507016D01*
X486681Y507081D01*
X486810Y507164D01*
X486940Y507275D01*
X486958Y507294D01*
X486995Y507340D01*
X487042Y507405D01*
X487106Y507506D01*
X487162Y507636D01*
X487217Y507784D01*
X487254Y507959D01*
X487263Y508153D01*
Y508209D01*
X487254Y508246D01*
X487245Y508357D01*
X487217Y508486D01*
X487180Y508625D01*
X487116Y508782D01*
X487032Y508930D01*
X486921Y509069D01*
X486903Y509087D01*
X486857Y509124D01*
X486783Y509180D01*
X486672Y509235D01*
X486542Y509300D01*
X486376Y509355D01*
X486191Y509392D01*
X485978Y509411D01*
X486062Y510215D01*
X486071D01*
X486099Y510206D01*
X486145D01*
X486209Y510197D01*
X486283Y510178D01*
X486367Y510160D01*
X486468Y510132D01*
X486570Y510104D01*
X486792Y510030D01*
X487014Y509919D01*
X487125Y509855D01*
X487236Y509771D01*
X487337Y509688D01*
X487430Y509596D01*
X487439Y509587D01*
X487448Y509568D01*
X487476Y509540D01*
X487504Y509494D01*
X487541Y509439D01*
X487578Y509374D01*
X487624Y509300D01*
X487670Y509207D01*
X487717Y509106D01*
X487763Y508995D01*
X487800Y508875D01*
X487837Y508745D01*
X487864Y508606D01*
X487892Y508459D01*
X487901Y508301D01*
X487911Y508135D01*
Y508042D01*
X487901Y507978D01*
X487892Y507904D01*
X487883Y507811D01*
X487864Y507710D01*
X487846Y507608D01*
X487781Y507368D01*
X487689Y507127D01*
X487633Y507007D01*
X487569Y506887D01*
X487485Y506776D01*
X487393Y506674D01*
X487384Y506665D01*
X487374Y506646D01*
X487337Y506628D01*
X487300Y506591D01*
X487254Y506545D01*
X487190Y506498D01*
X487125Y506452D01*
X487042Y506397D01*
X486866Y506304D01*
X486644Y506212D01*
X486533Y506175D01*
X486404Y506156D01*
X486274Y506138D01*
X486136Y506129D01*
X486117D01*
X486071D01*
X485997Y506138D01*
X485895Y506147D01*
X485784Y506166D01*
X485655Y506203D01*
X485516Y506240D01*
X485377Y506295D01*
X485359Y506304D01*
X485313Y506323D01*
X485239Y506360D01*
X485137Y506415D01*
X485026Y506489D01*
X484887Y506582D01*
X484749Y506693D01*
X484591Y506822D01*
X484573Y506841D01*
X484518Y506887D01*
X484471Y506933D01*
X484425Y506979D01*
X484370Y507035D01*
X484296Y507109D01*
X484222Y507183D01*
X484138Y507275D01*
X484046Y507368D01*
X483944Y507479D01*
X483843Y507599D01*
X483722Y507728D01*
X483602Y507876D01*
X483473Y508024D01*
X483464Y508033D01*
X483445Y508052D01*
X483417Y508089D01*
X483380Y508135D01*
X483325Y508190D01*
X483269Y508255D01*
X483149Y508403D01*
X483010Y508560D01*
X482872Y508708D01*
X482752Y508838D01*
X482705Y508893D01*
X482659Y508939D01*
X482650Y508949D01*
X482622Y508976D01*
X482585Y509013D01*
X482530Y509060D01*
X482465Y509106D01*
X482400Y509161D01*
X482243Y509272D01*
Y506119D01*
X481485D01*
Y510363D01*
X481494D01*
X481531D01*
X481587D01*
X481661Y510354D01*
D02*
G37*
G36*
X947464Y671047D02*
X947547D01*
X947639Y671038D01*
X947750Y671028D01*
X947981Y670991D01*
X948222Y670954D01*
X948462Y670890D01*
X948693Y670806D01*
X948703D01*
X948721Y670797D01*
X948749Y670779D01*
X948786Y670760D01*
X948897Y670705D01*
X949026Y670621D01*
X949174Y670510D01*
X949331Y670381D01*
X949479Y670224D01*
X949618Y670048D01*
Y670039D01*
X949637Y670021D01*
X949646Y669993D01*
X949673Y669956D01*
X949692Y669910D01*
X949720Y669854D01*
X949784Y669715D01*
X949849Y669540D01*
X949905Y669345D01*
X949942Y669124D01*
X949960Y668893D01*
X949165Y668819D01*
Y668828D01*
Y668837D01*
X949156Y668865D01*
Y668902D01*
X949137Y668985D01*
X949109Y669105D01*
X949072Y669225D01*
X949035Y669364D01*
X948971Y669493D01*
X948906Y669614D01*
X948897Y669623D01*
X948869Y669660D01*
X948823Y669725D01*
X948749Y669789D01*
X948656Y669873D01*
X948555Y669956D01*
X948416Y670039D01*
X948268Y670113D01*
X948259D01*
X948250Y670122D01*
X948222Y670131D01*
X948194Y670141D01*
X948102Y670168D01*
X947981Y670205D01*
X947834Y670242D01*
X947667Y670270D01*
X947482Y670289D01*
X947279Y670298D01*
X947196D01*
X947103Y670289D01*
X946992Y670279D01*
X946863Y670261D01*
X946715Y670242D01*
X946567Y670205D01*
X946428Y670159D01*
X946410Y670150D01*
X946364Y670131D01*
X946299Y670094D01*
X946216Y670058D01*
X946132Y669993D01*
X946040Y669928D01*
X945947Y669854D01*
X945873Y669762D01*
X945864Y669752D01*
X945846Y669715D01*
X945818Y669669D01*
X945781Y669595D01*
X945744Y669521D01*
X945716Y669429D01*
X945698Y669327D01*
X945689Y669216D01*
Y669207D01*
Y669161D01*
X945698Y669105D01*
X945707Y669031D01*
X945735Y668957D01*
X945763Y668865D01*
X945809Y668772D01*
X945873Y668689D01*
X945883Y668680D01*
X945910Y668652D01*
X945947Y668615D01*
X946012Y668560D01*
X946086Y668504D01*
X946188Y668439D01*
X946308Y668375D01*
X946447Y668319D01*
X946456Y668310D01*
X946502Y668301D01*
X946576Y668273D01*
X946622Y668264D01*
X946687Y668245D01*
X946752Y668218D01*
X946835Y668199D01*
X946927Y668171D01*
X947038Y668144D01*
X947149Y668116D01*
X947279Y668079D01*
X947427Y668042D01*
X947584Y668005D01*
X947593D01*
X947621Y667996D01*
X947667Y667986D01*
X947723Y667968D01*
X947797Y667950D01*
X947880Y667931D01*
X948065Y667876D01*
X948268Y667811D01*
X948481Y667746D01*
X948666Y667681D01*
X948749Y667644D01*
X948823Y667607D01*
X948832D01*
X948841Y667598D01*
X948897Y667561D01*
X948980Y667515D01*
X949072Y667441D01*
X949183Y667358D01*
X949294Y667256D01*
X949405Y667136D01*
X949498Y667006D01*
X949507Y666988D01*
X949535Y666942D01*
X949572Y666868D01*
X949609Y666775D01*
X949646Y666655D01*
X949683Y666516D01*
X949710Y666368D01*
X949720Y666211D01*
Y666202D01*
Y666193D01*
Y666165D01*
Y666128D01*
X949701Y666036D01*
X949683Y665915D01*
X949655Y665777D01*
X949609Y665620D01*
X949544Y665462D01*
X949452Y665305D01*
Y665296D01*
X949442Y665287D01*
X949396Y665231D01*
X949331Y665157D01*
X949248Y665065D01*
X949137Y664963D01*
X948998Y664852D01*
X948832Y664751D01*
X948647Y664658D01*
X948638D01*
X948620Y664649D01*
X948592Y664640D01*
X948555Y664621D01*
X948509Y664603D01*
X948444Y664584D01*
X948305Y664547D01*
X948129Y664510D01*
X947926Y664473D01*
X947713Y664445D01*
X947473Y664436D01*
X947353D01*
X947288Y664445D01*
X947223D01*
X947048Y664464D01*
X946854Y664492D01*
X946650Y664538D01*
X946428Y664593D01*
X946225Y664667D01*
X946216D01*
X946197Y664677D01*
X946169Y664695D01*
X946132Y664714D01*
X946040Y664760D01*
X945920Y664843D01*
X945781Y664935D01*
X945642Y665056D01*
X945513Y665194D01*
X945393Y665351D01*
Y665361D01*
X945384Y665370D01*
X945365Y665398D01*
X945347Y665425D01*
X945300Y665518D01*
X945245Y665638D01*
X945180Y665786D01*
X945134Y665962D01*
X945088Y666147D01*
X945069Y666350D01*
X945883Y666415D01*
Y666405D01*
Y666387D01*
X945892Y666359D01*
X945901Y666313D01*
X945929Y666211D01*
X945966Y666073D01*
X946021Y665925D01*
X946105Y665777D01*
X946206Y665638D01*
X946336Y665509D01*
X946354Y665499D01*
X946401Y665462D01*
X946493Y665407D01*
X946613Y665351D01*
X946770Y665296D01*
X946955Y665240D01*
X947186Y665203D01*
X947445Y665194D01*
X947575D01*
X947630Y665203D01*
X947704Y665213D01*
X947871Y665231D01*
X948055Y665268D01*
X948240Y665314D01*
X948416Y665388D01*
X948490Y665435D01*
X948564Y665481D01*
X948583Y665490D01*
X948620Y665527D01*
X948675Y665592D01*
X948730Y665666D01*
X948795Y665768D01*
X948851Y665878D01*
X948888Y666008D01*
X948906Y666156D01*
Y666174D01*
Y666211D01*
X948897Y666276D01*
X948878Y666350D01*
X948851Y666442D01*
X948804Y666535D01*
X948749Y666627D01*
X948666Y666720D01*
X948656Y666729D01*
X948610Y666757D01*
X948573Y666785D01*
X948536Y666803D01*
X948481Y666831D01*
X948416Y666868D01*
X948333Y666896D01*
X948240Y666932D01*
X948139Y666969D01*
X948018Y667016D01*
X947889Y667053D01*
X947741Y667099D01*
X947575Y667136D01*
X947390Y667182D01*
X947381D01*
X947344Y667191D01*
X947288Y667201D01*
X947223Y667219D01*
X947140Y667238D01*
X947038Y667265D01*
X946937Y667293D01*
X946826Y667321D01*
X946585Y667385D01*
X946354Y667450D01*
X946243Y667487D01*
X946142Y667524D01*
X946049Y667552D01*
X945975Y667589D01*
X945966D01*
X945947Y667598D01*
X945920Y667617D01*
X945883Y667635D01*
X945781Y667691D01*
X945661Y667765D01*
X945522Y667866D01*
X945384Y667977D01*
X945254Y668107D01*
X945143Y668245D01*
X945134Y668264D01*
X945097Y668310D01*
X945060Y668393D01*
X945004Y668504D01*
X944958Y668634D01*
X944912Y668791D01*
X944884Y668967D01*
X944875Y669151D01*
Y669161D01*
Y669170D01*
Y669198D01*
Y669235D01*
X944893Y669336D01*
X944912Y669466D01*
X944949Y669614D01*
X944995Y669771D01*
X945069Y669937D01*
X945171Y670113D01*
Y670122D01*
X945180Y670131D01*
X945226Y670187D01*
X945291Y670270D01*
X945384Y670363D01*
X945504Y670473D01*
X945652Y670594D01*
X945818Y670705D01*
X946012Y670806D01*
X946021D01*
X946040Y670816D01*
X946068Y670825D01*
X946105Y670843D01*
X946160Y670862D01*
X946225Y670890D01*
X946373Y670927D01*
X946548Y670973D01*
X946761Y671019D01*
X946992Y671047D01*
X947242Y671056D01*
X947390D01*
X947464Y671047D01*
D02*
G37*
G36*
X944302Y664547D02*
X943423D01*
X942471Y668745D01*
Y668754D01*
X942462Y668772D01*
X942453Y668809D01*
X942443Y668856D01*
X942434Y668920D01*
X942416Y668985D01*
X942397Y669068D01*
X942379Y669161D01*
X942333Y669355D01*
X942286Y669577D01*
X942240Y669817D01*
X942194Y670058D01*
Y670048D01*
X942185Y670011D01*
X942166Y669965D01*
X942157Y669891D01*
X942138Y669817D01*
X942111Y669725D01*
X942064Y669521D01*
X942009Y669318D01*
X941990Y669216D01*
X941963Y669124D01*
X941944Y669040D01*
X941926Y668967D01*
X941907Y668911D01*
X941898Y668874D01*
X940687Y664547D01*
X939660D01*
X938754Y667792D01*
Y667802D01*
X938736Y667848D01*
X938717Y667913D01*
X938699Y667996D01*
X938671Y668107D01*
X938634Y668227D01*
X938597Y668365D01*
X938560Y668523D01*
X938514Y668698D01*
X938477Y668874D01*
X938394Y669253D01*
X938311Y669651D01*
X938246Y670058D01*
Y670048D01*
X938237Y670030D01*
Y669993D01*
X938218Y669947D01*
X938209Y669891D01*
X938190Y669826D01*
X938181Y669743D01*
X938153Y669651D01*
X938107Y669447D01*
X938052Y669207D01*
X937996Y668948D01*
X937922Y668661D01*
X936924Y664547D01*
X936064D01*
X937821Y670945D01*
X938653D01*
X939993Y666073D01*
Y666063D01*
X940003Y666045D01*
X940012Y666017D01*
X940021Y665971D01*
X940049Y665869D01*
X940077Y665749D01*
X940114Y665620D01*
X940151Y665499D01*
X940178Y665398D01*
X940188Y665351D01*
X940197Y665324D01*
Y665333D01*
X940206Y665342D01*
X940215Y665398D01*
X940234Y665481D01*
X940261Y665583D01*
X940289Y665694D01*
X940326Y665823D01*
X940354Y665952D01*
X940391Y666073D01*
X941741Y670945D01*
X942628D01*
X944302Y664547D01*
D02*
G37*
G36*
X933420Y665943D02*
X933429Y665952D01*
X933475Y665989D01*
X933531Y666045D01*
X933623Y666110D01*
X933725Y666193D01*
X933854Y666285D01*
X934002Y666387D01*
X934169Y666489D01*
X934178D01*
X934187Y666498D01*
X934243Y666535D01*
X934335Y666581D01*
X934446Y666637D01*
X934575Y666701D01*
X934714Y666766D01*
X934853Y666831D01*
X934991Y666886D01*
Y666128D01*
X934982D01*
X934964Y666110D01*
X934927Y666100D01*
X934881Y666073D01*
X934825Y666045D01*
X934760Y666008D01*
X934603Y665915D01*
X934418Y665814D01*
X934233Y665684D01*
X934039Y665536D01*
X933845Y665379D01*
X933836Y665370D01*
X933827Y665361D01*
X933799Y665333D01*
X933762Y665305D01*
X933679Y665213D01*
X933568Y665102D01*
X933457Y664972D01*
X933336Y664825D01*
X933235Y664677D01*
X933142Y664519D01*
X932634D01*
Y670945D01*
X933420D01*
Y665943D01*
D02*
G37*
G36*
X485238Y332262D02*
X485229Y332188D01*
Y332105D01*
X485220Y331911D01*
X485192Y331707D01*
X485164Y331485D01*
X485118Y331282D01*
X485090Y331180D01*
X485063Y331097D01*
Y331088D01*
X485053Y331078D01*
X485026Y331023D01*
X484989Y330940D01*
X484924Y330838D01*
X484841Y330727D01*
X484730Y330607D01*
X484600Y330496D01*
X484453Y330385D01*
X484443D01*
X484434Y330376D01*
X484379Y330339D01*
X484286Y330302D01*
X484166Y330246D01*
X484027Y330200D01*
X483861Y330154D01*
X483685Y330126D01*
X483491Y330117D01*
X483482D01*
X483463D01*
X483426D01*
X483380Y330126D01*
X483315D01*
X483251Y330135D01*
X483093Y330173D01*
X482909Y330228D01*
X482714Y330302D01*
X482520Y330413D01*
X482428Y330487D01*
X482335Y330561D01*
X482326Y330570D01*
X482317Y330579D01*
X482289Y330607D01*
X482261Y330644D01*
X482224Y330690D01*
X482187Y330746D01*
X482141Y330820D01*
X482086Y330894D01*
X482039Y330986D01*
X481993Y331088D01*
X481938Y331199D01*
X481892Y331319D01*
X481855Y331458D01*
X481808Y331596D01*
X481781Y331754D01*
X481753Y331920D01*
X481744Y331901D01*
X481725Y331864D01*
X481688Y331809D01*
X481651Y331735D01*
X481549Y331569D01*
X481485Y331485D01*
X481429Y331411D01*
X481411Y331393D01*
X481365Y331347D01*
X481291Y331273D01*
X481198Y331180D01*
X481069Y331078D01*
X480930Y330958D01*
X480764Y330838D01*
X480579Y330709D01*
X478840Y329608D01*
Y330662D01*
X480172Y331504D01*
X480181D01*
X480200Y331522D01*
X480227Y331541D01*
X480264Y331569D01*
X480366Y331633D01*
X480495Y331716D01*
X480634Y331818D01*
X480782Y331920D01*
X480921Y332022D01*
X481050Y332114D01*
X481059Y332123D01*
X481096Y332151D01*
X481152Y332197D01*
X481217Y332262D01*
X481355Y332401D01*
X481420Y332475D01*
X481475Y332549D01*
X481485Y332558D01*
X481494Y332576D01*
X481512Y332613D01*
X481540Y332669D01*
X481568Y332724D01*
X481596Y332789D01*
X481642Y332937D01*
Y332946D01*
X481651Y332965D01*
Y333002D01*
X481660Y333048D01*
X481670Y333113D01*
Y333186D01*
X481679Y333288D01*
Y334379D01*
X478840D01*
Y335230D01*
X485238D01*
Y332262D01*
D02*
G37*
G36*
Y326446D02*
Y325808D01*
X481096D01*
Y324939D01*
X480375D01*
Y325808D01*
X478840D01*
Y326594D01*
X480375D01*
Y329377D01*
X481096D01*
X485238Y326446D01*
D02*
G37*
G36*
X523443Y634911D02*
X517803D01*
Y631759D01*
X517045D01*
Y635762D01*
X523443D01*
Y634911D01*
D02*
G37*
G36*
X521862Y630464D02*
X521880Y630446D01*
X521890Y630409D01*
X521917Y630363D01*
X521945Y630307D01*
X521982Y630243D01*
X522075Y630085D01*
X522176Y629900D01*
X522306Y629715D01*
X522454Y629521D01*
X522611Y629327D01*
X522620Y629318D01*
X522629Y629309D01*
X522657Y629281D01*
X522685Y629244D01*
X522777Y629161D01*
X522888Y629050D01*
X523018Y628939D01*
X523166Y628819D01*
X523313Y628717D01*
X523471Y628624D01*
Y628116D01*
X517045D01*
Y628902D01*
X522047D01*
X522038Y628911D01*
X522001Y628957D01*
X521945Y629013D01*
X521880Y629105D01*
X521797Y629207D01*
X521705Y629336D01*
X521603Y629484D01*
X521501Y629651D01*
Y629660D01*
X521492Y629669D01*
X521455Y629725D01*
X521409Y629817D01*
X521353Y629928D01*
X521289Y630057D01*
X521224Y630196D01*
X521159Y630335D01*
X521104Y630474D01*
X521862D01*
Y630464D01*
D02*
G37*
G36*
X817096Y618481D02*
X817189D01*
X817281Y618472D01*
X817402Y618462D01*
X817522Y618444D01*
X817790Y618398D01*
X818086Y618333D01*
X818382Y618240D01*
X818668Y618111D01*
X818678Y618102D01*
X818705Y618092D01*
X818742Y618074D01*
X818789Y618037D01*
X818853Y618000D01*
X818927Y617954D01*
X819094Y617834D01*
X819278Y617677D01*
X819463Y617492D01*
X819648Y617279D01*
X819806Y617029D01*
X819815Y617020D01*
X819824Y616992D01*
X819843Y616955D01*
X819870Y616909D01*
X819898Y616835D01*
X819926Y616761D01*
X819963Y616669D01*
X820000Y616567D01*
X820037Y616456D01*
X820074Y616336D01*
X820129Y616077D01*
X820175Y615781D01*
X820194Y615476D01*
Y615384D01*
X820185Y615319D01*
X820175Y615236D01*
X820166Y615134D01*
X820157Y615032D01*
X820129Y614912D01*
X820074Y614662D01*
X819990Y614385D01*
X819935Y614246D01*
X819870Y614117D01*
X819787Y613988D01*
X819704Y613858D01*
X819695Y613849D01*
X819685Y613830D01*
X819658Y613793D01*
X819611Y613747D01*
X819565Y613701D01*
X819500Y613636D01*
X819426Y613571D01*
X819352Y613498D01*
X819260Y613424D01*
X819149Y613349D01*
X819038Y613266D01*
X818918Y613192D01*
X818779Y613128D01*
X818641Y613054D01*
X818493Y612998D01*
X818326Y612943D01*
X818132Y613775D01*
X818141D01*
X818160Y613784D01*
X818197Y613803D01*
X818243Y613821D01*
X818298Y613839D01*
X818372Y613867D01*
X818520Y613941D01*
X818687Y614034D01*
X818853Y614145D01*
X819010Y614283D01*
X819149Y614431D01*
X819168Y614450D01*
X819204Y614505D01*
X819251Y614598D01*
X819315Y614718D01*
X819371Y614875D01*
X819426Y615051D01*
X819463Y615263D01*
X819473Y615494D01*
Y615569D01*
X819463Y615615D01*
Y615679D01*
X819454Y615753D01*
X819426Y615929D01*
X819389Y616123D01*
X819325Y616327D01*
X819232Y616539D01*
X819112Y616733D01*
Y616743D01*
X819094Y616752D01*
X819047Y616817D01*
X818973Y616900D01*
X818862Y617001D01*
X818724Y617122D01*
X818567Y617233D01*
X818372Y617334D01*
X818160Y617427D01*
X818150D01*
X818132Y617436D01*
X818104Y617445D01*
X818058Y617455D01*
X818003Y617473D01*
X817938Y617492D01*
X817781Y617519D01*
X817596Y617556D01*
X817392Y617593D01*
X817170Y617612D01*
X816930Y617621D01*
X816921D01*
X816893D01*
X816847D01*
X816791D01*
X816727Y617612D01*
X816644D01*
X816551Y617603D01*
X816449Y617593D01*
X816227Y617565D01*
X815987Y617519D01*
X815747Y617464D01*
X815506Y617390D01*
X815497D01*
X815479Y617381D01*
X815451Y617362D01*
X815405Y617344D01*
X815294Y617288D01*
X815164Y617205D01*
X815016Y617103D01*
X814859Y616974D01*
X814720Y616826D01*
X814591Y616650D01*
Y616641D01*
X814582Y616623D01*
X814563Y616595D01*
X814545Y616558D01*
X814526Y616511D01*
X814499Y616456D01*
X814443Y616327D01*
X814388Y616160D01*
X814341Y615975D01*
X814304Y615772D01*
X814295Y615559D01*
Y615494D01*
X814304Y615439D01*
Y615374D01*
X814314Y615310D01*
X814351Y615143D01*
X814397Y614949D01*
X814471Y614755D01*
X814573Y614552D01*
X814628Y614450D01*
X814702Y614357D01*
X814711Y614348D01*
X814720Y614339D01*
X814748Y614311D01*
X814776Y614274D01*
X814822Y614237D01*
X814878Y614191D01*
X814933Y614135D01*
X815007Y614089D01*
X815090Y614034D01*
X815183Y613969D01*
X815275Y613913D01*
X815386Y613858D01*
X815506Y613812D01*
X815636Y613766D01*
X815774Y613719D01*
X815922Y613682D01*
X815710Y612832D01*
X815701D01*
X815664Y612841D01*
X815608Y612859D01*
X815534Y612887D01*
X815451Y612915D01*
X815349Y612952D01*
X815238Y612998D01*
X815118Y613054D01*
X814859Y613183D01*
X814600Y613349D01*
X814471Y613451D01*
X814341Y613553D01*
X814230Y613664D01*
X814119Y613793D01*
X814110Y613803D01*
X814092Y613821D01*
X814073Y613867D01*
X814036Y613913D01*
X813990Y613988D01*
X813944Y614061D01*
X813898Y614163D01*
X813851Y614265D01*
X813796Y614385D01*
X813750Y614515D01*
X813703Y614653D01*
X813657Y614801D01*
X813620Y614958D01*
X813602Y615125D01*
X813583Y615300D01*
X813574Y615485D01*
Y615587D01*
X813583Y615661D01*
Y615744D01*
X813593Y615846D01*
X813611Y615957D01*
X813629Y616086D01*
X813676Y616354D01*
X813750Y616632D01*
X813851Y616909D01*
X813916Y617038D01*
X813990Y617168D01*
X813999Y617177D01*
X814008Y617196D01*
X814036Y617233D01*
X814073Y617270D01*
X814110Y617325D01*
X814166Y617390D01*
X814230Y617464D01*
X814304Y617538D01*
X814388Y617612D01*
X814471Y617695D01*
X814683Y617861D01*
X814933Y618019D01*
X815210Y618157D01*
X815220D01*
X815247Y618176D01*
X815294Y618185D01*
X815349Y618213D01*
X815423Y618231D01*
X815516Y618259D01*
X815617Y618296D01*
X815728Y618324D01*
X815848Y618351D01*
X815987Y618388D01*
X816274Y618435D01*
X816597Y618472D01*
X816930Y618490D01*
X816939D01*
X816976D01*
X817032D01*
X817096Y618481D01*
D02*
G37*
G36*
X815479Y611315D02*
X815469D01*
X815451Y611306D01*
X815414Y611297D01*
X815368Y611288D01*
X815312Y611278D01*
X815247Y611260D01*
X815109Y611214D01*
X814942Y611149D01*
X814785Y611066D01*
X814637Y610973D01*
X814508Y610863D01*
X814499Y610844D01*
X814462Y610807D01*
X814415Y610733D01*
X814369Y610641D01*
X814314Y610530D01*
X814267Y610391D01*
X814230Y610234D01*
X814221Y610067D01*
Y610012D01*
X814230Y609975D01*
X814240Y609873D01*
X814267Y609744D01*
X814314Y609596D01*
X814378Y609439D01*
X814471Y609282D01*
X814600Y609133D01*
X814619Y609115D01*
X814674Y609069D01*
X814757Y609013D01*
X814868Y608939D01*
X815007Y608865D01*
X815164Y608810D01*
X815349Y608764D01*
X815553Y608745D01*
X815562D01*
X815580D01*
X815608D01*
X815645Y608755D01*
X815747Y608764D01*
X815867Y608791D01*
X816015Y608828D01*
X816163Y608893D01*
X816311Y608986D01*
X816449Y609106D01*
X816468Y609124D01*
X816505Y609170D01*
X816560Y609244D01*
X816625Y609346D01*
X816690Y609476D01*
X816745Y609633D01*
X816782Y609809D01*
X816801Y610003D01*
Y610086D01*
X816791Y610150D01*
X816782Y610234D01*
X816764Y610326D01*
X816745Y610437D01*
X816718Y610557D01*
X817411Y610465D01*
Y610419D01*
X817402Y610382D01*
Y610261D01*
X817420Y610160D01*
X817439Y610040D01*
X817466Y609901D01*
X817513Y609744D01*
X817577Y609596D01*
X817661Y609439D01*
Y609429D01*
X817670Y609420D01*
X817707Y609374D01*
X817772Y609309D01*
X817855Y609235D01*
X817975Y609161D01*
X818114Y609096D01*
X818271Y609050D01*
X818363Y609032D01*
X818465D01*
X818474D01*
X818483D01*
X818539D01*
X818613Y609050D01*
X818715Y609069D01*
X818826Y609106D01*
X818946Y609152D01*
X819066Y609226D01*
X819177Y609328D01*
X819186Y609337D01*
X819223Y609383D01*
X819269Y609448D01*
X819325Y609531D01*
X819371Y609642D01*
X819417Y609771D01*
X819454Y609919D01*
X819463Y610086D01*
Y610160D01*
X819445Y610243D01*
X819426Y610354D01*
X819389Y610474D01*
X819343Y610594D01*
X819269Y610724D01*
X819177Y610844D01*
X819168Y610853D01*
X819121Y610890D01*
X819057Y610946D01*
X818964Y611010D01*
X818844Y611075D01*
X818696Y611140D01*
X818520Y611195D01*
X818317Y611232D01*
X818456Y612018D01*
X818465D01*
X818493Y612009D01*
X818530Y612000D01*
X818585Y611990D01*
X818650Y611972D01*
X818724Y611944D01*
X818899Y611889D01*
X819103Y611796D01*
X819306Y611685D01*
X819500Y611547D01*
X819676Y611371D01*
X819685Y611362D01*
X819695Y611343D01*
X819713Y611315D01*
X819741Y611278D01*
X819778Y611232D01*
X819815Y611168D01*
X819852Y611103D01*
X819898Y611020D01*
X819972Y610835D01*
X820046Y610622D01*
X820092Y610372D01*
X820111Y610243D01*
Y610012D01*
X820101Y609910D01*
X820083Y609790D01*
X820055Y609642D01*
X820009Y609476D01*
X819953Y609309D01*
X819880Y609143D01*
Y609133D01*
X819870Y609124D01*
X819843Y609069D01*
X819787Y608986D01*
X819722Y608893D01*
X819630Y608782D01*
X819528Y608671D01*
X819408Y608560D01*
X819269Y608468D01*
X819251Y608459D01*
X819204Y608431D01*
X819121Y608394D01*
X819020Y608348D01*
X818899Y608301D01*
X818761Y608264D01*
X818604Y608237D01*
X818446Y608228D01*
X818428D01*
X818372D01*
X818298Y608237D01*
X818197Y608255D01*
X818077Y608283D01*
X817947Y608329D01*
X817818Y608385D01*
X817688Y608459D01*
X817670Y608468D01*
X817633Y608496D01*
X817568Y608551D01*
X817494Y608625D01*
X817411Y608717D01*
X817318Y608828D01*
X817235Y608958D01*
X817152Y609115D01*
Y609106D01*
X817143Y609087D01*
X817133Y609060D01*
X817124Y609023D01*
X817087Y608921D01*
X817032Y608791D01*
X816958Y608643D01*
X816865Y608496D01*
X816745Y608357D01*
X816607Y608228D01*
X816588Y608218D01*
X816533Y608181D01*
X816440Y608126D01*
X816320Y608070D01*
X816172Y608015D01*
X815996Y607959D01*
X815793Y607922D01*
X815571Y607913D01*
X815562D01*
X815534D01*
X815488D01*
X815432Y607922D01*
X815358Y607932D01*
X815275Y607950D01*
X815183Y607969D01*
X815081Y607987D01*
X814859Y608061D01*
X814739Y608116D01*
X814628Y608172D01*
X814508Y608246D01*
X814388Y608329D01*
X814267Y608422D01*
X814156Y608533D01*
X814147Y608542D01*
X814129Y608560D01*
X814101Y608597D01*
X814064Y608643D01*
X814018Y608699D01*
X813971Y608773D01*
X813916Y608856D01*
X813870Y608958D01*
X813814Y609060D01*
X813759Y609180D01*
X813713Y609300D01*
X813666Y609439D01*
X813629Y609587D01*
X813602Y609744D01*
X813583Y609901D01*
X813574Y610077D01*
Y610160D01*
X813583Y610215D01*
X813593Y610289D01*
X813602Y610372D01*
X813620Y610465D01*
X813639Y610567D01*
X813694Y610788D01*
X813787Y611020D01*
X813842Y611140D01*
X813907Y611251D01*
X813990Y611362D01*
X814073Y611473D01*
X814082Y611482D01*
X814101Y611500D01*
X814129Y611528D01*
X814166Y611556D01*
X814212Y611602D01*
X814277Y611648D01*
X814341Y611704D01*
X814425Y611759D01*
X814517Y611815D01*
X814610Y611870D01*
X814831Y611972D01*
X815090Y612055D01*
X815229Y612083D01*
X815377Y612101D01*
X815479Y611315D01*
D02*
G37*
%LPC*%
G36*
X688810Y154355D02*
X687330D01*
Y149473D01*
X688847D01*
X688912Y149482D01*
X689050Y149492D01*
X689207Y149501D01*
X689374Y149519D01*
X689540Y149547D01*
X689679Y149584D01*
X689697Y149593D01*
X689744Y149603D01*
X689808Y149630D01*
X689892Y149667D01*
X689984Y149723D01*
X690076Y149778D01*
X690169Y149843D01*
X690261Y149917D01*
X690271Y149936D01*
X690308Y149972D01*
X690363Y150037D01*
X690428Y150130D01*
X690502Y150250D01*
X690585Y150388D01*
X690659Y150546D01*
X690724Y150721D01*
Y150731D01*
X690733Y150749D01*
X690742Y150777D01*
X690751Y150814D01*
X690761Y150860D01*
X690779Y150925D01*
X690798Y150990D01*
X690816Y151063D01*
X690844Y151248D01*
X690872Y151461D01*
X690890Y151701D01*
X690899Y151960D01*
Y151969D01*
Y152007D01*
Y152053D01*
X690890Y152127D01*
Y152210D01*
X690881Y152302D01*
X690872Y152413D01*
X690862Y152524D01*
X690816Y152774D01*
X690761Y153033D01*
X690677Y153273D01*
X690622Y153393D01*
X690566Y153495D01*
Y153504D01*
X690548Y153523D01*
X690529Y153551D01*
X690511Y153588D01*
X690437Y153680D01*
X690344Y153791D01*
X690224Y153911D01*
X690086Y154031D01*
X689929Y154133D01*
X689762Y154216D01*
X689744Y154225D01*
X689697Y154235D01*
X689614Y154262D01*
X689494Y154290D01*
X689346Y154309D01*
X689161Y154336D01*
X689050Y154346D01*
X688930D01*
X688810Y154355D01*
D02*
G37*
G36*
X211495Y562344D02*
X211421D01*
X211329Y562334D01*
X211227Y562316D01*
X211097Y562298D01*
X210968Y562261D01*
X210829Y562214D01*
X210690Y562150D01*
X210672Y562140D01*
X210635Y562113D01*
X210570Y562066D01*
X210496Y562002D01*
X210413Y561928D01*
X210321Y561835D01*
X210247Y561724D01*
X210173Y561604D01*
X210163Y561595D01*
X210154Y561558D01*
X210136Y561493D01*
X210108Y561410D01*
X210080Y561299D01*
X210062Y561170D01*
X210053Y561012D01*
X210043Y560827D01*
X210034Y560532D01*
X210043D01*
X210053Y560541D01*
X210080Y560550D01*
X210117Y560559D01*
X210163Y560578D01*
X210219Y560596D01*
X210284Y560615D01*
X210358Y560633D01*
X210441Y560661D01*
X210543Y560680D01*
X210644Y560707D01*
X210765Y560735D01*
X210894Y560763D01*
X211023Y560790D01*
X211171Y560809D01*
X211329Y560837D01*
X211347D01*
X211402Y560846D01*
X211495Y560864D01*
X211597Y560883D01*
X211707Y560901D01*
X211819Y560929D01*
X211920Y560957D01*
X212013Y560994D01*
X212022D01*
X212050Y561012D01*
X212087Y561031D01*
X212124Y561059D01*
X212234Y561133D01*
X212327Y561244D01*
Y561253D01*
X212346Y561271D01*
X212355Y561308D01*
X212373Y561354D01*
X212392Y561410D01*
X212410Y561465D01*
X212419Y561539D01*
X212429Y561613D01*
Y561623D01*
Y561669D01*
X212419Y561724D01*
X212401Y561798D01*
X212373Y561881D01*
X212327Y561965D01*
X212271Y562057D01*
X212197Y562140D01*
X212188Y562150D01*
X212151Y562168D01*
X212096Y562205D01*
X212022Y562242D01*
X211920Y562279D01*
X211800Y562316D01*
X211661Y562334D01*
X211495Y562344D01*
D02*
G37*
G36*
X217394Y560097D02*
X214796D01*
Y560088D01*
Y560069D01*
X214805Y560042D01*
Y560005D01*
X214823Y559894D01*
X214851Y559773D01*
X214897Y559626D01*
X214944Y559487D01*
X215018Y559348D01*
X215101Y559228D01*
Y559219D01*
X215119Y559209D01*
X215165Y559154D01*
X215249Y559080D01*
X215359Y558997D01*
X215498Y558914D01*
X215665Y558840D01*
X215859Y558784D01*
X215961Y558775D01*
X216071Y558766D01*
X216127D01*
X216164Y558775D01*
X216266Y558784D01*
X216386Y558812D01*
X216534Y558858D01*
X216691Y558923D01*
X216839Y559015D01*
X216987Y559136D01*
X217005Y559154D01*
X217042Y559200D01*
X217107Y559283D01*
X217172Y559394D01*
X217246Y559524D01*
X217310Y559690D01*
X217366Y559884D01*
X217394Y560097D01*
D02*
G37*
G36*
X917940Y459983D02*
X916460D01*
Y455101D01*
X917976D01*
X918041Y455110D01*
X918180Y455120D01*
X918337Y455129D01*
X918503Y455147D01*
X918670Y455175D01*
X918809Y455212D01*
X918827Y455221D01*
X918873Y455231D01*
X918938Y455258D01*
X919021Y455295D01*
X919114Y455351D01*
X919206Y455406D01*
X919299Y455471D01*
X919391Y455545D01*
X919400Y455563D01*
X919437Y455600D01*
X919493Y455665D01*
X919557Y455758D01*
X919631Y455878D01*
X919715Y456017D01*
X919789Y456174D01*
X919853Y456349D01*
Y456358D01*
X919863Y456377D01*
X919872Y456405D01*
X919881Y456442D01*
X919890Y456488D01*
X919909Y456553D01*
X919927Y456617D01*
X919946Y456691D01*
X919974Y456876D01*
X920001Y457089D01*
X920020Y457329D01*
X920029Y457588D01*
Y457598D01*
Y457634D01*
Y457681D01*
X920020Y457755D01*
Y457838D01*
X920011Y457930D01*
X920001Y458041D01*
X919992Y458152D01*
X919946Y458402D01*
X919890Y458661D01*
X919807Y458901D01*
X919752Y459021D01*
X919696Y459123D01*
Y459132D01*
X919678Y459151D01*
X919659Y459179D01*
X919641Y459215D01*
X919567Y459308D01*
X919474Y459419D01*
X919354Y459539D01*
X919215Y459659D01*
X919058Y459761D01*
X918892Y459844D01*
X918873Y459853D01*
X918827Y459863D01*
X918744Y459890D01*
X918624Y459918D01*
X918476Y459937D01*
X918291Y459964D01*
X918180Y459974D01*
X918060D01*
X917940Y459983D01*
D02*
G37*
G36*
X247373Y140414D02*
Y137816D01*
X247382D01*
X247401D01*
X247428Y137825D01*
X247465D01*
X247576Y137843D01*
X247696Y137871D01*
X247845Y137917D01*
X247983Y137963D01*
X248122Y138037D01*
X248242Y138121D01*
X248251D01*
X248260Y138139D01*
X248316Y138185D01*
X248390Y138269D01*
X248473Y138379D01*
X248556Y138518D01*
X248630Y138685D01*
X248686Y138879D01*
X248695Y138981D01*
X248704Y139091D01*
Y139147D01*
X248695Y139184D01*
X248686Y139286D01*
X248658Y139406D01*
X248612Y139554D01*
X248547Y139711D01*
X248455Y139859D01*
X248335Y140007D01*
X248316Y140025D01*
X248270Y140062D01*
X248186Y140127D01*
X248076Y140192D01*
X247946Y140266D01*
X247780Y140330D01*
X247586Y140386D01*
X247373Y140414D01*
D02*
G37*
G36*
X245857Y135449D02*
X245847D01*
X245801D01*
X245746Y135439D01*
X245672Y135421D01*
X245588Y135393D01*
X245505Y135347D01*
X245413Y135292D01*
X245330Y135218D01*
X245320Y135208D01*
X245302Y135171D01*
X245265Y135116D01*
X245228Y135042D01*
X245191Y134940D01*
X245154Y134820D01*
X245135Y134681D01*
X245126Y134515D01*
Y134441D01*
X245135Y134348D01*
X245154Y134247D01*
X245173Y134117D01*
X245210Y133988D01*
X245256Y133849D01*
X245320Y133710D01*
X245330Y133692D01*
X245357Y133655D01*
X245404Y133590D01*
X245468Y133516D01*
X245542Y133433D01*
X245635Y133341D01*
X245746Y133267D01*
X245866Y133193D01*
X245875Y133183D01*
X245912Y133174D01*
X245977Y133156D01*
X246060Y133128D01*
X246171Y133100D01*
X246300Y133082D01*
X246458Y133073D01*
X246642Y133063D01*
X246938Y133054D01*
Y133063D01*
X246929Y133073D01*
X246920Y133100D01*
X246911Y133137D01*
X246892Y133183D01*
X246874Y133239D01*
X246855Y133304D01*
X246837Y133378D01*
X246809Y133461D01*
X246791Y133562D01*
X246763Y133664D01*
X246735Y133784D01*
X246707Y133914D01*
X246679Y134043D01*
X246661Y134191D01*
X246633Y134348D01*
Y134367D01*
X246624Y134422D01*
X246606Y134515D01*
X246587Y134616D01*
X246569Y134727D01*
X246541Y134838D01*
X246513Y134940D01*
X246476Y135033D01*
Y135042D01*
X246458Y135070D01*
X246439Y135107D01*
X246411Y135143D01*
X246337Y135254D01*
X246227Y135347D01*
X246217D01*
X246199Y135365D01*
X246162Y135375D01*
X246115Y135393D01*
X246060Y135412D01*
X246005Y135430D01*
X245931Y135439D01*
X245857Y135449D01*
D02*
G37*
G36*
X137062Y73253D02*
X137052D01*
X137015D01*
X136969D01*
X136895Y73244D01*
X136812D01*
X136720Y73235D01*
X136609Y73225D01*
X136498Y73216D01*
X136248Y73170D01*
X135989Y73115D01*
X135749Y73031D01*
X135629Y72976D01*
X135527Y72920D01*
X135518D01*
X135499Y72902D01*
X135471Y72883D01*
X135435Y72865D01*
X135342Y72791D01*
X135231Y72698D01*
X135111Y72578D01*
X134991Y72440D01*
X134889Y72283D01*
X134806Y72116D01*
X134797Y72098D01*
X134787Y72051D01*
X134760Y71968D01*
X134732Y71848D01*
X134713Y71700D01*
X134686Y71515D01*
X134676Y71404D01*
Y71284D01*
X134667Y71164D01*
Y69685D01*
X139549D01*
Y71201D01*
X139539Y71266D01*
X139530Y71404D01*
X139521Y71561D01*
X139503Y71728D01*
X139475Y71894D01*
X139438Y72033D01*
X139429Y72051D01*
X139419Y72098D01*
X139392Y72162D01*
X139355Y72245D01*
X139299Y72338D01*
X139244Y72430D01*
X139179Y72523D01*
X139105Y72615D01*
X139087Y72625D01*
X139050Y72662D01*
X138985Y72717D01*
X138892Y72782D01*
X138772Y72856D01*
X138633Y72939D01*
X138476Y73013D01*
X138301Y73078D01*
X138291D01*
X138273Y73087D01*
X138245Y73096D01*
X138208Y73105D01*
X138162Y73115D01*
X138097Y73133D01*
X138033Y73152D01*
X137959Y73170D01*
X137774Y73198D01*
X137561Y73225D01*
X137321Y73244D01*
X137062Y73253D01*
D02*
G37*
G36*
X244069Y152571D02*
X244060D01*
X244032D01*
X243995D01*
X243939D01*
X243865Y152562D01*
X243791D01*
X243699Y152553D01*
X243606Y152534D01*
X243394Y152507D01*
X243163Y152460D01*
X242931Y152396D01*
X242710Y152303D01*
X242700D01*
X242682Y152294D01*
X242654Y152275D01*
X242617Y152257D01*
X242506Y152192D01*
X242377Y152109D01*
X242229Y151998D01*
X242081Y151860D01*
X241933Y151702D01*
X241804Y151527D01*
Y151517D01*
X241785Y151508D01*
X241776Y151480D01*
X241748Y151434D01*
X241730Y151388D01*
X241702Y151333D01*
X241637Y151194D01*
X241582Y151027D01*
X241526Y150833D01*
X241489Y150611D01*
X241480Y150380D01*
Y150288D01*
X241489Y150223D01*
X241499Y150140D01*
X241517Y150047D01*
X241535Y149946D01*
X241563Y149835D01*
X241600Y149705D01*
X241637Y149585D01*
X241693Y149456D01*
X241757Y149317D01*
X241831Y149187D01*
X241924Y149058D01*
X242016Y148929D01*
X242136Y148808D01*
X242146Y148799D01*
X242164Y148781D01*
X242201Y148753D01*
X242257Y148716D01*
X242321Y148660D01*
X242404Y148614D01*
X242506Y148559D01*
X242617Y148503D01*
X242747Y148439D01*
X242894Y148383D01*
X243052Y148337D01*
X243227Y148291D01*
X243412Y148244D01*
X243616Y148217D01*
X243838Y148198D01*
X244069Y148189D01*
X244087D01*
X244124D01*
X244189D01*
X244272Y148198D01*
X244374Y148208D01*
X244494Y148226D01*
X244633Y148244D01*
X244771Y148263D01*
X245086Y148337D01*
X245243Y148383D01*
X245400Y148448D01*
X245557Y148513D01*
X245705Y148596D01*
X245853Y148688D01*
X245983Y148799D01*
X245992Y148808D01*
X246010Y148827D01*
X246047Y148864D01*
X246084Y148910D01*
X246140Y148975D01*
X246195Y149049D01*
X246251Y149132D01*
X246315Y149234D01*
X246380Y149335D01*
X246436Y149456D01*
X246491Y149585D01*
X246546Y149724D01*
X246583Y149881D01*
X246621Y150038D01*
X246639Y150204D01*
X246648Y150380D01*
Y150463D01*
X246639Y150547D01*
X246630Y150658D01*
X246611Y150796D01*
X246574Y150935D01*
X246537Y151092D01*
X246482Y151240D01*
X246473Y151222D01*
X246436Y151175D01*
X246389Y151092D01*
X246334Y150990D01*
X246278Y150861D01*
X246214Y150722D01*
X246158Y150565D01*
X246112Y150399D01*
X245502Y150611D01*
Y150621D01*
X245511Y150648D01*
X245520Y150685D01*
X245539Y150731D01*
X245557Y150796D01*
X245585Y150870D01*
X245650Y151037D01*
X245742Y151231D01*
X245844Y151434D01*
X245964Y151628D01*
X246112Y151823D01*
X246103Y151832D01*
X246084Y151860D01*
X246038Y151896D01*
X245983Y151943D01*
X245909Y151998D01*
X245825Y152063D01*
X245724Y152128D01*
X245604Y152202D01*
X245465Y152266D01*
X245308Y152331D01*
X245141Y152396D01*
X244966Y152451D01*
X244762Y152507D01*
X244550Y152544D01*
X244318Y152562D01*
X244069Y152571D01*
D02*
G37*
G36*
X247130Y349518D02*
X247047D01*
X246963Y349509D01*
X246852Y349500D01*
X246714Y349481D01*
X246575Y349444D01*
X246418Y349407D01*
X246270Y349352D01*
X246288Y349342D01*
X246335Y349305D01*
X246418Y349259D01*
X246520Y349204D01*
X246649Y349148D01*
X246788Y349084D01*
X246945Y349028D01*
X247111Y348982D01*
X246899Y348372D01*
X246889D01*
X246862Y348381D01*
X246825Y348390D01*
X246778Y348409D01*
X246714Y348427D01*
X246640Y348455D01*
X246473Y348520D01*
X246279Y348612D01*
X246076Y348714D01*
X245882Y348834D01*
X245688Y348982D01*
X245678Y348973D01*
X245651Y348954D01*
X245613Y348908D01*
X245567Y348853D01*
X245512Y348779D01*
X245447Y348695D01*
X245382Y348594D01*
X245308Y348473D01*
X245244Y348335D01*
X245179Y348178D01*
X245114Y348011D01*
X245059Y347836D01*
X245003Y347632D01*
X244966Y347419D01*
X244948Y347188D01*
X244939Y346939D01*
Y346929D01*
Y346902D01*
Y346865D01*
Y346809D01*
X244948Y346735D01*
Y346661D01*
X244957Y346569D01*
X244976Y346476D01*
X245003Y346264D01*
X245049Y346033D01*
X245114Y345802D01*
X245207Y345580D01*
Y345570D01*
X245216Y345552D01*
X245234Y345524D01*
X245253Y345487D01*
X245318Y345376D01*
X245401Y345247D01*
X245512Y345099D01*
X245651Y344951D01*
X245808Y344803D01*
X245983Y344674D01*
X245993D01*
X246002Y344655D01*
X246030Y344646D01*
X246076Y344618D01*
X246122Y344599D01*
X246178Y344572D01*
X246316Y344507D01*
X246483Y344452D01*
X246677Y344396D01*
X246899Y344359D01*
X247130Y344350D01*
X247222D01*
X247287Y344359D01*
X247370Y344368D01*
X247463Y344387D01*
X247564Y344405D01*
X247675Y344433D01*
X247805Y344470D01*
X247925Y344507D01*
X248054Y344563D01*
X248193Y344627D01*
X248323Y344701D01*
X248452Y344794D01*
X248581Y344886D01*
X248701Y345006D01*
X248711Y345016D01*
X248729Y345034D01*
X248757Y345071D01*
X248794Y345126D01*
X248850Y345191D01*
X248896Y345275D01*
X248951Y345376D01*
X249007Y345487D01*
X249071Y345617D01*
X249127Y345765D01*
X249173Y345922D01*
X249219Y346097D01*
X249265Y346282D01*
X249293Y346486D01*
X249312Y346707D01*
X249321Y346939D01*
Y346957D01*
Y346994D01*
Y347059D01*
X249312Y347142D01*
X249303Y347244D01*
X249284Y347364D01*
X249265Y347503D01*
X249247Y347641D01*
X249173Y347956D01*
X249127Y348113D01*
X249062Y348270D01*
X248997Y348427D01*
X248914Y348575D01*
X248822Y348723D01*
X248711Y348853D01*
X248701Y348862D01*
X248683Y348880D01*
X248646Y348917D01*
X248600Y348954D01*
X248535Y349010D01*
X248461Y349065D01*
X248378Y349121D01*
X248276Y349185D01*
X248174Y349250D01*
X248054Y349305D01*
X247925Y349361D01*
X247786Y349417D01*
X247629Y349454D01*
X247472Y349491D01*
X247305Y349509D01*
X247130Y349518D01*
D02*
G37*
G36*
X563002Y513455D02*
X562993D01*
X562975D01*
X562938D01*
X562891Y513445D01*
X562836D01*
X562771Y513436D01*
X562623Y513408D01*
X562457Y513371D01*
X562281Y513307D01*
X562115Y513214D01*
X561958Y513094D01*
X561939Y513075D01*
X561893Y513029D01*
X561837Y512955D01*
X561763Y512854D01*
X561689Y512724D01*
X561634Y512576D01*
X561588Y512401D01*
X561569Y512206D01*
Y512151D01*
X561578Y512114D01*
X561588Y512021D01*
X561615Y511892D01*
X561662Y511753D01*
X561736Y511596D01*
X561828Y511448D01*
X561958Y511300D01*
X561976Y511282D01*
X562022Y511245D01*
X562105Y511180D01*
X562226Y511115D01*
X562364Y511051D01*
X562540Y510986D01*
X562734Y510949D01*
X562956Y510930D01*
X562975D01*
X563021D01*
X563104Y510940D01*
X563206Y510949D01*
X563326Y510967D01*
X563455Y511004D01*
X563594Y511041D01*
X563733Y511097D01*
X563751Y511106D01*
X563797Y511134D01*
X563862Y511171D01*
X563945Y511226D01*
X564029Y511291D01*
X564130Y511374D01*
X564213Y511467D01*
X564297Y511578D01*
X564306Y511596D01*
X564324Y511633D01*
X564361Y511698D01*
X564389Y511781D01*
X564426Y511874D01*
X564463Y511984D01*
X564482Y512105D01*
X564491Y512234D01*
Y512280D01*
X564482Y512317D01*
X564472Y512410D01*
X564445Y512530D01*
X564389Y512659D01*
X564324Y512807D01*
X564223Y512955D01*
X564167Y513029D01*
X564093Y513094D01*
X564084D01*
X564075Y513112D01*
X564019Y513149D01*
X563927Y513205D01*
X563807Y513279D01*
X563649Y513344D01*
X563465Y513399D01*
X563252Y513436D01*
X563002Y513455D01*
D02*
G37*
G36*
X487125Y515532D02*
X482243D01*
Y514015D01*
X482252Y513951D01*
X482262Y513812D01*
X482271Y513655D01*
X482289Y513488D01*
X482317Y513322D01*
X482354Y513183D01*
X482363Y513165D01*
X482373Y513118D01*
X482400Y513054D01*
X482437Y512970D01*
X482493Y512878D01*
X482548Y512785D01*
X482613Y512693D01*
X482687Y512601D01*
X482705Y512591D01*
X482742Y512554D01*
X482807Y512499D01*
X482900Y512434D01*
X483020Y512360D01*
X483158Y512277D01*
X483316Y512203D01*
X483491Y512138D01*
X483501D01*
X483519Y512129D01*
X483547Y512120D01*
X483584Y512111D01*
X483630Y512101D01*
X483695Y512083D01*
X483759Y512064D01*
X483833Y512046D01*
X484018Y512018D01*
X484231Y511990D01*
X484471Y511972D01*
X484730Y511963D01*
X484739D01*
X484776D01*
X484823D01*
X484897Y511972D01*
X484980D01*
X485072Y511981D01*
X485183Y511990D01*
X485294Y512000D01*
X485544Y512046D01*
X485803Y512101D01*
X486043Y512185D01*
X486163Y512240D01*
X486265Y512295D01*
X486274D01*
X486293Y512314D01*
X486320Y512332D01*
X486357Y512351D01*
X486450Y512425D01*
X486561Y512517D01*
X486681Y512638D01*
X486801Y512776D01*
X486903Y512934D01*
X486986Y513100D01*
X486995Y513118D01*
X487005Y513165D01*
X487032Y513248D01*
X487060Y513368D01*
X487079Y513516D01*
X487106Y513701D01*
X487116Y513812D01*
Y513932D01*
X487125Y514052D01*
Y515532D01*
D02*
G37*
G36*
X484526Y334379D02*
X482409D01*
Y332475D01*
X482419Y332364D01*
X482428Y332234D01*
X482437Y332086D01*
X482455Y331938D01*
X482483Y331790D01*
X482520Y331661D01*
X482529Y331642D01*
X482548Y331605D01*
X482576Y331550D01*
X482613Y331476D01*
X482668Y331393D01*
X482733Y331310D01*
X482816Y331227D01*
X482909Y331162D01*
X482918Y331152D01*
X482955Y331134D01*
X483010Y331106D01*
X483084Y331069D01*
X483167Y331042D01*
X483260Y331014D01*
X483371Y330995D01*
X483482Y330986D01*
X483491D01*
X483500D01*
X483556Y330995D01*
X483639Y331005D01*
X483750Y331023D01*
X483861Y331069D01*
X483990Y331125D01*
X484110Y331208D01*
X484231Y331319D01*
X484240Y331337D01*
X484277Y331384D01*
X484323Y331458D01*
X484379Y331578D01*
X484434Y331716D01*
X484480Y331901D01*
X484517Y332114D01*
X484526Y332364D01*
Y334379D01*
D02*
G37*
G36*
X481096Y328610D02*
Y326594D01*
X483963D01*
X481096Y328610D01*
D02*
G37*
%LPD*%
D12*
X345480Y14370D02*
Y286370D01*
Y14370D02*
X1027480D01*
Y286370D01*
X345480D02*
X1027480D01*
X611060Y421740D02*
X730060D01*
X611060Y307240D02*
Y421740D01*
Y307240D02*
X730060D01*
Y421740D01*
X433300Y435090D02*
Y687090D01*
X15300D02*
X433300D01*
X15300Y435090D02*
Y687090D01*
Y435090D02*
X433300D01*
X812130Y587470D02*
X1004130D01*
Y324970D02*
Y587470D01*
X812130Y324970D02*
X1004130D01*
X812130D02*
Y587470D01*
X778410Y454649D02*
Y492771D01*
X758290Y454649D02*
X778410D01*
X758290D02*
Y492771D01*
X778410D01*
X315960Y15256D02*
Y279384D01*
X176800Y15256D02*
X315960D01*
X176800D02*
Y279384D01*
X315960D01*
X123430Y15684D02*
Y121984D01*
X153430D01*
Y15684D02*
Y121984D01*
X123430Y15684D02*
X153430D01*
X192380Y112670D02*
Y181970D01*
X300380D01*
Y112670D02*
Y181970D01*
X192380Y112670D02*
X300380D01*
X197190Y322850D02*
X303190D01*
X197190D02*
Y375650D01*
X303190D01*
Y322850D02*
Y375650D01*
X526872Y460182D02*
X599872D01*
Y547182D01*
X526872D02*
X599872D01*
X526872Y460182D02*
Y547182D01*
X466362Y547382D02*
X500362D01*
X466362Y485382D02*
Y547382D01*
Y485382D02*
X500362D01*
Y547382D01*
X998460Y633290D02*
Y705290D01*
X901460D02*
X998460D01*
X901460Y633290D02*
Y705290D01*
Y633290D02*
X998460D01*
X432700Y361030D02*
X532499D01*
X432700Y309430D02*
Y361030D01*
Y309430D02*
X532499D01*
Y361030D01*
X466487Y697087D02*
X571357D01*
X466487Y574437D02*
Y697087D01*
Y574437D02*
X571357D01*
Y697087D01*
X807590Y631551D02*
X823090D01*
X807590Y605429D02*
Y631551D01*
Y605429D02*
X823090D01*
Y631551D01*
M02*
