G04*
G04 #@! TF.GenerationSoftware,Altium Limited,Altium Designer,25.1.2 (22)*
G04*
G04 Layer_Color=255*
%FSLAX44Y44*%
%MOMM*%
G71*
G04*
G04 #@! TF.SameCoordinates,735CD127-3729-4D2A-A9AC-AB826B6A9FB7*
G04*
G04*
G04 #@! TF.FilePolarity,Positive*
G04*
G01*
G75*
%ADD17R,0.8000X2.4000*%
%ADD18R,0.7000X2.4000*%
G04:AMPARAMS|DCode=19|XSize=5.55mm|YSize=7.2mm|CornerRadius=0.0555mm|HoleSize=0mm|Usage=FLASHONLY|Rotation=180.000|XOffset=0mm|YOffset=0mm|HoleType=Round|Shape=RoundedRectangle|*
%AMROUNDEDRECTD19*
21,1,5.5500,7.0890,0,0,180.0*
21,1,5.4390,7.2000,0,0,180.0*
1,1,0.1110,-2.7195,3.5445*
1,1,0.1110,2.7195,3.5445*
1,1,0.1110,2.7195,-3.5445*
1,1,0.1110,-2.7195,-3.5445*
%
%ADD19ROUNDEDRECTD19*%
G04:AMPARAMS|DCode=20|XSize=1mm|YSize=2.2mm|CornerRadius=0.05mm|HoleSize=0mm|Usage=FLASHONLY|Rotation=180.000|XOffset=0mm|YOffset=0mm|HoleType=Round|Shape=RoundedRectangle|*
%AMROUNDEDRECTD20*
21,1,1.0000,2.1000,0,0,180.0*
21,1,0.9000,2.2000,0,0,180.0*
1,1,0.1000,-0.4500,1.0500*
1,1,0.1000,0.4500,1.0500*
1,1,0.1000,0.4500,-1.0500*
1,1,0.1000,-0.4500,-1.0500*
%
%ADD20ROUNDEDRECTD20*%
%ADD21R,0.9000X0.8000*%
%ADD22R,2.0000X0.9000*%
%ADD23R,0.9000X2.0000*%
%ADD24R,1.3300X1.3300*%
%ADD25R,1.3500X2.8000*%
%ADD26R,2.8000X1.3500*%
%ADD27R,1.0121X1.2084*%
%ADD28R,0.9000X1.5500*%
%ADD29R,13.7160X1.5240*%
%ADD30R,2.2000X1.7000*%
%ADD31R,1.6000X3.2000*%
%ADD32R,1.5500X1.3000*%
%ADD33R,3.2510X3.1240*%
%ADD34R,2.8000X1.6000*%
%ADD35R,1.2621X0.9578*%
%ADD42R,6.4000X5.8000*%
%ADD43R,2.2000X1.2000*%
%ADD44R,2.1000X1.4000*%
%ADD46C,1.4000*%
%ADD47R,1.4000X1.4000*%
%ADD50C,3.7000*%
%ADD51R,1.5500X1.5500*%
%ADD52C,1.5500*%
%ADD53R,1.5500X1.5500*%
%ADD56C,1.2000*%
%ADD57R,1.2000X1.2000*%
%ADD65C,1.7000*%
%ADD66R,1.7000X1.7000*%
D17*
X715510Y320490D02*
D03*
X625610D02*
D03*
Y408490D02*
D03*
X715510D02*
D03*
D18*
X702310Y320490D02*
D03*
X689610D02*
D03*
X676910D02*
D03*
X664210D02*
D03*
X651510D02*
D03*
X638810D02*
D03*
Y408490D02*
D03*
X651510D02*
D03*
X664210D02*
D03*
X676910D02*
D03*
X689610D02*
D03*
X702310D02*
D03*
D19*
X661670Y656540D02*
D03*
D20*
X684470Y593540D02*
D03*
X638870D02*
D03*
D21*
X576420Y366420D02*
D03*
Y385420D02*
D03*
X556420Y375920D02*
D03*
D22*
X823130Y511070D02*
D03*
Y498370D02*
D03*
Y485670D02*
D03*
Y472970D02*
D03*
Y460270D02*
D03*
Y447570D02*
D03*
Y434870D02*
D03*
Y422170D02*
D03*
Y409470D02*
D03*
Y396770D02*
D03*
Y384070D02*
D03*
Y371370D02*
D03*
Y358670D02*
D03*
Y345970D02*
D03*
X993130D02*
D03*
Y358670D02*
D03*
Y371370D02*
D03*
Y384070D02*
D03*
Y396770D02*
D03*
Y409470D02*
D03*
Y422170D02*
D03*
Y434870D02*
D03*
Y447570D02*
D03*
Y460270D02*
D03*
Y472970D02*
D03*
Y485670D02*
D03*
Y498370D02*
D03*
Y511070D02*
D03*
D23*
X850980Y335970D02*
D03*
X863680D02*
D03*
X876380D02*
D03*
X889080D02*
D03*
X901780D02*
D03*
X914480D02*
D03*
X927180D02*
D03*
X939880D02*
D03*
X952580D02*
D03*
X965280D02*
D03*
D24*
X879780Y454420D02*
D03*
X898130D02*
D03*
X916480D02*
D03*
X879780Y436070D02*
D03*
X898130D02*
D03*
X916480D02*
D03*
X879780Y417720D02*
D03*
X898130D02*
D03*
X916480D02*
D03*
D25*
X756160Y313690D02*
D03*
X788160D02*
D03*
D26*
X767080Y525020D02*
D03*
Y557020D02*
D03*
D27*
X768350Y481729D02*
D03*
Y465691D02*
D03*
D28*
X264560Y292500D02*
D03*
X238060D02*
D03*
X295190Y396240D02*
D03*
X268690D02*
D03*
X874310Y693420D02*
D03*
X847810D02*
D03*
D29*
X246380Y218440D02*
D03*
Y76200D02*
D03*
D30*
X291190Y336550D02*
D03*
Y361950D02*
D03*
X209190D02*
D03*
Y336550D02*
D03*
D31*
X563372Y528682D02*
D03*
Y478682D02*
D03*
D32*
X910210Y691790D02*
D03*
X989710D02*
D03*
X910210Y646790D02*
D03*
X989710D02*
D03*
D33*
X518922Y591057D02*
D03*
Y680467D02*
D03*
D34*
X642620Y535940D02*
D03*
Y506440D02*
D03*
D35*
X815340Y611218D02*
D03*
Y625762D02*
D03*
D42*
X225380Y147320D02*
D03*
D43*
X288380Y124520D02*
D03*
Y170120D02*
D03*
D44*
X483362Y494382D02*
D03*
Y538382D02*
D03*
D46*
X1003980Y70370D02*
D03*
Y90370D02*
D03*
Y110370D02*
D03*
Y130370D02*
D03*
Y150370D02*
D03*
Y170370D02*
D03*
Y190370D02*
D03*
Y210370D02*
D03*
Y230370D02*
D03*
X368980D02*
D03*
Y210370D02*
D03*
Y190370D02*
D03*
Y170370D02*
D03*
Y150370D02*
D03*
Y130370D02*
D03*
Y110370D02*
D03*
Y90370D02*
D03*
D47*
Y70370D02*
D03*
D50*
X97300Y561090D02*
D03*
X351300D02*
D03*
D51*
X138430Y24434D02*
D03*
D52*
Y113234D02*
D03*
X60090Y316484D02*
D03*
D53*
X110090D02*
D03*
D56*
X81650Y39530D02*
D03*
X82920Y145194D02*
D03*
X508000Y322480D02*
D03*
X482600Y347880D02*
D03*
D57*
X81650Y59530D02*
D03*
X82920Y165194D02*
D03*
X457200Y322480D02*
D03*
D65*
X258300Y468254D02*
D03*
X241300Y508254D02*
D03*
X224300Y468254D02*
D03*
X207300Y508254D02*
D03*
D66*
X190300Y468254D02*
D03*
M02*
