G04*
G04 #@! TF.GenerationSoftware,Altium Limited,Altium Designer,25.1.2 (22)*
G04*
G04 Layer_Physical_Order=1*
G04 Layer_Color=255*
%FSLAX44Y44*%
%MOMM*%
G71*
G04*
G04 #@! TF.SameCoordinates,735CD127-3729-4D2A-A9AC-AB826B6A9FB7*
G04*
G04*
G04 #@! TF.FilePolarity,Positive*
G04*
G01*
G75*
%ADD17R,0.8000X2.4000*%
%ADD18R,0.7000X2.4000*%
G04:AMPARAMS|DCode=19|XSize=5.55mm|YSize=7.2mm|CornerRadius=0.0555mm|HoleSize=0mm|Usage=FLASHONLY|Rotation=180.000|XOffset=0mm|YOffset=0mm|HoleType=Round|Shape=RoundedRectangle|*
%AMROUNDEDRECTD19*
21,1,5.5500,7.0890,0,0,180.0*
21,1,5.4390,7.2000,0,0,180.0*
1,1,0.1110,-2.7195,3.5445*
1,1,0.1110,2.7195,3.5445*
1,1,0.1110,2.7195,-3.5445*
1,1,0.1110,-2.7195,-3.5445*
%
%ADD19ROUNDEDRECTD19*%
G04:AMPARAMS|DCode=20|XSize=1mm|YSize=2.2mm|CornerRadius=0.05mm|HoleSize=0mm|Usage=FLASHONLY|Rotation=180.000|XOffset=0mm|YOffset=0mm|HoleType=Round|Shape=RoundedRectangle|*
%AMROUNDEDRECTD20*
21,1,1.0000,2.1000,0,0,180.0*
21,1,0.9000,2.2000,0,0,180.0*
1,1,0.1000,-0.4500,1.0500*
1,1,0.1000,0.4500,1.0500*
1,1,0.1000,0.4500,-1.0500*
1,1,0.1000,-0.4500,-1.0500*
%
%ADD20ROUNDEDRECTD20*%
%ADD21R,0.9000X0.8000*%
%ADD22R,2.0000X0.9000*%
%ADD23R,0.9000X2.0000*%
%ADD24R,1.3300X1.3300*%
%ADD25R,1.3500X2.8000*%
%ADD26R,2.8000X1.3500*%
%ADD27R,1.0121X1.2084*%
%ADD28R,0.9000X1.5500*%
%ADD29R,13.7160X1.5240*%
%ADD30R,2.2000X1.7000*%
%ADD31R,1.6000X3.2000*%
%ADD32R,1.5500X1.3000*%
%ADD33R,3.2510X3.1240*%
%ADD34R,2.8000X1.6000*%
%ADD35R,1.2621X0.9578*%
%ADD42R,6.4000X5.8000*%
%ADD43R,2.2000X1.2000*%
%ADD44R,2.1000X1.4000*%
%ADD46C,1.4000*%
%ADD47R,1.4000X1.4000*%
%ADD50C,3.7000*%
%ADD51R,1.5500X1.5500*%
%ADD52C,1.5500*%
%ADD53R,1.5500X1.5500*%
%ADD56C,1.2000*%
%ADD57R,1.2000X1.2000*%
%ADD59C,0.5000*%
%ADD60C,1.0000*%
%ADD61C,0.8000*%
%ADD62C,3.0000*%
%ADD63R,6.7500X6.7500*%
%ADD64R,19.7500X9.7500*%
%ADD65C,1.7000*%
%ADD66R,1.7000X1.7000*%
%ADD67C,1.2700*%
G36*
X897890Y725000D02*
X1040000D01*
Y0D01*
X0D01*
Y725000D01*
X814070D01*
X814240Y725170D01*
X897890Y725000D01*
D02*
G37*
%LPC*%
G36*
X787500Y717590D02*
X590000D01*
X589009Y717393D01*
X588169Y716831D01*
X587607Y715991D01*
X587410Y715000D01*
Y617500D01*
X587607Y616509D01*
X588169Y615669D01*
X589009Y615107D01*
X590000Y614910D01*
X700832D01*
Y540000D01*
X700832Y540000D01*
X701339Y537448D01*
X702361Y535919D01*
Y462629D01*
X697372Y457639D01*
X460000D01*
X458033Y457248D01*
X456366Y456134D01*
X407872Y407639D01*
X322434D01*
X320036Y410037D01*
X316768Y411390D01*
X313232D01*
X309964Y410037D01*
X307566Y407639D01*
X301450D01*
X299484Y407248D01*
X298410Y406530D01*
X288150D01*
Y385950D01*
X300676D01*
X300676Y385950D01*
Y385950D01*
X300676D01*
D01*
X302230Y385950D01*
X302891Y385489D01*
X302918Y385233D01*
X303551Y379078D01*
X297463Y372990D01*
X278829D01*
X277650Y372990D01*
X273829Y375835D01*
Y385950D01*
X275730D01*
Y406530D01*
X261650D01*
Y385950D01*
X263551D01*
Y343810D01*
X263942Y341844D01*
X265056Y340177D01*
X272303Y332929D01*
X273971Y331815D01*
X275937Y331424D01*
X277650D01*
Y325510D01*
X304730D01*
Y345910D01*
X304730Y350910D01*
X304730Y352590D01*
Y365723D01*
X315117Y376110D01*
X316768D01*
X320036Y377463D01*
X322537Y379964D01*
X323890Y383232D01*
Y384539D01*
X326712Y387361D01*
X412500D01*
X414467Y387752D01*
X416134Y388866D01*
X464628Y437361D01*
X742871D01*
X759861Y420372D01*
Y402341D01*
X760252Y400374D01*
X761366Y398707D01*
X805037Y355037D01*
X806704Y353923D01*
X808670Y353532D01*
X810590D01*
Y338930D01*
X835670D01*
Y351630D01*
Y364330D01*
Y377030D01*
Y389730D01*
Y402430D01*
Y415130D01*
Y427830D01*
Y440530D01*
Y453230D01*
Y465930D01*
Y478630D01*
Y491330D01*
Y505410D01*
X810590D01*
Y505038D01*
X803742D01*
X783620Y525160D01*
Y534310D01*
X750540D01*
Y531668D01*
X725262D01*
X714168Y542762D01*
Y614910D01*
X787500D01*
X788491Y615107D01*
X789331Y615669D01*
X789893Y616509D01*
X790090Y617500D01*
Y633323D01*
X801586D01*
X806489Y633091D01*
Y618433D01*
X824191D01*
Y633091D01*
X820479D01*
Y635533D01*
X820088Y637500D01*
X818974Y639167D01*
X816045Y642096D01*
X814378Y643210D01*
X812411Y643601D01*
X790090D01*
Y688281D01*
X840770D01*
Y683130D01*
X854850D01*
Y703710D01*
X840770D01*
Y698559D01*
X790090D01*
Y715000D01*
X789893Y715991D01*
X789331Y716831D01*
X788491Y717393D01*
X787500Y717590D01*
D02*
G37*
G36*
X537717Y698627D02*
X500127D01*
Y673179D01*
X477926Y650978D01*
X476259Y648484D01*
X475674Y645542D01*
Y611731D01*
X471055Y609817D01*
X455436Y625436D01*
X452942Y627103D01*
X450000Y627688D01*
X277500D01*
X274558Y627103D01*
X272064Y625436D01*
X201864Y555236D01*
X200198Y552742D01*
X199612Y549800D01*
Y516179D01*
X198466Y515033D01*
X197012Y512515D01*
X196260Y509707D01*
Y506801D01*
X197012Y503993D01*
X198466Y501475D01*
X200521Y499420D01*
X203039Y497966D01*
X205847Y497214D01*
X208754D01*
X211561Y497966D01*
X214079Y499420D01*
X216134Y501475D01*
X217588Y503993D01*
X218340Y506801D01*
Y509707D01*
X217588Y512515D01*
X216134Y515033D01*
X214988Y516179D01*
Y546616D01*
X280684Y612312D01*
X446816D01*
X475674Y583454D01*
Y547922D01*
X470322D01*
Y528842D01*
X496402D01*
Y547922D01*
X491050D01*
Y586638D01*
Y642358D01*
X510999Y662307D01*
X537717D01*
Y698627D01*
D02*
G37*
G36*
Y609217D02*
X500127D01*
Y572897D01*
X511234D01*
Y547958D01*
X511819Y545016D01*
X513486Y542522D01*
X517118Y538890D01*
X516302Y535948D01*
X515247Y533689D01*
X512464Y532537D01*
X509963Y530036D01*
X508610Y526768D01*
Y523232D01*
X509963Y519964D01*
X512464Y517463D01*
X515732Y516110D01*
X519268D01*
X522536Y517463D01*
X523543Y518470D01*
X525953Y520081D01*
X534124Y528252D01*
X552832D01*
Y510142D01*
X573912D01*
Y528252D01*
X626080D01*
Y525400D01*
X659160D01*
Y530699D01*
X663387D01*
X666329Y531284D01*
X668823Y532951D01*
X689906Y554034D01*
X691573Y556528D01*
X692158Y559470D01*
Y593540D01*
X692070Y593983D01*
Y604040D01*
X691834Y605226D01*
X691162Y606232D01*
X690156Y606904D01*
X688970Y607140D01*
X679970D01*
X678784Y606904D01*
X677778Y606232D01*
X677106Y605226D01*
X676870Y604040D01*
Y593983D01*
X676782Y593540D01*
Y562654D01*
X663120Y548992D01*
X659160Y546480D01*
X626080D01*
Y543628D01*
X573912D01*
Y547222D01*
X552832D01*
Y543628D01*
X534124D01*
X526610Y551142D01*
Y572897D01*
X537717D01*
Y609217D01*
D02*
G37*
G36*
X998130Y588560D02*
X818130D01*
X817139Y588363D01*
X816299Y587802D01*
X815738Y586961D01*
X815540Y585970D01*
Y522970D01*
X815738Y521979D01*
X816299Y521139D01*
X817139Y520578D01*
X818130Y520381D01*
X998130D01*
X999121Y520578D01*
X999961Y521139D01*
X1000523Y521979D01*
X1000720Y522970D01*
Y585970D01*
X1000523Y586961D01*
X999961Y587802D01*
X999121Y588363D01*
X998130Y588560D01*
D02*
G37*
G36*
X242753Y519294D02*
X239847D01*
X237039Y518542D01*
X234521Y517088D01*
X232466Y515033D01*
X231012Y512515D01*
X230260Y509707D01*
Y506801D01*
X231012Y503993D01*
X232466Y501475D01*
X234521Y499420D01*
X237039Y497966D01*
X239847Y497214D01*
X242753D01*
X245561Y497966D01*
X248079Y499420D01*
X250134Y501475D01*
X251588Y503993D01*
X252340Y506801D01*
Y509707D01*
X251588Y512515D01*
X250134Y515033D01*
X248079Y517088D01*
X245561Y518542D01*
X242753Y519294D01*
D02*
G37*
G36*
X1005670Y505410D02*
X980590D01*
Y490809D01*
X973170D01*
X971204Y490418D01*
X969537Y489304D01*
X964123Y483890D01*
X960732D01*
X957464Y482537D01*
X954963Y480036D01*
X953610Y476768D01*
Y473232D01*
X954963Y469964D01*
X957464Y467463D01*
X960732Y466110D01*
X964268D01*
X967536Y467463D01*
X970037Y469964D01*
X971390Y473232D01*
Y476623D01*
X975299Y480532D01*
X980590D01*
Y465930D01*
X1005670D01*
Y478630D01*
Y491330D01*
Y505410D01*
D02*
G37*
G36*
X916480Y461088D02*
X879780D01*
X877228Y460581D01*
X875065Y459135D01*
X873620Y456972D01*
X873112Y454420D01*
Y436070D01*
Y417720D01*
X873620Y415168D01*
X875065Y413005D01*
X877228Y411560D01*
X879780Y411052D01*
X916480D01*
X919032Y411560D01*
X921195Y413005D01*
X922641Y415168D01*
X923148Y417720D01*
Y436070D01*
Y454420D01*
X922641Y456972D01*
X921195Y459135D01*
X919032Y460581D01*
X916480Y461088D01*
D02*
G37*
G36*
X645470Y423030D02*
X644850D01*
Y423030D01*
X632770D01*
Y407987D01*
X632671Y407490D01*
Y399691D01*
X603269Y370289D01*
X583460D01*
Y372960D01*
X569380D01*
Y359880D01*
X583460D01*
Y360011D01*
X600673D01*
X602744Y355011D01*
X423242Y175509D01*
X377178D01*
X377068Y175774D01*
X374384Y178458D01*
X370878Y179910D01*
X367083D01*
X363576Y178458D01*
X360893Y175774D01*
X359440Y172268D01*
Y168472D01*
X360893Y164966D01*
X362454Y163405D01*
X363142Y160370D01*
X362454Y157335D01*
X360893Y155774D01*
X359440Y152268D01*
Y148472D01*
X360893Y144966D01*
X362454Y143405D01*
X363142Y140370D01*
X362454Y137335D01*
X360893Y135774D01*
X359440Y132268D01*
Y128472D01*
X360893Y124966D01*
X362454Y123405D01*
X363142Y120370D01*
X362454Y117335D01*
X360893Y115774D01*
X359440Y112268D01*
Y108472D01*
X360893Y104966D01*
X362454Y103405D01*
X363142Y100370D01*
X362454Y97335D01*
X360893Y95774D01*
X359440Y92268D01*
Y88472D01*
X360893Y84966D01*
X363576Y82282D01*
X367083Y80830D01*
X370878D01*
X374384Y82282D01*
X377068Y84966D01*
X378520Y88472D01*
Y92268D01*
X377068Y95774D01*
X375507Y97335D01*
X374818Y100370D01*
X375507Y103405D01*
X377068Y104966D01*
X378520Y108472D01*
Y112268D01*
X377068Y115774D01*
X375507Y117335D01*
X374818Y120370D01*
X375507Y123405D01*
X377068Y124966D01*
X377178Y125231D01*
X412362D01*
X414329Y125623D01*
X415996Y126736D01*
X614451Y325191D01*
X619070Y323278D01*
Y305950D01*
X620471D01*
Y221890D01*
X620863Y219923D01*
X621977Y218256D01*
X631110Y209123D01*
Y205732D01*
X632463Y202464D01*
X634964Y199963D01*
X638232Y198610D01*
X641768D01*
X645036Y199963D01*
X647537Y202464D01*
X648890Y205732D01*
Y209268D01*
X648888Y209274D01*
X653126Y212106D01*
X676110Y189123D01*
Y185732D01*
X677463Y182464D01*
X679964Y179963D01*
X683232Y178610D01*
X686768D01*
X690036Y179963D01*
X692537Y182464D01*
X693890Y185732D01*
Y186772D01*
X698890Y188843D01*
X716110Y171623D01*
Y168232D01*
X717463Y164964D01*
X719964Y162463D01*
X723232Y161110D01*
X726768D01*
X730036Y162463D01*
X732537Y164964D01*
X733890Y168232D01*
Y171768D01*
X733888Y171774D01*
X738126Y174606D01*
X761110Y151623D01*
Y148232D01*
X762463Y144964D01*
X764964Y142463D01*
X768232Y141110D01*
X771768D01*
X775036Y142463D01*
X777537Y144964D01*
X778890Y148232D01*
Y151768D01*
X777537Y155036D01*
X775036Y157537D01*
X771768Y158890D01*
X768377D01*
X669349Y257918D01*
Y301581D01*
X670870Y305950D01*
X675250Y305950D01*
X682950Y305950D01*
X687950Y305950D01*
X695650D01*
Y305950D01*
X696270D01*
Y305950D01*
X703970D01*
X708350Y305950D01*
X713350Y305950D01*
X722050D01*
Y307022D01*
X746870D01*
Y297150D01*
X749492D01*
Y288840D01*
X749492Y288840D01*
X749999Y286288D01*
X751445Y284125D01*
X949915Y85655D01*
X949915Y85655D01*
X952078Y84210D01*
X954630Y83702D01*
X954630Y83702D01*
X994841D01*
X997242Y79904D01*
X994733Y75509D01*
X606758D01*
X542639Y139628D01*
Y142566D01*
X545037Y144964D01*
X546390Y148232D01*
Y151768D01*
X545037Y155036D01*
X542536Y157537D01*
X539268Y158890D01*
X535732D01*
X532464Y157537D01*
X529963Y155036D01*
X528610Y151768D01*
Y148232D01*
X529963Y144964D01*
X532361Y142566D01*
Y137500D01*
X532752Y135534D01*
X533866Y133866D01*
X600996Y66737D01*
X602663Y65623D01*
X604630Y65231D01*
X995783D01*
X995893Y64966D01*
X998576Y62283D01*
X1002083Y60830D01*
X1005878D01*
X1009384Y62283D01*
X1012068Y64966D01*
X1013520Y68473D01*
Y72268D01*
X1012068Y75774D01*
X1010507Y77336D01*
X1009818Y80370D01*
X1010507Y83405D01*
X1012068Y84966D01*
X1013520Y88472D01*
Y92268D01*
X1012068Y95774D01*
X1010507Y97335D01*
X1009818Y100370D01*
X1010507Y103405D01*
X1012068Y104966D01*
X1013520Y108472D01*
Y112268D01*
X1012068Y115774D01*
X1010507Y117335D01*
X1009818Y120370D01*
X1010507Y123405D01*
X1012068Y124966D01*
X1013520Y128472D01*
Y132268D01*
X1012068Y135774D01*
X1010507Y137335D01*
X1009818Y140370D01*
X1010507Y143405D01*
X1012068Y144966D01*
X1013520Y148472D01*
Y152268D01*
X1012068Y155774D01*
X1010507Y157335D01*
X1009818Y160370D01*
X1010507Y163405D01*
X1012068Y164966D01*
X1013520Y168472D01*
Y172268D01*
X1012068Y175774D01*
X1010507Y177335D01*
X1009818Y180370D01*
X1010507Y183405D01*
X1012068Y184966D01*
X1013520Y188472D01*
Y192268D01*
X1012068Y195774D01*
X1010507Y197335D01*
X1009818Y200370D01*
X1010507Y203405D01*
X1012068Y204966D01*
X1013520Y208472D01*
Y212267D01*
X1012068Y215774D01*
X1009384Y218458D01*
X1005878Y219910D01*
X1002083D01*
X998576Y218458D01*
X995893Y215774D01*
X994440Y212267D01*
Y208472D01*
X995893Y204966D01*
X997454Y203405D01*
X998142Y200370D01*
X997454Y197335D01*
X995893Y195774D01*
X994440Y192268D01*
Y188472D01*
X995893Y184966D01*
X997454Y183405D01*
X998142Y180370D01*
X997454Y177335D01*
X995893Y175774D01*
X994440Y172268D01*
Y168472D01*
X995893Y164966D01*
X997454Y163405D01*
X998142Y160370D01*
X997454Y157335D01*
X995893Y155774D01*
X994440Y152268D01*
Y148472D01*
X995893Y144966D01*
X997454Y143405D01*
X998142Y140370D01*
X997454Y137335D01*
X995893Y135774D01*
X994440Y132268D01*
Y128472D01*
X995893Y124966D01*
X997454Y123405D01*
X998142Y120370D01*
X997454Y117335D01*
X995893Y115774D01*
X994440Y112268D01*
Y108472D01*
X995893Y104966D01*
X997454Y103405D01*
X997827Y101761D01*
X994841Y97038D01*
X957392D01*
X762828Y291602D01*
Y297150D01*
X765450D01*
Y330230D01*
X746870D01*
Y320358D01*
X722178D01*
Y320490D01*
X722050Y321134D01*
Y335030D01*
X717193D01*
X714720Y340030D01*
X716499Y342361D01*
X747566D01*
X749964Y339963D01*
X753232Y338610D01*
X756768D01*
X760036Y339963D01*
X762537Y342464D01*
X763890Y345732D01*
Y349268D01*
X762537Y352536D01*
X760036Y355037D01*
X758017Y355873D01*
X756768Y356390D01*
Y361110D01*
X760036Y362463D01*
X762537Y364964D01*
X763890Y368232D01*
Y371768D01*
X762537Y375036D01*
X760036Y377537D01*
X756768Y378890D01*
X753232D01*
X749964Y377537D01*
X747566Y375139D01*
X722500D01*
X720534Y374748D01*
X718866Y373634D01*
X685720Y340487D01*
X684880Y339231D01*
X684606Y338820D01*
X682445Y336111D01*
X679868Y335030D01*
X678570Y335030D01*
X670870Y335030D01*
X665870Y335030D01*
X658170Y335030D01*
X653170Y335030D01*
X645470Y335030D01*
X640470Y335030D01*
X630823Y335030D01*
X628909Y339650D01*
X679544Y390284D01*
X680658Y391951D01*
X681049Y393918D01*
Y393950D01*
X682950D01*
Y423030D01*
X675250D01*
X670250Y423030D01*
Y423030D01*
X670250Y423030D01*
X662550D01*
X658170Y423030D01*
Y423030D01*
X657550D01*
Y423030D01*
X649850D01*
X645470Y423030D01*
Y423030D01*
D02*
G37*
G36*
X881350Y703710D02*
X867270D01*
Y683130D01*
X881350D01*
Y686651D01*
X899920D01*
Y682750D01*
X920500D01*
Y686651D01*
X979420D01*
Y682750D01*
X984571D01*
Y677790D01*
X984962Y675824D01*
X986076Y674156D01*
X1019861Y640371D01*
Y349628D01*
X1010670Y340437D01*
X1005670Y342508D01*
Y351630D01*
Y364330D01*
Y377030D01*
Y389730D01*
Y402430D01*
Y415130D01*
Y427830D01*
Y440530D01*
Y454610D01*
X980590D01*
Y452709D01*
X967119D01*
X964268Y453890D01*
X960732D01*
X957464Y452537D01*
X954963Y450036D01*
X953610Y446768D01*
Y443232D01*
X954963Y439964D01*
X957464Y437463D01*
X960732Y436110D01*
X964268D01*
X967536Y437463D01*
X970037Y439964D01*
X971059Y442432D01*
X980590D01*
Y427830D01*
Y415130D01*
Y402430D01*
Y389730D01*
Y377030D01*
Y364330D01*
Y351630D01*
Y338930D01*
X1002092D01*
X1004163Y333930D01*
X987871Y317639D01*
X966421D01*
X965892Y318430D01*
X968565Y323430D01*
X972320D01*
Y348510D01*
X920140D01*
Y323430D01*
X947441D01*
Y319920D01*
X947832Y317953D01*
X948946Y316286D01*
X956366Y308866D01*
X958034Y307752D01*
X960000Y307361D01*
X990000D01*
X991966Y307752D01*
X993634Y308866D01*
X1028634Y343866D01*
X1029748Y345533D01*
X1030139Y347500D01*
Y642500D01*
X1029748Y644466D01*
X1028634Y646134D01*
X997017Y677750D01*
X999089Y682750D01*
X1000000D01*
Y700830D01*
X979420D01*
Y696929D01*
X920500D01*
Y700830D01*
X899920D01*
Y696929D01*
X881350D01*
Y703710D01*
D02*
G37*
G36*
X484298Y356420D02*
X480901D01*
X477762Y355120D01*
X475360Y352717D01*
X474060Y349578D01*
Y346181D01*
X475360Y343042D01*
X477762Y340640D01*
X480901Y339340D01*
X484298D01*
X487437Y340640D01*
X489840Y343042D01*
X491140Y346181D01*
Y349578D01*
X489840Y352717D01*
X487437Y355120D01*
X484298Y356420D01*
D02*
G37*
G36*
X465740Y331020D02*
X448660D01*
Y326379D01*
X433694D01*
X432536Y327537D01*
X429268Y328890D01*
X425732D01*
X422464Y327537D01*
X419963Y325036D01*
X418610Y321768D01*
Y318232D01*
X419963Y314964D01*
X422464Y312463D01*
X425732Y311110D01*
X429268D01*
X432536Y312463D01*
X435037Y314964D01*
X435508Y316101D01*
X448660D01*
Y313940D01*
X465740D01*
Y331020D01*
D02*
G37*
G36*
X908820Y348510D02*
X856640D01*
Y323430D01*
X908820D01*
Y348510D01*
D02*
G37*
G36*
X563460Y382460D02*
X549380D01*
Y381059D01*
X544420D01*
X542454Y380668D01*
X540787Y379554D01*
X531282Y370049D01*
X530168Y368382D01*
X529776Y366415D01*
Y329849D01*
X527463Y327536D01*
X526110Y324268D01*
Y320732D01*
X527463Y317464D01*
X529964Y314963D01*
X533232Y313610D01*
X536768D01*
X540036Y314963D01*
X542537Y317464D01*
X543890Y320732D01*
Y324268D01*
X542537Y327536D01*
X540054Y330019D01*
Y364287D01*
X544605Y368838D01*
X549380Y369380D01*
Y369380D01*
X563460D01*
Y382460D01*
D02*
G37*
G36*
X222730Y347590D02*
X195650D01*
Y325510D01*
X204051D01*
Y318310D01*
X204442Y316344D01*
X205556Y314677D01*
X230983Y289250D01*
X231020Y289195D01*
Y282210D01*
X237920D01*
X238230Y282003D01*
X252743Y267489D01*
X252743Y267489D01*
X273866Y246366D01*
X275534Y245252D01*
X277500Y244861D01*
X302871D01*
X314133Y233600D01*
X312062Y228600D01*
X175260D01*
Y208280D01*
X207689D01*
Y178860D01*
X190840D01*
Y126652D01*
X185110Y120922D01*
X145295D01*
X144748Y121468D01*
X142402Y122823D01*
X139785Y123524D01*
X137075D01*
X134458Y122823D01*
X132112Y121468D01*
X130196Y119552D01*
X129370Y118123D01*
X79318Y68070D01*
X73110D01*
Y50990D01*
X74500D01*
X75219Y49677D01*
X76032Y45990D01*
X74410Y44367D01*
X73110Y41229D01*
Y37831D01*
X74410Y34692D01*
X76812Y32290D01*
X79951Y30990D01*
X83349D01*
X85406Y31842D01*
X120149D01*
X128140Y23852D01*
Y14144D01*
X148720D01*
Y34724D01*
X139012D01*
X128770Y44966D01*
X126276Y46632D01*
X123334Y47218D01*
X93154D01*
X90190Y50990D01*
X90190Y52218D01*
Y57198D01*
X136177Y103185D01*
X137075Y102944D01*
X139785D01*
X142402Y103645D01*
X144748Y105000D01*
X145295Y105547D01*
X188295D01*
X191236Y106132D01*
X193731Y107798D01*
X201712Y115780D01*
X207689D01*
Y86360D01*
X175260D01*
Y66040D01*
X224231D01*
X225380Y65889D01*
X226530Y66040D01*
X317500D01*
Y86360D01*
X243072D01*
Y115780D01*
X259920D01*
Y178860D01*
X243072D01*
Y208280D01*
X317361D01*
X317500Y208280D01*
X322361Y207945D01*
Y149628D01*
X306590Y133857D01*
X301920Y133060D01*
Y133060D01*
X274840D01*
Y115980D01*
X301920D01*
Y119381D01*
X304520D01*
X306486Y119772D01*
X308154Y120886D01*
X331134Y143866D01*
X332248Y145534D01*
X332639Y147500D01*
Y227500D01*
X332248Y229466D01*
X331134Y231134D01*
X308634Y253634D01*
X306966Y254748D01*
X305000Y255139D01*
X279629D01*
X260011Y274756D01*
X260011Y274757D01*
X257557Y277210D01*
X259628Y282210D01*
X261647Y282210D01*
X271600D01*
Y287361D01*
X335416D01*
X337383Y287752D01*
X339050Y288866D01*
X341861Y291678D01*
X343232Y291110D01*
X346768D01*
X350036Y292463D01*
X352537Y294964D01*
X353890Y298232D01*
Y301768D01*
X352537Y305036D01*
X350036Y307537D01*
X346768Y308890D01*
X343232D01*
X339964Y307537D01*
X337463Y305036D01*
X336110Y301768D01*
Y300461D01*
X333288Y297639D01*
X271600D01*
Y302790D01*
X257520D01*
Y286635D01*
X257520Y284318D01*
X252520Y282247D01*
X245114Y289654D01*
X245100Y289663D01*
Y302790D01*
X231977D01*
X214329Y320439D01*
Y325510D01*
X222730D01*
Y347590D01*
D02*
G37*
G36*
X201340Y479294D02*
X179260D01*
Y468086D01*
X54654Y343480D01*
X52987Y340986D01*
X52402Y338044D01*
Y323349D01*
X51856Y322802D01*
X50501Y320456D01*
X49800Y317839D01*
Y315129D01*
X50501Y312512D01*
X51856Y310166D01*
X52402Y309620D01*
Y158524D01*
X52987Y155582D01*
X54654Y153088D01*
X67884Y139857D01*
X70379Y138191D01*
X73321Y137605D01*
X78924D01*
X81221Y136654D01*
X84619D01*
X87757Y137954D01*
X90160Y140357D01*
X91460Y143495D01*
Y146893D01*
X90160Y150031D01*
X87757Y152434D01*
X84619Y153734D01*
X81221D01*
X79403Y152981D01*
X76505D01*
X67778Y161708D01*
Y309620D01*
X68324Y310166D01*
X69679Y312512D01*
X70380Y315129D01*
Y317839D01*
X69679Y320456D01*
X68324Y322802D01*
X67778Y323349D01*
Y334860D01*
X190132Y457214D01*
X201340D01*
Y479294D01*
D02*
G37*
%LPD*%
G36*
X717785Y520285D02*
X717785Y520285D01*
X719948Y518839D01*
X722500Y518332D01*
X722500Y518332D01*
X750540D01*
Y515730D01*
X774190D01*
X795911Y494009D01*
X795762Y492513D01*
X794219Y489009D01*
X775951D01*
Y490311D01*
X760749D01*
Y473147D01*
X775951D01*
Y478731D01*
X810590D01*
Y465930D01*
Y453230D01*
Y440530D01*
Y427830D01*
Y415130D01*
Y402430D01*
Y389730D01*
Y377030D01*
Y371089D01*
X805590Y369018D01*
X770139Y404469D01*
Y422500D01*
X769748Y424467D01*
X768634Y426134D01*
X748634Y446134D01*
X746967Y447248D01*
X745000Y447639D01*
X708977D01*
X706906Y452639D01*
X711134Y456866D01*
X712248Y458534D01*
X712639Y460500D01*
Y518898D01*
X717258Y520812D01*
X717785Y520285D01*
D02*
G37*
G36*
X749964Y362463D02*
X751983Y361627D01*
X753232Y361110D01*
Y356390D01*
X749964Y355037D01*
X747566Y352639D01*
X719477D01*
X717406Y357639D01*
X724629Y364861D01*
X747566D01*
X749964Y362463D01*
D02*
G37*
G36*
X682575Y205158D02*
X680929Y199733D01*
X680183Y199584D01*
X646868Y232900D01*
X646850Y232937D01*
X647025Y233636D01*
X652564Y235169D01*
X682575Y205158D01*
D02*
G37*
G36*
X727378Y185355D02*
X725454Y180207D01*
X722282Y179985D01*
X657573Y244694D01*
X657500Y247172D01*
X657764Y248392D01*
X662828Y249905D01*
X727378Y185355D01*
D02*
G37*
G36*
X420464Y160231D02*
X415742Y155509D01*
X377178D01*
X377068Y155774D01*
X375507Y157335D01*
X374818Y160370D01*
X375507Y163405D01*
X377068Y164966D01*
X377178Y165231D01*
X418393D01*
X420464Y160231D01*
D02*
G37*
G36*
X414956Y140231D02*
X410234Y135509D01*
X377178D01*
X377068Y135774D01*
X375507Y137335D01*
X374818Y140370D01*
X375507Y143405D01*
X377068Y144966D01*
X377178Y145231D01*
X412885D01*
X414956Y140231D01*
D02*
G37*
D17*
X715510Y320490D02*
D03*
X625610D02*
D03*
Y408490D02*
D03*
X715510D02*
D03*
D18*
X702310Y320490D02*
D03*
X689610D02*
D03*
X676910D02*
D03*
X664210D02*
D03*
X651510D02*
D03*
X638810D02*
D03*
Y408490D02*
D03*
X651510D02*
D03*
X664210D02*
D03*
X676910D02*
D03*
X689610D02*
D03*
X702310D02*
D03*
D19*
X661670Y656540D02*
D03*
D20*
X684470Y593540D02*
D03*
X638870D02*
D03*
D21*
X576420Y366420D02*
D03*
Y385420D02*
D03*
X556420Y375920D02*
D03*
D22*
X823130Y511070D02*
D03*
Y498370D02*
D03*
Y485670D02*
D03*
Y472970D02*
D03*
Y460270D02*
D03*
Y447570D02*
D03*
Y434870D02*
D03*
Y422170D02*
D03*
Y409470D02*
D03*
Y396770D02*
D03*
Y384070D02*
D03*
Y371370D02*
D03*
Y358670D02*
D03*
Y345970D02*
D03*
X993130D02*
D03*
Y358670D02*
D03*
Y371370D02*
D03*
Y384070D02*
D03*
Y396770D02*
D03*
Y409470D02*
D03*
Y422170D02*
D03*
Y434870D02*
D03*
Y447570D02*
D03*
Y460270D02*
D03*
Y472970D02*
D03*
Y485670D02*
D03*
Y498370D02*
D03*
Y511070D02*
D03*
D23*
X850980Y335970D02*
D03*
X863680D02*
D03*
X876380D02*
D03*
X889080D02*
D03*
X901780D02*
D03*
X914480D02*
D03*
X927180D02*
D03*
X939880D02*
D03*
X952580D02*
D03*
X965280D02*
D03*
D24*
X879780Y454420D02*
D03*
X898130D02*
D03*
X916480D02*
D03*
X879780Y436070D02*
D03*
X898130D02*
D03*
X916480D02*
D03*
X879780Y417720D02*
D03*
X898130D02*
D03*
X916480D02*
D03*
D25*
X756160Y313690D02*
D03*
X788160D02*
D03*
D26*
X767080Y525020D02*
D03*
Y557020D02*
D03*
D27*
X768350Y481729D02*
D03*
Y465691D02*
D03*
D28*
X264560Y292500D02*
D03*
X238060D02*
D03*
X295190Y396240D02*
D03*
X268690D02*
D03*
X874310Y693420D02*
D03*
X847810D02*
D03*
D29*
X246380Y218440D02*
D03*
Y76200D02*
D03*
D30*
X291190Y336550D02*
D03*
Y361950D02*
D03*
X209190D02*
D03*
Y336550D02*
D03*
D31*
X563372Y528682D02*
D03*
Y478682D02*
D03*
D32*
X910210Y691790D02*
D03*
X989710D02*
D03*
X910210Y646790D02*
D03*
X989710D02*
D03*
D33*
X518922Y591057D02*
D03*
Y680467D02*
D03*
D34*
X642620Y535940D02*
D03*
Y506440D02*
D03*
D35*
X815340Y611218D02*
D03*
Y625762D02*
D03*
D42*
X225380Y147320D02*
D03*
D43*
X288380Y124520D02*
D03*
Y170120D02*
D03*
D44*
X483362Y494382D02*
D03*
Y538382D02*
D03*
D46*
X1003980Y70370D02*
D03*
Y90370D02*
D03*
Y110370D02*
D03*
Y130370D02*
D03*
Y150370D02*
D03*
Y170370D02*
D03*
Y190370D02*
D03*
Y210370D02*
D03*
Y230370D02*
D03*
X368980D02*
D03*
Y210370D02*
D03*
Y190370D02*
D03*
Y170370D02*
D03*
Y150370D02*
D03*
Y130370D02*
D03*
Y110370D02*
D03*
Y90370D02*
D03*
D47*
Y70370D02*
D03*
D50*
X97300Y561090D02*
D03*
X351300D02*
D03*
D51*
X138430Y24434D02*
D03*
D52*
Y113234D02*
D03*
X60090Y316484D02*
D03*
D53*
X110090D02*
D03*
D56*
X81650Y39530D02*
D03*
X82920Y145194D02*
D03*
X508000Y322480D02*
D03*
X482600Y347880D02*
D03*
D57*
X81650Y59530D02*
D03*
X82920Y165194D02*
D03*
X457200Y322480D02*
D03*
D59*
X537500Y137500D02*
Y150000D01*
Y137500D02*
X604630Y70370D01*
X1003980D01*
X534915Y322585D02*
Y366415D01*
X544420Y375920D01*
X556420D01*
X534915Y322585D02*
X535000Y322500D01*
X577690Y365150D02*
X605398D01*
X576420Y366420D02*
X577690Y365150D01*
X637810Y397562D02*
Y407490D01*
X605398Y365150D02*
X637810Y397562D01*
X425370Y170370D02*
X650510Y395510D01*
X368980Y170370D02*
X425370D01*
X650510Y395510D02*
Y407490D01*
X663210Y395710D02*
Y407490D01*
X417870Y150370D02*
X663210Y395710D01*
X368980Y150370D02*
X417870D01*
X701954Y320847D02*
Y336954D01*
X712500Y347500D01*
X755000D01*
X722500Y370000D02*
X755000D01*
X689353Y320747D02*
Y336853D01*
X722500Y370000D01*
X651510Y243490D02*
X725000Y170000D01*
X664210Y255790D02*
Y320490D01*
Y255790D02*
X770000Y150000D01*
X651510Y243490D02*
Y320490D01*
X638810Y233690D02*
Y320490D01*
Y233690D02*
X685000Y187500D01*
X625610Y221890D02*
X640000Y207500D01*
X625610Y221890D02*
Y320490D01*
X368980Y130370D02*
X412362D01*
X675910Y393918D01*
Y407490D01*
X427500Y320000D02*
X428740Y321240D01*
X455960D01*
X457200Y322480D01*
X775000Y638462D02*
X812411D01*
X815340Y635533D01*
Y625762D02*
Y635533D01*
X752500Y649580D02*
X763618Y638462D01*
X752500Y649580D02*
Y651712D01*
X688750Y666250D02*
X715920Y693420D01*
X678678Y656178D02*
X700119Y654881D01*
X678678Y656178D02*
X688750Y666250D01*
X715920Y693420D02*
X847810D01*
X700119Y654881D02*
X752500Y651712D01*
X770491Y483870D02*
X821330D01*
X768350Y481729D02*
X770491Y483870D01*
X821330D02*
X823130Y485670D01*
X707500Y460500D02*
Y540000D01*
X699500Y452500D02*
X707500Y460500D01*
X874310Y691790D02*
Y693420D01*
Y691790D02*
X910210D01*
X989710D01*
X765000Y402341D02*
Y422500D01*
X745000Y442500D02*
X765000Y422500D01*
X462500Y442500D02*
X745000D01*
X412500Y392500D02*
X462500Y442500D01*
X765000Y402341D02*
X808670Y358670D01*
X460000Y452500D02*
X699500D01*
X293690Y361950D02*
X315000Y383260D01*
X291190Y361950D02*
X293690D01*
X324584Y392500D02*
X412500D01*
X317084Y385000D02*
X324584Y392500D01*
X315000Y385000D02*
X317084D01*
X315000Y383260D02*
Y385000D01*
X301450Y402500D02*
X315000D01*
X410000D01*
X295190Y396240D02*
X301450Y402500D01*
X410000D02*
X460000Y452500D01*
X335416Y292500D02*
X342916Y300000D01*
X264560Y292500D02*
X335416D01*
X342916Y300000D02*
X345000D01*
X952580Y319920D02*
Y335970D01*
Y319920D02*
X960000Y312500D01*
X990000D01*
X989710Y677790D02*
X1025000Y642500D01*
Y347500D02*
Y642500D01*
X989710Y677790D02*
Y691790D01*
X808670Y358670D02*
X823130D01*
X962500Y445000D02*
X965070Y447570D01*
X993130D01*
X973170Y485670D02*
X993130D01*
X962500Y475000D02*
X973170Y485670D01*
X277500Y250000D02*
X305000D01*
X327500Y147500D02*
Y227500D01*
X305000Y250000D02*
X327500Y227500D01*
X256377Y271123D02*
X277500Y250000D01*
X235000Y292310D02*
Y292500D01*
X241480Y286020D02*
X256377Y271123D01*
Y271123D02*
Y271123D01*
X241290Y286020D02*
X241480D01*
X235000Y292310D02*
X241290Y286020D01*
X209190Y318310D02*
X235000Y292500D01*
X304520Y124520D02*
X327500Y147500D01*
X288380Y124520D02*
X304520D01*
X209190Y318310D02*
Y336550D01*
X275937Y336563D02*
X291203D01*
X268690Y343810D02*
X275937Y336563D01*
X268690Y343810D02*
Y396240D01*
X990000Y312500D02*
X1025000Y347500D01*
X518287Y680467D02*
X518922D01*
D60*
X277500Y620000D02*
X450000D01*
X563372Y535940D02*
X642620D01*
X60090Y158524D02*
Y316484D01*
Y158524D02*
X73321Y145293D01*
X82821D01*
X82920Y145194D01*
X60090Y316484D02*
Y338044D01*
X645067Y538387D02*
X663387D01*
X684470Y559470D02*
Y593540D01*
X642620Y535940D02*
X645067Y538387D01*
X663387D02*
X684470Y559470D01*
X518922Y547958D02*
X530940Y535940D01*
X518922Y547958D02*
Y591057D01*
X483362Y538382D02*
Y586638D01*
X450000Y620000D02*
X483362Y586638D01*
Y645542D01*
X520517Y525517D02*
X530940Y535940D01*
X517500Y525000D02*
X518017Y525517D01*
X520517D01*
X530940Y535940D02*
X560372D01*
X138430Y113234D02*
X188295D01*
X135354D02*
X138430D01*
X188295D02*
X222380Y147320D01*
X81650Y39530D02*
X123334D01*
X138430Y24434D01*
X207300Y508254D02*
Y549800D01*
X277500Y620000D01*
X483362Y645542D02*
X518287Y680467D01*
X60090Y338044D02*
X190300Y468254D01*
X81650Y59530D02*
X135354Y113234D01*
D61*
X715510Y313690D02*
X756160D01*
Y288840D02*
Y313690D01*
X954630Y90370D02*
X1003980D01*
X756160Y288840D02*
X954630Y90370D01*
X715510Y313690D02*
Y320490D01*
X916480Y417720D02*
Y436070D01*
X879780Y454420D02*
X898130D01*
Y417720D02*
X916480D01*
Y436070D02*
Y454420D01*
X879780Y436070D02*
Y454420D01*
X898130D02*
X916480D01*
X879780Y417720D02*
X898130D01*
X879780D02*
Y436070D01*
X800980Y498370D02*
X823130D01*
X774330Y525020D02*
X800980Y498370D01*
X767080Y525020D02*
X774330D01*
X688750Y666250D02*
X700119Y654881D01*
X707500Y647500D01*
X763618Y639732D02*
X775000D01*
X722500Y525000D02*
X765039D01*
X707500Y540000D02*
X722500Y525000D01*
X707500Y540000D02*
Y647500D01*
X898130Y436070D02*
Y454420D01*
Y417720D02*
Y436070D01*
X916480D01*
X879780D02*
X898130D01*
D62*
X225380Y147320D02*
Y210000D01*
Y83580D02*
Y147320D01*
D63*
X898750Y436250D02*
D03*
D64*
X688750Y666250D02*
D03*
D65*
X258300Y468254D02*
D03*
X241300Y508254D02*
D03*
X224300Y468254D02*
D03*
X207300Y508254D02*
D03*
D66*
X190300Y468254D02*
D03*
D67*
X227500Y47500D02*
D03*
X180000D02*
D03*
X995000Y280000D02*
D03*
X665000Y480000D02*
D03*
X600000Y477500D02*
D03*
X297500Y555000D02*
D03*
X392500Y435000D02*
D03*
X332500Y440000D02*
D03*
X442500Y357500D02*
D03*
X397500Y360000D02*
D03*
X865000Y647500D02*
D03*
X952500Y615000D02*
D03*
X865000D02*
D03*
X782500Y587500D02*
D03*
X737500Y590000D02*
D03*
X592500Y575000D02*
D03*
X557500Y630000D02*
D03*
X82500Y617500D02*
D03*
X192500Y620000D02*
D03*
X427500Y575000D02*
D03*
X420000Y525000D02*
D03*
X412500Y672500D02*
D03*
X190000D02*
D03*
X295000D02*
D03*
X82500D02*
D03*
X102500Y465000D02*
D03*
X57500Y455000D02*
D03*
X162500Y380000D02*
D03*
X222500Y412500D02*
D03*
X182500Y265000D02*
D03*
X115000Y230000D02*
D03*
X157500Y170000D02*
D03*
X140000Y72500D02*
D03*
X585000Y420000D02*
D03*
X507500Y392500D02*
D03*
X510000Y177500D02*
D03*
X507500Y122500D02*
D03*
X457500Y275000D02*
D03*
X397500D02*
D03*
X427500Y232500D02*
D03*
X872500Y495000D02*
D03*
X922500D02*
D03*
X950000Y375000D02*
D03*
X690000Y377500D02*
D03*
X670000Y355000D02*
D03*
X960000Y245000D02*
D03*
X920000Y282500D02*
D03*
X875000Y242500D02*
D03*
X835000Y282500D02*
D03*
X757500Y240000D02*
D03*
X712500Y270000D02*
D03*
X585000Y260000D02*
D03*
X595000Y180000D02*
D03*
X675000Y132500D02*
D03*
X835000Y117500D02*
D03*
X927500Y37500D02*
D03*
X712500Y42500D02*
D03*
X417500Y40000D02*
D03*
X275000Y100000D02*
D03*
Y192500D02*
D03*
X725000Y170000D02*
D03*
X770000Y150000D02*
D03*
X685000Y187500D02*
D03*
X640000Y207500D02*
D03*
X537500Y150000D02*
D03*
X535000Y322500D02*
D03*
X427500Y320000D02*
D03*
X790000Y432500D02*
D03*
X732500Y485000D02*
D03*
X315000Y385000D02*
D03*
Y402500D02*
D03*
X517500Y525000D02*
D03*
X345000Y300000D02*
D03*
X755000Y370000D02*
D03*
Y347500D02*
D03*
X962500Y445000D02*
D03*
Y475000D02*
D03*
M02*
