G04*
G04 #@! TF.GenerationSoftware,Altium Limited,Altium Designer,25.1.2 (22)*
G04*
G04 Layer_Physical_Order=2*
G04 Layer_Color=16711680*
%FSLAX44Y44*%
%MOMM*%
G71*
G04*
G04 #@! TF.SameCoordinates,735CD127-3729-4D2A-A9AC-AB826B6A9FB7*
G04*
G04*
G04 #@! TF.FilePolarity,Positive*
G04*
G01*
G75*
%ADD46C,1.4000*%
%ADD47R,1.4000X1.4000*%
%ADD50C,3.7000*%
%ADD51R,1.5500X1.5500*%
%ADD52C,1.5500*%
%ADD53R,1.5500X1.5500*%
%ADD56C,1.2000*%
%ADD57R,1.2000X1.2000*%
%ADD59C,0.5000*%
%ADD60C,1.0000*%
%ADD65C,1.7000*%
%ADD66R,1.7000X1.7000*%
%ADD67C,1.2700*%
G36*
X1040000D02*
X0D01*
Y725000D01*
X1040000D01*
Y0D01*
D02*
G37*
%LPC*%
G36*
X998130Y588560D02*
X818130D01*
X817139Y588363D01*
X816299Y587802D01*
X815738Y586961D01*
X815540Y585970D01*
Y522970D01*
X815738Y521979D01*
X816299Y521139D01*
X817139Y520578D01*
X818130Y520381D01*
X998130D01*
X999121Y520578D01*
X999961Y521139D01*
X1000523Y521979D01*
X1000720Y522970D01*
Y585970D01*
X1000523Y586961D01*
X999961Y587802D01*
X999121Y588363D01*
X998130Y588560D01*
D02*
G37*
G36*
X208754Y519294D02*
X205847D01*
X203039Y518542D01*
X200521Y517088D01*
X198466Y515033D01*
X197012Y512515D01*
X196260Y509707D01*
Y506801D01*
X197012Y503993D01*
X198466Y501475D01*
X200521Y499420D01*
X203039Y497966D01*
X205847Y497214D01*
X208754D01*
X211561Y497966D01*
X214079Y499420D01*
X216134Y501475D01*
X217588Y503993D01*
X218340Y506801D01*
Y509707D01*
X217588Y512515D01*
X216134Y515033D01*
X214079Y517088D01*
X211561Y518542D01*
X208754Y519294D01*
D02*
G37*
G36*
X518670Y533890D02*
X516330D01*
X514069Y533284D01*
X512041Y532114D01*
X510386Y530459D01*
X509216Y528431D01*
X508610Y526170D01*
Y523830D01*
X509216Y521569D01*
X509895Y520392D01*
Y495650D01*
X496850Y482605D01*
X450000D01*
X449500Y482539D01*
X449000Y482605D01*
X338150D01*
X307124Y513632D01*
X305549Y514840D01*
X303714Y515600D01*
X301746Y515859D01*
X249308D01*
X248079Y517088D01*
X245561Y518542D01*
X242753Y519294D01*
X239847D01*
X237039Y518542D01*
X234521Y517088D01*
X232466Y515033D01*
X231012Y512515D01*
X230260Y509707D01*
Y506801D01*
X231012Y503993D01*
X232466Y501475D01*
X234521Y499420D01*
X237039Y497966D01*
X239847Y497214D01*
X242753D01*
X245561Y497966D01*
X248079Y499420D01*
X249308Y500649D01*
X298596D01*
X329622Y469622D01*
X331198Y468414D01*
X333032Y467654D01*
X335000Y467395D01*
X449000D01*
X449500Y467461D01*
X450000Y467395D01*
X500000D01*
X501968Y467654D01*
X503802Y468414D01*
X505378Y469622D01*
X505685Y470023D01*
X506085Y470330D01*
X507123Y471368D01*
X509895Y470220D01*
Y460650D01*
X451225Y401980D01*
X371875D01*
X369907Y401721D01*
X368832Y401276D01*
X368073Y400961D01*
X366497Y399753D01*
X339622Y372878D01*
X338414Y371302D01*
X337654Y369468D01*
X337395Y367500D01*
Y304608D01*
X336716Y303431D01*
X336110Y301170D01*
Y298830D01*
X336716Y296569D01*
X337395Y295392D01*
Y105000D01*
Y83150D01*
X286284Y32039D01*
X148720D01*
Y34724D01*
X128140D01*
Y14144D01*
X148720D01*
Y16829D01*
X289434D01*
X291402Y17088D01*
X293236Y17848D01*
X294811Y19056D01*
X350378Y74622D01*
X351586Y76198D01*
X352346Y78032D01*
X352605Y80000D01*
Y86208D01*
X354276Y86900D01*
X355605Y87190D01*
X357085Y86200D01*
X359052Y85809D01*
X360598D01*
X361346Y84513D01*
X363122Y82736D01*
X365298Y81480D01*
X367724Y80830D01*
X370236D01*
X372663Y81480D01*
X374838Y82736D01*
X376614Y84513D01*
X377029Y85231D01*
X995931D01*
X996346Y84513D01*
X998122Y82736D01*
X999351Y82027D01*
X999486Y81631D01*
Y79109D01*
X999351Y78713D01*
X998122Y78004D01*
X996346Y76228D01*
X995090Y74053D01*
X994440Y71626D01*
Y69114D01*
X995090Y66688D01*
X996346Y64513D01*
X998122Y62736D01*
X1000298Y61480D01*
X1002724Y60830D01*
X1005236D01*
X1007663Y61480D01*
X1009838Y62736D01*
X1011614Y64513D01*
X1012870Y66688D01*
X1013520Y69114D01*
Y71626D01*
X1012870Y74053D01*
X1011614Y76228D01*
X1009838Y78004D01*
X1008609Y78713D01*
X1008474Y79109D01*
Y81631D01*
X1008609Y82027D01*
X1009838Y82736D01*
X1011614Y84513D01*
X1012870Y86688D01*
X1013520Y89114D01*
Y91626D01*
X1012870Y94052D01*
X1011614Y96228D01*
X1009838Y98004D01*
X1008609Y98713D01*
X1008474Y99109D01*
Y101631D01*
X1008609Y102027D01*
X1009838Y102736D01*
X1011614Y104512D01*
X1012870Y106688D01*
X1013520Y109114D01*
Y111626D01*
X1012870Y114052D01*
X1011614Y116228D01*
X1009838Y118004D01*
X1008609Y118713D01*
X1008474Y119109D01*
Y121631D01*
X1008609Y122027D01*
X1009838Y122736D01*
X1011614Y124512D01*
X1012870Y126688D01*
X1013520Y129114D01*
Y131626D01*
X1012870Y134052D01*
X1011614Y136228D01*
X1009838Y138004D01*
X1008609Y138713D01*
X1008474Y139109D01*
Y141631D01*
X1008609Y142027D01*
X1009838Y142736D01*
X1011614Y144512D01*
X1012870Y146688D01*
X1013520Y149114D01*
Y151626D01*
X1012870Y154052D01*
X1011614Y156228D01*
X1009838Y158004D01*
X1008609Y158713D01*
X1008474Y159109D01*
Y161631D01*
X1008609Y162027D01*
X1009838Y162736D01*
X1011614Y164512D01*
X1012870Y166688D01*
X1013520Y169114D01*
Y171626D01*
X1012870Y174052D01*
X1011614Y176228D01*
X1009838Y178004D01*
X1008609Y178713D01*
X1008474Y179109D01*
Y181631D01*
X1008609Y182027D01*
X1009838Y182736D01*
X1011614Y184512D01*
X1012870Y186688D01*
X1013520Y189114D01*
Y191626D01*
X1012870Y194052D01*
X1011614Y196228D01*
X1009838Y198004D01*
X1008609Y198713D01*
X1008474Y199109D01*
Y201631D01*
X1008609Y202027D01*
X1009838Y202736D01*
X1011614Y204512D01*
X1012870Y206688D01*
X1013520Y209114D01*
Y211626D01*
X1012870Y214052D01*
X1011614Y216228D01*
X1009838Y218004D01*
X1007663Y219260D01*
X1005236Y219910D01*
X1002724D01*
X1000298Y219260D01*
X998122Y218004D01*
X996346Y216228D01*
X995931Y215509D01*
X644954D01*
X644176Y215354D01*
X643431Y215784D01*
X641170Y216390D01*
X638830D01*
X636569Y215784D01*
X634541Y214614D01*
X632886Y212959D01*
X631716Y210931D01*
X631110Y208670D01*
Y206330D01*
X631716Y204069D01*
X632886Y202041D01*
X634541Y200386D01*
X636569Y199216D01*
X638830Y198610D01*
X641170D01*
X643431Y199216D01*
X645459Y200386D01*
X647114Y202041D01*
X648284Y204069D01*
X648596Y205231D01*
X995931D01*
X996346Y204512D01*
X998122Y202736D01*
X999351Y202027D01*
X999486Y201631D01*
Y199109D01*
X999351Y198713D01*
X998122Y198004D01*
X996346Y196228D01*
X995103Y194074D01*
X690999D01*
X690459Y194614D01*
X688431Y195784D01*
X686170Y196390D01*
X683830D01*
X681569Y195784D01*
X679541Y194614D01*
X677886Y192959D01*
X676716Y190931D01*
X676110Y188670D01*
Y186330D01*
X676716Y184069D01*
X677886Y182041D01*
X679541Y180386D01*
X681569Y179216D01*
X683830Y178610D01*
X686170D01*
X688431Y179216D01*
X690459Y180386D01*
X692114Y182041D01*
X693127Y183796D01*
X997062D01*
X998122Y182736D01*
X999351Y182027D01*
X999486Y181631D01*
Y179109D01*
X999351Y178713D01*
X998122Y178004D01*
X996346Y176228D01*
X995931Y175509D01*
X732064D01*
X730459Y177114D01*
X728431Y178284D01*
X726170Y178890D01*
X723830D01*
X721569Y178284D01*
X719541Y177114D01*
X717886Y175459D01*
X716716Y173431D01*
X716110Y171170D01*
Y168830D01*
X716716Y166569D01*
X717886Y164541D01*
X719541Y162886D01*
X721569Y161716D01*
X723830Y161110D01*
X726170D01*
X728431Y161716D01*
X730459Y162886D01*
X732114Y164541D01*
X732512Y165231D01*
X995931D01*
X996346Y164512D01*
X998122Y162736D01*
X999351Y162027D01*
X999486Y161631D01*
Y159109D01*
X999351Y158713D01*
X998122Y158004D01*
X996346Y156228D01*
X995824Y155324D01*
X777192D01*
X777114Y155459D01*
X775459Y157114D01*
X773431Y158284D01*
X771170Y158890D01*
X768830D01*
X766569Y158284D01*
X764541Y157114D01*
X762886Y155459D01*
X761716Y153431D01*
X761110Y151170D01*
Y148830D01*
X761716Y146569D01*
X762886Y144541D01*
X764541Y142886D01*
X766569Y141716D01*
X768830Y141110D01*
X771170D01*
X773431Y141716D01*
X775459Y142886D01*
X777114Y144541D01*
X777405Y145046D01*
X996038D01*
X996346Y144512D01*
X998122Y142736D01*
X999351Y142027D01*
X999486Y141631D01*
Y139109D01*
X999351Y138713D01*
X998122Y138004D01*
X996346Y136228D01*
X995090Y134052D01*
X994440Y131626D01*
Y129114D01*
X995090Y126688D01*
X996346Y124512D01*
X998122Y122736D01*
X999351Y122027D01*
X999486Y121631D01*
Y119109D01*
X999351Y118713D01*
X998122Y118004D01*
X996346Y116228D01*
X995090Y114052D01*
X994440Y111626D01*
Y109114D01*
X995090Y106688D01*
X996346Y104512D01*
X998122Y102736D01*
X999351Y102027D01*
X999486Y101631D01*
Y99109D01*
X999351Y98713D01*
X998122Y98004D01*
X996346Y96228D01*
X995931Y95509D01*
X377029D01*
X376614Y96228D01*
X374838Y98004D01*
X373609Y98713D01*
X373474Y99109D01*
Y101631D01*
X373609Y102027D01*
X374838Y102736D01*
X376614Y104512D01*
X377029Y105231D01*
X445370D01*
X447337Y105623D01*
X449004Y106736D01*
X486234Y143966D01*
X487348Y145633D01*
X487739Y147600D01*
Y340986D01*
X487843Y341046D01*
X489433Y342636D01*
X490558Y344583D01*
X491140Y346755D01*
Y349004D01*
X490558Y351176D01*
X489433Y353123D01*
X487843Y354713D01*
X485896Y355838D01*
X483724Y356420D01*
X481475D01*
X479303Y355838D01*
X477356Y354713D01*
X475766Y353123D01*
X474642Y351176D01*
X474060Y349004D01*
Y346755D01*
X474642Y344583D01*
X475766Y342636D01*
X477356Y341046D01*
X477461Y340985D01*
Y149728D01*
X443242Y115509D01*
X377029D01*
X376614Y116228D01*
X374838Y118004D01*
X373609Y118713D01*
X373474Y119109D01*
Y121631D01*
X373609Y122027D01*
X374838Y122736D01*
X376614Y124512D01*
X377870Y126688D01*
X378520Y129114D01*
Y131626D01*
X377870Y134052D01*
X376614Y136228D01*
X374838Y138004D01*
X373609Y138713D01*
X373474Y139109D01*
Y141631D01*
X373609Y142027D01*
X374838Y142736D01*
X376614Y144512D01*
X377870Y146688D01*
X378520Y149114D01*
Y151626D01*
X377870Y154052D01*
X376614Y156228D01*
X374838Y158004D01*
X373609Y158713D01*
X373474Y159109D01*
Y161631D01*
X373609Y162027D01*
X374838Y162736D01*
X376614Y164512D01*
X377870Y166688D01*
X378520Y169114D01*
Y171626D01*
X377870Y174052D01*
X376614Y176228D01*
X374838Y178004D01*
X372663Y179260D01*
X370236Y179910D01*
X367724D01*
X365298Y179260D01*
X363122Y178004D01*
X361346Y176228D01*
X360090Y174052D01*
X359440Y171626D01*
Y169114D01*
X360090Y166688D01*
X361346Y164512D01*
X363122Y162736D01*
X364351Y162027D01*
X364487Y161631D01*
Y159109D01*
X364351Y158713D01*
X363122Y158004D01*
X361346Y156228D01*
X360090Y154052D01*
X359440Y151626D01*
Y149114D01*
X360090Y146688D01*
X361346Y144512D01*
X363122Y142736D01*
X364351Y142027D01*
X364487Y141631D01*
Y139109D01*
X364351Y138713D01*
X363122Y138004D01*
X361346Y136228D01*
X360090Y134052D01*
X359440Y131626D01*
Y129114D01*
X360090Y126688D01*
X361346Y124512D01*
X363122Y122736D01*
X364351Y122027D01*
X364487Y121631D01*
Y119109D01*
X364351Y118713D01*
X363122Y118004D01*
X361346Y116228D01*
X360090Y114052D01*
X359440Y111626D01*
Y109114D01*
X360090Y106688D01*
X361346Y104512D01*
X363019Y102839D01*
X363132Y102596D01*
X363345Y99364D01*
X361928Y98042D01*
X359135Y98132D01*
X352605Y104662D01*
Y105000D01*
Y295392D01*
X353284Y296569D01*
X353890Y298830D01*
Y301170D01*
X353284Y303431D01*
X352605Y304608D01*
Y305338D01*
X362128Y314861D01*
X420201D01*
X420386Y314541D01*
X422041Y312886D01*
X424069Y311716D01*
X426330Y311110D01*
X428670D01*
X430931Y311716D01*
X432959Y312886D01*
X434614Y314541D01*
X435784Y316569D01*
X436390Y318830D01*
Y321170D01*
X435784Y323431D01*
X434614Y325459D01*
X432959Y327114D01*
X430931Y328284D01*
X428670Y328890D01*
X426330D01*
X424069Y328284D01*
X422041Y327114D01*
X420386Y325459D01*
X420201Y325139D01*
X360000D01*
X358033Y324748D01*
X356366Y323634D01*
X355377Y322644D01*
X352605Y323792D01*
Y364350D01*
X375025Y386770D01*
X454375D01*
X456343Y387029D01*
X458177Y387789D01*
X459753Y388997D01*
X522878Y452122D01*
X524086Y453698D01*
X524846Y455532D01*
X525105Y457500D01*
Y492500D01*
Y520392D01*
X525784Y521569D01*
X526390Y523830D01*
Y526170D01*
X525784Y528431D01*
X524614Y530459D01*
X522959Y532114D01*
X520931Y533284D01*
X518670Y533890D01*
D02*
G37*
G36*
X963670Y483890D02*
X961330D01*
X959069Y483284D01*
X957041Y482114D01*
X955386Y480459D01*
X954216Y478431D01*
X953610Y476170D01*
Y473830D01*
X953706Y473473D01*
X855371Y375139D01*
X762298D01*
X762114Y375459D01*
X760459Y377114D01*
X758431Y378284D01*
X756170Y378890D01*
X753830D01*
X751569Y378284D01*
X749541Y377114D01*
X747886Y375459D01*
X746716Y373431D01*
X746110Y371170D01*
Y368830D01*
X746716Y366569D01*
X747886Y364541D01*
X749541Y362886D01*
X751569Y361716D01*
X753830Y361110D01*
X756170D01*
X758431Y361716D01*
X760459Y362886D01*
X762114Y364541D01*
X762298Y364861D01*
X857500D01*
X859466Y365252D01*
X861134Y366366D01*
X960973Y466206D01*
X961330Y466110D01*
X963670D01*
X965931Y466716D01*
X967959Y467886D01*
X969614Y469541D01*
X970784Y471569D01*
X971390Y473830D01*
Y476170D01*
X970784Y478431D01*
X969614Y480459D01*
X967959Y482114D01*
X965931Y483284D01*
X963670Y483890D01*
D02*
G37*
G36*
X201340Y479294D02*
X179260D01*
Y457214D01*
X201340D01*
Y479294D01*
D02*
G37*
G36*
X963670Y453890D02*
X961330D01*
X959069Y453284D01*
X957041Y452114D01*
X955386Y450459D01*
X954216Y448431D01*
X953610Y446170D01*
Y443830D01*
X953706Y443473D01*
X862871Y352639D01*
X762298D01*
X762114Y352959D01*
X760459Y354614D01*
X758431Y355784D01*
X756170Y356390D01*
X753830D01*
X751569Y355784D01*
X749541Y354614D01*
X747886Y352959D01*
X746716Y350931D01*
X746110Y348670D01*
Y346330D01*
X746716Y344069D01*
X747886Y342041D01*
X749541Y340386D01*
X751569Y339216D01*
X753830Y338610D01*
X756170D01*
X758431Y339216D01*
X760459Y340386D01*
X762114Y342041D01*
X762298Y342361D01*
X865000D01*
X866966Y342752D01*
X868634Y343866D01*
X960973Y436206D01*
X961330Y436110D01*
X963670D01*
X965931Y436716D01*
X967959Y437886D01*
X969614Y439541D01*
X970784Y441569D01*
X971390Y443830D01*
Y446170D01*
X970784Y448431D01*
X969614Y450459D01*
X967959Y452114D01*
X965931Y453284D01*
X963670Y453890D01*
D02*
G37*
G36*
X316170Y411390D02*
X313830D01*
X311569Y410784D01*
X309541Y409614D01*
X307886Y407959D01*
X306716Y405931D01*
X306110Y403670D01*
Y401330D01*
X306716Y399069D01*
X307886Y397041D01*
X309420Y395508D01*
X309541Y395343D01*
X309541Y392157D01*
X309420Y391992D01*
X307886Y390459D01*
X306716Y388431D01*
X306110Y386170D01*
Y383830D01*
X306716Y381569D01*
X307886Y379541D01*
X309541Y377886D01*
X311569Y376716D01*
X313830Y376110D01*
X316170D01*
X318431Y376716D01*
X320459Y377886D01*
X322114Y379541D01*
X323284Y381569D01*
X323890Y383830D01*
Y386170D01*
X323284Y388431D01*
X322114Y390459D01*
X320580Y391992D01*
X320459Y392157D01*
X320459Y395343D01*
X320580Y395508D01*
X322114Y397041D01*
X323284Y399069D01*
X323890Y401330D01*
Y403670D01*
X323284Y405931D01*
X322114Y407959D01*
X320459Y409614D01*
X318431Y410784D01*
X316170Y411390D01*
D02*
G37*
G36*
X465740Y331020D02*
X448660D01*
Y313940D01*
X465740D01*
Y331020D01*
D02*
G37*
G36*
X61445Y326774D02*
X58735D01*
X56118Y326073D01*
X53772Y324718D01*
X51856Y322802D01*
X50501Y320456D01*
X49800Y317839D01*
Y315129D01*
X50501Y312512D01*
X51856Y310166D01*
X53772Y308250D01*
X56118Y306895D01*
X58735Y306194D01*
X61445D01*
X64062Y306895D01*
X66408Y308250D01*
X68324Y310166D01*
X69679Y312512D01*
X70380Y315129D01*
Y317839D01*
X69679Y320456D01*
X68324Y322802D01*
X66408Y324718D01*
X64062Y326073D01*
X61445Y326774D01*
D02*
G37*
G36*
X536170Y331390D02*
X533830D01*
X531569Y330784D01*
X529541Y329614D01*
X527886Y327959D01*
X526716Y325931D01*
X526110Y323670D01*
Y321330D01*
X526716Y319069D01*
X527886Y317041D01*
X529541Y315386D01*
X531111Y314480D01*
Y156184D01*
X530386Y155459D01*
X529216Y153431D01*
X528610Y151170D01*
Y148830D01*
X529216Y146569D01*
X530386Y144541D01*
X532041Y142886D01*
X534069Y141716D01*
X536330Y141110D01*
X538670D01*
X540931Y141716D01*
X542959Y142886D01*
X544614Y144541D01*
X545784Y146569D01*
X546390Y148830D01*
Y151170D01*
X545784Y153431D01*
X544614Y155459D01*
X542959Y157114D01*
X541389Y158020D01*
Y316316D01*
X542114Y317041D01*
X543284Y319069D01*
X543890Y321330D01*
Y323670D01*
X543284Y325931D01*
X542114Y327959D01*
X540459Y329614D01*
X538431Y330784D01*
X536170Y331390D01*
D02*
G37*
G36*
X84044Y153734D02*
X81796D01*
X79623Y153152D01*
X77676Y152028D01*
X76086Y150438D01*
X74962Y148490D01*
X74380Y146318D01*
Y144070D01*
X74962Y141898D01*
X76086Y139950D01*
X77676Y138360D01*
X79623Y137236D01*
X81796Y136654D01*
X84044D01*
X86216Y137236D01*
X88163Y138360D01*
X89754Y139950D01*
X90878Y141898D01*
X91460Y144070D01*
Y146318D01*
X90878Y148490D01*
X89754Y150438D01*
X88163Y152028D01*
X86216Y153152D01*
X84044Y153734D01*
D02*
G37*
G36*
X139785Y123524D02*
X137075D01*
X134458Y122823D01*
X132112Y121468D01*
X130196Y119552D01*
X128841Y117206D01*
X128140Y114589D01*
Y111880D01*
X128841Y109262D01*
X130196Y106916D01*
X132112Y105000D01*
X134458Y103645D01*
X137075Y102944D01*
X139785D01*
X142402Y103645D01*
X144748Y105000D01*
X146664Y106916D01*
X148019Y109262D01*
X148720Y111880D01*
Y114589D01*
X148019Y117206D01*
X146664Y119552D01*
X144748Y121468D01*
X142402Y122823D01*
X139785Y123524D01*
D02*
G37*
G36*
X90190Y68070D02*
X73110D01*
Y50990D01*
X80332D01*
X80526Y48070D01*
X79904Y47903D01*
X78354Y47488D01*
X76406Y46364D01*
X74816Y44774D01*
X73692Y42826D01*
X73110Y40654D01*
Y38406D01*
X73692Y36234D01*
X74816Y34286D01*
X76406Y32696D01*
X78354Y31572D01*
X80526Y30990D01*
X82774D01*
X84946Y31572D01*
X86894Y32696D01*
X88483Y34286D01*
X89608Y36234D01*
X90190Y38406D01*
Y40654D01*
X89608Y42826D01*
X88483Y44774D01*
X86894Y46364D01*
X84946Y47488D01*
X83396Y47903D01*
X82774Y48070D01*
X82967Y50990D01*
X90190D01*
Y68070D01*
D02*
G37*
%LPD*%
D46*
X1003980Y70370D02*
D03*
Y90370D02*
D03*
Y110370D02*
D03*
Y130370D02*
D03*
Y150370D02*
D03*
Y170370D02*
D03*
Y190370D02*
D03*
Y210370D02*
D03*
Y230370D02*
D03*
X368980D02*
D03*
Y210370D02*
D03*
Y190370D02*
D03*
Y170370D02*
D03*
Y150370D02*
D03*
Y130370D02*
D03*
Y110370D02*
D03*
Y90370D02*
D03*
D47*
Y70370D02*
D03*
D50*
X97300Y561090D02*
D03*
X351300D02*
D03*
D51*
X138430Y24434D02*
D03*
D52*
Y113234D02*
D03*
X60090Y316484D02*
D03*
D53*
X110090D02*
D03*
D56*
X81650Y39530D02*
D03*
X82920Y145194D02*
D03*
X508000Y322480D02*
D03*
X482600Y347880D02*
D03*
D57*
X81650Y59530D02*
D03*
X82920Y165194D02*
D03*
X457200Y322480D02*
D03*
D59*
X345517Y305517D02*
X360000Y320000D01*
X725000Y170000D02*
X725370Y170370D01*
X1003980D01*
X770000Y150000D02*
X770185Y150185D01*
X1003795D01*
X1003980Y150370D01*
X1002545Y188935D02*
X1003980Y190370D01*
X685000Y187500D02*
X686435Y188935D01*
X1002545D01*
X642084Y207500D02*
X644954Y210370D01*
X640000Y207500D02*
X642084D01*
X644954Y210370D02*
X1003980D01*
X536250Y151250D02*
X537500Y150000D01*
X535000Y322500D02*
X536250Y321250D01*
Y151250D02*
Y321250D01*
X360000Y320000D02*
X427500D01*
X482600Y147600D02*
Y347879D01*
X482600Y347880D02*
X482600Y347879D01*
X445370Y110370D02*
X482600Y147600D01*
X368980Y110370D02*
X445370D01*
X368980Y90370D02*
X1003980D01*
X345000Y105000D02*
X359052Y90948D01*
X368402D01*
X368980Y90370D01*
X755000Y370000D02*
X857500D01*
X962500Y475000D01*
X865000Y347500D02*
X962500Y445000D01*
X755000Y347500D02*
X865000D01*
D60*
X371875Y394375D02*
X454375D01*
X517500Y457500D01*
Y492500D01*
X500707Y475707D02*
X517500Y492500D01*
X452500Y475000D02*
X500000D01*
X450000D02*
X452500D01*
X345000Y367500D02*
X371875Y394375D01*
X345000Y300000D02*
Y367500D01*
X335000Y475000D02*
X449000D01*
X301746Y508254D02*
X335000Y475000D01*
X517500Y492500D02*
Y525000D01*
X345000Y105000D02*
Y300000D01*
X289434Y24434D02*
X345000Y80000D01*
Y105000D01*
X138430Y24434D02*
X289434D01*
X241300Y508254D02*
X301746D01*
D65*
X258300Y468254D02*
D03*
X241300Y508254D02*
D03*
X224300Y468254D02*
D03*
X207300Y508254D02*
D03*
D66*
X190300Y468254D02*
D03*
D67*
X227500Y47500D02*
D03*
X180000D02*
D03*
X995000Y280000D02*
D03*
X665000Y480000D02*
D03*
X600000Y477500D02*
D03*
X297500Y555000D02*
D03*
X392500Y435000D02*
D03*
X332500Y440000D02*
D03*
X442500Y357500D02*
D03*
X397500Y360000D02*
D03*
X865000Y647500D02*
D03*
X952500Y615000D02*
D03*
X865000D02*
D03*
X782500Y587500D02*
D03*
X737500Y590000D02*
D03*
X592500Y575000D02*
D03*
X557500Y630000D02*
D03*
X82500Y617500D02*
D03*
X192500Y620000D02*
D03*
X427500Y575000D02*
D03*
X420000Y525000D02*
D03*
X412500Y672500D02*
D03*
X190000D02*
D03*
X295000D02*
D03*
X82500D02*
D03*
X102500Y465000D02*
D03*
X57500Y455000D02*
D03*
X162500Y380000D02*
D03*
X222500Y412500D02*
D03*
X182500Y265000D02*
D03*
X115000Y230000D02*
D03*
X157500Y170000D02*
D03*
X140000Y72500D02*
D03*
X585000Y420000D02*
D03*
X507500Y392500D02*
D03*
X510000Y177500D02*
D03*
X507500Y122500D02*
D03*
X457500Y275000D02*
D03*
X397500D02*
D03*
X427500Y232500D02*
D03*
X872500Y495000D02*
D03*
X922500D02*
D03*
X950000Y375000D02*
D03*
X690000Y377500D02*
D03*
X670000Y355000D02*
D03*
X960000Y245000D02*
D03*
X920000Y282500D02*
D03*
X875000Y242500D02*
D03*
X835000Y282500D02*
D03*
X757500Y240000D02*
D03*
X712500Y270000D02*
D03*
X585000Y260000D02*
D03*
X595000Y180000D02*
D03*
X675000Y132500D02*
D03*
X835000Y117500D02*
D03*
X927500Y37500D02*
D03*
X712500Y42500D02*
D03*
X417500Y40000D02*
D03*
X275000Y100000D02*
D03*
Y192500D02*
D03*
X725000Y170000D02*
D03*
X770000Y150000D02*
D03*
X685000Y187500D02*
D03*
X640000Y207500D02*
D03*
X537500Y150000D02*
D03*
X535000Y322500D02*
D03*
X427500Y320000D02*
D03*
X790000Y432500D02*
D03*
X732500Y485000D02*
D03*
X315000Y385000D02*
D03*
Y402500D02*
D03*
X517500Y525000D02*
D03*
X345000Y300000D02*
D03*
X755000Y370000D02*
D03*
Y347500D02*
D03*
X962500Y445000D02*
D03*
Y475000D02*
D03*
M02*
