G04*
G04 #@! TF.GenerationSoftware,Altium Limited,Altium Designer,25.1.2 (22)*
G04*
G04 Layer_Color=12632256*
%FSLAX44Y44*%
%MOMM*%
G71*
G04*
G04 #@! TF.SameCoordinates,735CD127-3729-4D2A-A9AC-AB826B6A9FB7*
G04*
G04*
G04 #@! TF.FilePolarity,Positive*
G04*
G01*
G75*
%ADD46C,1.4000*%
%ADD47R,1.4000X1.4000*%
%ADD50C,3.7000*%
%ADD51R,1.5500X1.5500*%
%ADD52C,1.5500*%
%ADD53R,1.5500X1.5500*%
%ADD56C,1.2000*%
%ADD57R,1.2000X1.2000*%
%ADD65C,1.7000*%
%ADD66R,1.7000X1.7000*%
D46*
X1003980Y70370D02*
D03*
Y90370D02*
D03*
Y110370D02*
D03*
Y130370D02*
D03*
Y150370D02*
D03*
Y170370D02*
D03*
Y190370D02*
D03*
Y210370D02*
D03*
Y230370D02*
D03*
X368980D02*
D03*
Y210370D02*
D03*
Y190370D02*
D03*
Y170370D02*
D03*
Y150370D02*
D03*
Y130370D02*
D03*
Y110370D02*
D03*
Y90370D02*
D03*
D47*
Y70370D02*
D03*
D50*
X97300Y561090D02*
D03*
X351300D02*
D03*
D51*
X138430Y24434D02*
D03*
D52*
Y113234D02*
D03*
X60090Y316484D02*
D03*
D53*
X110090D02*
D03*
D56*
X81650Y39530D02*
D03*
X82920Y145194D02*
D03*
X508000Y322480D02*
D03*
X482600Y347880D02*
D03*
D57*
X81650Y59530D02*
D03*
X82920Y165194D02*
D03*
X457200Y322480D02*
D03*
D65*
X258300Y468254D02*
D03*
X241300Y508254D02*
D03*
X224300Y468254D02*
D03*
X207300Y508254D02*
D03*
D66*
X190300Y468254D02*
D03*
M02*
